<svg height="512pt" viewBox="0 -60 512 512" width="512pt" xmlns="http://www.w3.org/2000/svg"><path d="m488.757812 170.9375h-79.15625c8.707032-5.507812 16.644532-12.292969 23.476563-20.222656 16.363281-18.996094 25.378906-43.28125 25.378906-68.378906v-42.113282c7.886719-2.929687 13.527344-10.507812 13.527344-19.402344v-.109374c0-11.421876-9.289063-20.710938-20.710937-20.710938h-390.550782c-11.414062 0-20.699218 9.289062-20.699218 20.710938v.109374c0 8.890626 5.640624 16.46875 13.519531 19.398438v42.117188c0 25.097656 9.015625 49.382812 25.382812 68.378906 6.828125 7.929687 14.765625 14.714844 23.476563 20.222656h-79.160156c-12.816407 0-23.242188 10.425781-23.242188 23.242188v.132812c0 10.335938 6.785156 19.113281 16.132812 22.125v51.1875c0 68.097656 55.398438 123.496094 123.496094 123.496094h13.722656c.019532 0 .039063.003906.058594.003906h205.1875c.019532 0 .039063-.003906.054688-.003906h13.730468c68.097657 0 123.496094-55.398438 123.496094-123.496094v-51.191406c9.34375-3.015625 16.121094-11.792969 16.121094-22.125v-.128906c0-12.816407-10.425781-23.242188-23.242188-23.242188zm-31.773437-150.226562v.109374c0 3.148438-2.558594 5.710938-5.707031 5.710938h-101.695313v-11.53125h101.695313c3.148437 0 5.707031 2.5625 5.707031 5.710938zm-122.40625-5.710938v29.453125c0 4.144531 3.359375 7.5 7.5 7.5 4.144531 0 7.5-3.355469 7.5-7.5v-2.921875h93.875v40.804688c0 21.507812-7.71875 42.3125-21.742187 58.585937-13.765626 15.976563-32.703126 26.617187-53.371094 30.015625h-18.761719v-93.476562c0-4.144532-3.355469-7.5-7.5-7.5-4.140625 0-7.5 3.355468-7.5 7.5v93.476562h-157.148437v-155.9375zm16.515625 194.953125c0 .035156-.003906.066406-.003906.097656 0 .035157.003906.066407.003906.097657v165.972656h-190.183594v-190.179688h190.1875v24.011719zm-296.070312-189.242187c0-3.148438 2.558593-5.710938 5.703124-5.710938h101.703126v11.53125h-101.703126c-3.144531 0-5.703124-2.5625-5.703124-5.710938zm35.265624 120.210937c-14.023437-16.273437-21.746093-37.078125-21.746093-58.585937v-40.804688h93.886719v129.410156h-18.757813c-20.675781-3.402344-39.617187-14.042968-53.382813-30.019531zm-59.15625 126.703125v-50.074219h85.605469c4.144531 0 7.5-3.355469 7.5-7.5 0-4.140625-3.355469-7.5-7.5-7.5h-93.496093c-4.546876 0-8.242188-3.695312-8.242188-8.238281v-.132812c0-4.542969 3.695312-8.238282 8.242188-8.238282h119.761718.011719.019531 2.871094v190.179688h-6.28125c-59.820312 0-108.492188-48.671875-108.492188-108.496094zm449.746094 0c0 59.824219-48.671875 108.496094-108.496094 108.496094h-6.285156v-158.570313h114.78125zm16.121094-73.316406c0 4.546875-3.699219 8.242187-8.242188 8.242187h-122.660156v-16.609375h2.875.019532.011718 119.753906c4.542969 0 8.238282 3.695313 8.238282 8.238282v.128906zm0 0"/><path d="m281.539062 215.429688h-85.988281c-4.144531 0-7.5 3.359374-7.5 7.5 0 4.144531 3.355469 7.5 7.5 7.5h85.988281c4.144532 0 7.5-3.355469 7.5-7.5 0-4.140626-3.355468-7.5-7.5-7.5zm0 0"/><path d="m238.542969 245.882812h-42.992188c-4.144531 0-7.5 3.355469-7.5 7.5 0 4.140626 3.355469 7.5 7.5 7.5h42.992188c4.144531 0 7.5-3.359374 7.5-7.5 0-4.144531-3.355469-7.5-7.5-7.5zm0 0"/><path d="m238.542969 335.085938h-42.992188c-4.144531 0-7.5 3.359374-7.5 7.5 0 4.144531 3.355469 7.5 7.5 7.5h42.992188c4.144531 0 7.5-3.355469 7.5-7.5 0-4.140626-3.355469-7.5-7.5-7.5zm0 0"/><path d="m213.007812 54.507812h85.988282c4.144531 0 7.5-3.355468 7.5-7.5 0-4.140624-3.355469-7.5-7.5-7.5h-85.988282c-4.144531 0-7.5 3.359376-7.5 7.5 0 4.144532 3.355469 7.5 7.5 7.5zm0 0"/><path d="m213.007812 84.960938h42.996094c4.140625 0 7.5-3.359376 7.5-7.5 0-4.144532-3.359375-7.5-7.5-7.5h-42.996094c-4.144531 0-7.5 3.355468-7.5 7.5 0 4.140624 3.355469 7.5 7.5 7.5zm0 0"/><path d="m213.007812 142.472656h42.996094c4.140625 0 7.5-3.359375 7.5-7.5 0-4.144531-3.359375-7.5-7.5-7.5h-42.996094c-4.144531 0-7.5 3.355469-7.5 7.5 0 4.140625 3.355469 7.5 7.5 7.5zm0 0"/></svg>