<?xml version="1.0" encoding="utf-8"?>
<!-- Generator: Adobe Illustrator 23.1.0, SVG Export Plug-In . SVG Version: 6.00 Build 0)  -->
<svg version="1.1" id="圖層_1" xmlns="http://www.w3.org/2000/svg" xmlns:xlink="http://www.w3.org/1999/xlink" x="0px" y="0px"
	 viewBox="0 0 1920 1080" style="enable-background:new 0 0 1920 1080;" xml:space="preserve">
<style type="text/css">
	.st0{fill:#EFF6F4;}
	.st1{fill:none;stroke:#C5DFDA;stroke-width:2.9784;stroke-linecap:round;stroke-linejoin:round;stroke-miterlimit:10;}
	.st2{fill:#F5F1EC;}
	.st3{fill:none;stroke:#DCCDC3;stroke-width:2.9784;stroke-linecap:round;stroke-linejoin:round;stroke-miterlimit:10;}
	.st4{fill:#F7E9EC;}
	.st5{fill:none;stroke:#E2B2C2;stroke-width:2.9784;stroke-linecap:round;stroke-linejoin:round;stroke-miterlimit:10;}
	.st6{fill:#F5F5E8;}
	.st7{fill:none;stroke:#DDDBB2;stroke-width:2.9784;stroke-linecap:round;stroke-linejoin:round;stroke-miterlimit:10;}
	.st8{fill:#F0F2E9;}
	.st9{fill:none;stroke:#CBD2B1;stroke-width:2.9784;stroke-linecap:round;stroke-linejoin:round;stroke-miterlimit:10;}
	.st10{fill:#F5F1E9;}
	.st11{fill:none;stroke:#DACDB3;stroke-width:2.9784;stroke-linecap:round;stroke-linejoin:round;stroke-miterlimit:10;}
	.st12{fill:#E7F8E9;}
	.st13{fill:none;stroke:#A9E8B3;stroke-width:2.9784;stroke-linecap:round;stroke-linejoin:round;stroke-miterlimit:10;}
	.st14{fill:#E4F2EA;}
	.st15{fill:none;stroke:#A1D2B6;stroke-width:2.9784;stroke-linecap:round;stroke-linejoin:round;stroke-miterlimit:10;}
	.st16{fill:#F5F0E9;}
	.st17{fill:none;stroke:#DACAB5;stroke-width:2.9784;stroke-linecap:round;stroke-linejoin:round;stroke-miterlimit:10;}
	.st18{fill:#F0E5EA;}
	.st19{fill:none;stroke:#CCA4B7;stroke-width:2.9784;stroke-linecap:round;stroke-linejoin:round;stroke-miterlimit:10;}
	.st20{fill:#F2EDEA;}
	.st21{fill:none;stroke:#D1C0B8;stroke-width:2.9784;stroke-linecap:round;stroke-linejoin:round;stroke-miterlimit:10;}
	.st22{fill:#EBF6EB;}
	.st23{fill:none;stroke:#B7DEBA;stroke-width:2.9784;stroke-linecap:round;stroke-linejoin:round;stroke-miterlimit:10;}
	.st24{fill:#F9F2EB;}
	.st25{fill:none;stroke:#E9D1BC;stroke-width:2.9784;stroke-linecap:round;stroke-linejoin:round;stroke-miterlimit:10;}
	.st26{fill:#F2EAEE;}
	.st27{fill:none;stroke:#D3B4C5;stroke-width:2.9784;stroke-linecap:round;stroke-linejoin:round;stroke-miterlimit:10;}
	.st28{fill:#F4E3E4;}
	.st29{fill:none;stroke:#D89DA0;stroke-width:2.9784;stroke-linecap:round;stroke-linejoin:round;stroke-miterlimit:10;}
	.st30{fill:#E7FCE3;}
	.st31{fill:none;stroke:#A9F39E;stroke-width:2.9784;stroke-linecap:round;stroke-linejoin:round;stroke-miterlimit:10;}
	.st32{fill:#EBF1E4;}
	.st33{fill:none;stroke:#B7CDA0;stroke-width:2.9784;stroke-linecap:round;stroke-linejoin:round;stroke-miterlimit:10;}
	.st34{fill:#ECF3E5;}
	.st35{fill:none;stroke:#BCD3A5;stroke-width:2.9784;stroke-linecap:round;stroke-linejoin:round;stroke-miterlimit:10;}
	.st36{fill:#F0EBE6;}
	.st37{fill:none;stroke:#CAB7AA;stroke-width:2.9784;stroke-linecap:round;stroke-linejoin:round;stroke-miterlimit:10;}
	.st38{fill:#EFF3E6;}
	.st39{fill:none;stroke:#C7D5AB;stroke-width:2.9784;stroke-linecap:round;stroke-linejoin:round;stroke-miterlimit:10;}
	.st40{fill:#EFEEE3;}
	.st41{fill:none;stroke:#C5C2A0;stroke-width:2.9784;stroke-linecap:round;stroke-linejoin:round;stroke-miterlimit:10;}
	.st42{fill:#F0F3E6;}
	.st43{fill:none;stroke:#CBD3A9;stroke-width:2.9784;stroke-linecap:round;stroke-linejoin:round;stroke-miterlimit:10;}
	.st44{fill:#FCF1E6;}
	.st45{fill:none;stroke:#F6CDAF;stroke-width:2.9784;stroke-linecap:round;stroke-linejoin:round;stroke-miterlimit:10;}
	.st46{fill:#EEEEE2;}
	.st47{fill:none;stroke:#C4C499;stroke-width:2.9784;stroke-linecap:round;stroke-linejoin:round;stroke-miterlimit:10;}
	.st48{fill:#F3ECE7;}
	.st49{fill:none;stroke:#D3BBAC;stroke-width:2.9784;stroke-linecap:round;stroke-linejoin:round;stroke-miterlimit:10;}
	.st50{fill:#E7F2E2;}
	.st51{fill:none;stroke:#AAD298;stroke-width:2.9784;stroke-linecap:round;stroke-linejoin:round;stroke-miterlimit:10;}
</style>
<symbol  id="_x12_1675529702016_-1127593600_78_x00_" viewBox="-41.82 -26.18 83.64 52.36">
	<g>
		<g>
			<path class="st0" d="M29.49-20.32c-5.94-3.88-15.11-6.93-28.91-5.51C-20.45-23.65-31.17-12.91-35.7-6.7
				c-4.72,6.48-6.96,13.79-5.83,19.09c1.12,5.28,4.18,9.51,8.6,11.9c3.56,1.92,7.66,2.41,10.71,1.28c3.97-1.48,6.05-3.54,8.46-5.94
				c3.18-3.16,6.79-6.74,14.31-8.14c7.04-1.32,12.05,0.92,16.46,2.91c3.94,1.77,7.35,3.3,12.18,2.42
				c7.14-1.31,11.84-6.93,12.57-15.04c0.41-4.53-1.31-12.03-7.53-18.24C32.95-17.76,31.38-19.08,29.49-20.32z"/>
		</g>
	</g>
	<path class="st1" d="M-31.39,1.72c7.38-7.09,19.65-16.34,34.87-16.73c1.17-0.03,2.32-0.01,3.45,0.06"/>
	<line class="st1" x1="13.92" y1="-15.28" x2="12.36" y2="-15.45"/>
</symbol>
<symbol  id="_x12_1675529702016_-1900717184_53_x00_" viewBox="-41.82 -26.18 83.64 52.36">
	<g>
		<g>
			<path class="st2" d="M29.49-20.32c-5.94-3.88-15.11-6.93-28.91-5.51C-20.45-23.65-31.17-12.91-35.7-6.7
				c-4.72,6.48-6.96,13.79-5.83,19.09c1.12,5.28,4.18,9.51,8.6,11.9c3.56,1.92,7.66,2.41,10.71,1.28c3.97-1.48,6.05-3.54,8.46-5.94
				c3.18-3.16,6.79-6.74,14.31-8.14c7.04-1.32,12.05,0.92,16.46,2.91c3.94,1.77,7.35,3.3,12.18,2.42
				c7.14-1.31,11.84-6.93,12.57-15.04c0.41-4.53-1.31-12.03-7.53-18.24C32.95-17.76,31.38-19.08,29.49-20.32z"/>
		</g>
	</g>
	<path class="st3" d="M-31.39,1.72c7.38-7.09,19.65-16.34,34.87-16.73c1.17-0.03,2.32-0.01,3.45,0.06"/>
	<line class="st3" x1="13.92" y1="-15.28" x2="12.36" y2="-15.45"/>
</symbol>
<symbol  id="_x12_1675529702016_-2060026496_54_x00_" viewBox="-41.82 -26.18 83.64 52.36">
	<g>
		<g>
			<path class="st4" d="M29.49-20.32c-5.94-3.88-15.11-6.93-28.91-5.51C-20.45-23.65-31.17-12.91-35.7-6.7
				c-4.72,6.48-6.96,13.79-5.83,19.09c1.12,5.28,4.18,9.51,8.6,11.9c3.56,1.92,7.66,2.41,10.71,1.28c3.97-1.48,6.05-3.54,8.46-5.94
				c3.18-3.16,6.79-6.74,14.31-8.14c7.04-1.32,12.05,0.92,16.46,2.91c3.94,1.77,7.35,3.3,12.18,2.42
				c7.14-1.31,11.84-6.93,12.57-15.04c0.41-4.53-1.31-12.03-7.53-18.24C32.95-17.76,31.38-19.08,29.49-20.32z"/>
		</g>
	</g>
	<path class="st5" d="M-31.39,1.72c7.38-7.09,19.65-16.34,34.87-16.73c1.17-0.03,2.32-0.01,3.45,0.06"/>
	<line class="st5" x1="13.92" y1="-15.28" x2="12.36" y2="-15.45"/>
</symbol>
<symbol  id="_x12_1675529702016_1021473664_60_x00_" viewBox="-41.82 -26.18 83.64 52.36">
	<g>
		<g>
			<path class="st6" d="M29.49-20.32c-5.94-3.88-15.11-6.93-28.91-5.51C-20.45-23.65-31.17-12.91-35.7-6.7
				c-4.72,6.48-6.96,13.79-5.83,19.09c1.12,5.28,4.18,9.51,8.6,11.9c3.56,1.92,7.66,2.41,10.71,1.28c3.97-1.48,6.05-3.54,8.46-5.94
				c3.18-3.16,6.79-6.74,14.31-8.14c7.04-1.32,12.05,0.92,16.46,2.91c3.94,1.77,7.35,3.3,12.18,2.42
				c7.14-1.31,11.84-6.93,12.57-15.04c0.41-4.53-1.31-12.03-7.53-18.24C32.95-17.76,31.38-19.08,29.49-20.32z"/>
		</g>
	</g>
	<path class="st7" d="M-31.39,1.72c7.38-7.09,19.65-16.34,34.87-16.73c1.17-0.03,2.32-0.01,3.45,0.06"/>
	<line class="st7" x1="13.92" y1="-15.28" x2="12.36" y2="-15.45"/>
</symbol>
<symbol  id="_x12_1675529702016_1050176640_88_x00_" viewBox="-41.82 -26.18 83.64 52.36">
	<g>
		<g>
			<path class="st8" d="M29.49-20.32c-5.94-3.88-15.11-6.93-28.91-5.51C-20.45-23.65-31.17-12.91-35.7-6.7
				c-4.72,6.48-6.96,13.79-5.83,19.09c1.12,5.28,4.18,9.51,8.6,11.9c3.56,1.92,7.66,2.41,10.71,1.28c3.97-1.48,6.05-3.54,8.46-5.94
				c3.18-3.16,6.79-6.74,14.31-8.14c7.04-1.32,12.05,0.92,16.46,2.91c3.94,1.77,7.35,3.3,12.18,2.42
				c7.14-1.31,11.84-6.93,12.57-15.04c0.41-4.53-1.31-12.03-7.53-18.24C32.95-17.76,31.38-19.08,29.49-20.32z"/>
		</g>
	</g>
	<path class="st9" d="M-31.39,1.72c7.38-7.09,19.65-16.34,34.87-16.73c1.17-0.03,2.32-0.01,3.45,0.06"/>
	<line class="st9" x1="13.92" y1="-15.28" x2="12.36" y2="-15.45"/>
</symbol>
<symbol  id="_x12_1675529702016_1100123264_80_x00_" viewBox="-41.82 -26.18 83.64 52.36">
	<g>
		<g>
			<path class="st10" d="M29.49-20.32c-5.94-3.88-15.11-6.93-28.91-5.51C-20.45-23.65-31.17-12.91-35.7-6.7
				c-4.72,6.48-6.96,13.79-5.83,19.09c1.12,5.28,4.18,9.51,8.6,11.9c3.56,1.92,7.66,2.41,10.71,1.28c3.97-1.48,6.05-3.54,8.46-5.94
				c3.18-3.16,6.79-6.74,14.31-8.14c7.04-1.32,12.05,0.92,16.46,2.91c3.94,1.77,7.35,3.3,12.18,2.42
				c7.14-1.31,11.84-6.93,12.57-15.04c0.41-4.53-1.31-12.03-7.53-18.24C32.95-17.76,31.38-19.08,29.49-20.32z"/>
		</g>
	</g>
	<path class="st11" d="M-31.39,1.72c7.38-7.09,19.65-16.34,34.87-16.73c1.17-0.03,2.32-0.01,3.45,0.06"/>
	<line class="st11" x1="13.92" y1="-15.28" x2="12.36" y2="-15.45"/>
</symbol>
<symbol  id="_x12_1675529702016_1137580928_93_x00_" viewBox="-41.82 -26.18 83.64 52.36">
	<g>
		<g>
			<path class="st12" d="M29.49-20.32c-5.94-3.88-15.11-6.93-28.91-5.51C-20.45-23.65-31.17-12.91-35.7-6.7
				c-4.72,6.48-6.96,13.79-5.83,19.09c1.12,5.28,4.18,9.51,8.6,11.9c3.56,1.92,7.66,2.41,10.71,1.28c3.97-1.48,6.05-3.54,8.46-5.94
				c3.18-3.16,6.79-6.74,14.31-8.14c7.04-1.32,12.05,0.92,16.46,2.91c3.94,1.77,7.35,3.3,12.18,2.42
				c7.14-1.31,11.84-6.93,12.57-15.04c0.41-4.53-1.31-12.03-7.53-18.24C32.95-17.76,31.38-19.08,29.49-20.32z"/>
		</g>
	</g>
	<path class="st13" d="M-31.39,1.72c7.38-7.09,19.65-16.34,34.87-16.73c1.17-0.03,2.32-0.01,3.45,0.06"/>
	<line class="st13" x1="13.92" y1="-15.28" x2="12.36" y2="-15.45"/>
</symbol>
<symbol  id="_x12_1675529702016_1251214720_93_x00_" viewBox="-41.82 -26.18 83.64 52.36">
	<g>
		<g>
			<path class="st14" d="M29.49-20.32c-5.94-3.88-15.11-6.93-28.91-5.51C-20.45-23.65-31.17-12.91-35.7-6.7
				c-4.72,6.48-6.96,13.79-5.83,19.09c1.12,5.28,4.18,9.51,8.6,11.9c3.56,1.92,7.66,2.41,10.71,1.28c3.97-1.48,6.05-3.54,8.46-5.94
				c3.18-3.16,6.79-6.74,14.31-8.14c7.04-1.32,12.05,0.92,16.46,2.91c3.94,1.77,7.35,3.3,12.18,2.42
				c7.14-1.31,11.84-6.93,12.57-15.04c0.41-4.53-1.31-12.03-7.53-18.24C32.95-17.76,31.38-19.08,29.49-20.32z"/>
		</g>
	</g>
	<path class="st15" d="M-31.39,1.72c7.38-7.09,19.65-16.34,34.87-16.73c1.17-0.03,2.32-0.01,3.45,0.06"/>
	<line class="st15" x1="13.92" y1="-15.28" x2="12.36" y2="-15.45"/>
</symbol>
<symbol  id="_x12_1675529702016_1302681472_54_x00_" viewBox="-41.82 -26.18 83.64 52.36">
	<g>
		<g>
			<path class="st16" d="M29.49-20.32c-5.94-3.88-15.11-6.93-28.91-5.51C-20.45-23.65-31.17-12.91-35.7-6.7
				c-4.72,6.48-6.96,13.79-5.83,19.09c1.12,5.28,4.18,9.51,8.6,11.9c3.56,1.92,7.66,2.41,10.71,1.28c3.97-1.48,6.05-3.54,8.46-5.94
				c3.18-3.16,6.79-6.74,14.31-8.14c7.04-1.32,12.05,0.92,16.46,2.91c3.94,1.77,7.35,3.3,12.18,2.42
				c7.14-1.31,11.84-6.93,12.57-15.04c0.41-4.53-1.31-12.03-7.53-18.24C32.95-17.76,31.38-19.08,29.49-20.32z"/>
		</g>
	</g>
	<path class="st17" d="M-31.39,1.72c7.38-7.09,19.65-16.34,34.87-16.73c1.17-0.03,2.32-0.01,3.45,0.06"/>
	<line class="st17" x1="13.92" y1="-15.28" x2="12.36" y2="-15.45"/>
</symbol>
<symbol  id="_x12_1675529702016_1310026880_86_x00_" viewBox="-41.82 -26.18 83.64 52.36">
	<g>
		<g>
			<path class="st18" d="M29.49-20.32c-5.94-3.88-15.11-6.93-28.91-5.51C-20.45-23.65-31.17-12.91-35.7-6.7
				c-4.72,6.48-6.96,13.79-5.83,19.09c1.12,5.28,4.18,9.51,8.6,11.9c3.56,1.92,7.66,2.41,10.71,1.28c3.97-1.48,6.05-3.54,8.46-5.94
				c3.18-3.16,6.79-6.74,14.31-8.14c7.04-1.32,12.05,0.92,16.46,2.91c3.94,1.77,7.35,3.3,12.18,2.42
				c7.14-1.31,11.84-6.93,12.57-15.04c0.41-4.53-1.31-12.03-7.53-18.24C32.95-17.76,31.38-19.08,29.49-20.32z"/>
		</g>
	</g>
	<path class="st19" d="M-31.39,1.72c7.38-7.09,19.65-16.34,34.87-16.73c1.17-0.03,2.32-0.01,3.45,0.06"/>
	<line class="st19" x1="13.92" y1="-15.28" x2="12.36" y2="-15.45"/>
</symbol>
<symbol  id="_x12_1675529702016_1382576512_81_x00_" viewBox="-41.82 -26.18 83.64 52.36">
	<g>
		<g>
			<path class="st20" d="M29.49-20.32c-5.94-3.88-15.11-6.93-28.91-5.51C-20.45-23.65-31.17-12.91-35.7-6.7
				c-4.72,6.48-6.96,13.79-5.83,19.09c1.12,5.28,4.18,9.51,8.6,11.9c3.56,1.92,7.66,2.41,10.71,1.28c3.97-1.48,6.05-3.54,8.46-5.94
				c3.18-3.16,6.79-6.74,14.31-8.14c7.04-1.32,12.05,0.92,16.46,2.91c3.94,1.77,7.35,3.3,12.18,2.42
				c7.14-1.31,11.84-6.93,12.57-15.04c0.41-4.53-1.31-12.03-7.53-18.24C32.95-17.76,31.38-19.08,29.49-20.32z"/>
		</g>
	</g>
	<path class="st21" d="M-31.39,1.72c7.38-7.09,19.65-16.34,34.87-16.73c1.17-0.03,2.32-0.01,3.45,0.06"/>
	<line class="st21" x1="13.92" y1="-15.28" x2="12.36" y2="-15.45"/>
</symbol>
<symbol  id="_x12_1675529702016_1557463936_71_x00_" viewBox="-41.82 -26.18 83.64 52.36">
	<g>
		<g>
			<path class="st22" d="M29.49-20.32c-5.94-3.88-15.11-6.93-28.91-5.51C-20.45-23.65-31.17-12.91-35.7-6.7
				c-4.72,6.48-6.96,13.79-5.83,19.09c1.12,5.28,4.18,9.51,8.6,11.9c3.56,1.92,7.66,2.41,10.71,1.28c3.97-1.48,6.05-3.54,8.46-5.94
				c3.18-3.16,6.79-6.74,14.31-8.14c7.04-1.32,12.05,0.92,16.46,2.91c3.94,1.77,7.35,3.3,12.18,2.42
				c7.14-1.31,11.84-6.93,12.57-15.04c0.41-4.53-1.31-12.03-7.53-18.24C32.95-17.76,31.38-19.08,29.49-20.32z"/>
		</g>
	</g>
	<path class="st23" d="M-31.39,1.72c7.38-7.09,19.65-16.34,34.87-16.73c1.17-0.03,2.32-0.01,3.45,0.06"/>
	<line class="st23" x1="13.92" y1="-15.28" x2="12.36" y2="-15.45"/>
</symbol>
<symbol  id="_x12_1675529702016_1756931712_61_x00_" viewBox="-41.82 -26.18 83.64 52.36">
	<g>
		<g>
			<path class="st24" d="M29.49-20.32c-5.94-3.88-15.11-6.93-28.91-5.51C-20.45-23.65-31.17-12.91-35.7-6.7
				c-4.72,6.48-6.96,13.79-5.83,19.09c1.12,5.28,4.18,9.51,8.6,11.9c3.56,1.92,7.66,2.41,10.71,1.28c3.97-1.48,6.05-3.54,8.46-5.94
				c3.18-3.16,6.79-6.74,14.31-8.14c7.04-1.32,12.05,0.92,16.46,2.91c3.94,1.77,7.35,3.3,12.18,2.42
				c7.14-1.31,11.84-6.93,12.57-15.04c0.41-4.53-1.31-12.03-7.53-18.24C32.95-17.76,31.38-19.08,29.49-20.32z"/>
		</g>
	</g>
	<path class="st25" d="M-31.39,1.72c7.38-7.09,19.65-16.34,34.87-16.73c1.17-0.03,2.32-0.01,3.45,0.06"/>
	<line class="st25" x1="13.92" y1="-15.28" x2="12.36" y2="-15.45"/>
</symbol>
<symbol  id="_x12_1675529702016_2001042048_83_x00_" viewBox="-41.82 -26.18 83.64 52.36">
	<g>
		<g>
			<path class="st26" d="M29.49-20.32c-5.94-3.88-15.11-6.93-28.91-5.51C-20.45-23.65-31.17-12.91-35.7-6.7
				c-4.72,6.48-6.96,13.79-5.83,19.09c1.12,5.28,4.18,9.51,8.6,11.9c3.56,1.92,7.66,2.41,10.71,1.28c3.97-1.48,6.05-3.54,8.46-5.94
				c3.18-3.16,6.79-6.74,14.31-8.14c7.04-1.32,12.05,0.92,16.46,2.91c3.94,1.77,7.35,3.3,12.18,2.42
				c7.14-1.31,11.84-6.93,12.57-15.04c0.41-4.53-1.31-12.03-7.53-18.24C32.95-17.76,31.38-19.08,29.49-20.32z"/>
		</g>
	</g>
	<path class="st27" d="M-31.39,1.72c7.38-7.09,19.65-16.34,34.87-16.73c1.17-0.03,2.32-0.01,3.45,0.06"/>
	<line class="st27" x1="13.92" y1="-15.28" x2="12.36" y2="-15.45"/>
</symbol>
<symbol  id="_x12_1675529702016_201428352_85_x00_" viewBox="-41.82 -26.18 83.64 52.36">
	<g>
		<g>
			<path class="st28" d="M29.49-20.32c-5.94-3.88-15.11-6.93-28.91-5.51C-20.45-23.65-31.17-12.91-35.7-6.7
				c-4.72,6.48-6.96,13.79-5.83,19.09c1.12,5.28,4.18,9.51,8.6,11.9c3.56,1.92,7.66,2.41,10.71,1.28c3.97-1.48,6.05-3.54,8.46-5.94
				c3.18-3.16,6.79-6.74,14.31-8.14c7.04-1.32,12.05,0.92,16.46,2.91c3.94,1.77,7.35,3.3,12.18,2.42
				c7.14-1.31,11.84-6.93,12.57-15.04c0.41-4.53-1.31-12.03-7.53-18.24C32.95-17.76,31.38-19.08,29.49-20.32z"/>
		</g>
	</g>
	<path class="st29" d="M-31.39,1.72c7.38-7.09,19.65-16.34,34.87-16.73c1.17-0.03,2.32-0.01,3.45,0.06"/>
	<line class="st29" x1="13.92" y1="-15.28" x2="12.36" y2="-15.45"/>
</symbol>
<symbol  id="_x12_1675529702016_216800128_93_x00_" viewBox="-41.82 -26.18 83.64 52.36">
	<g>
		<g>
			<path class="st30" d="M29.49-20.32c-5.94-3.88-15.11-6.93-28.91-5.51C-20.45-23.65-31.17-12.91-35.7-6.7
				c-4.72,6.48-6.96,13.79-5.83,19.09c1.12,5.28,4.18,9.51,8.6,11.9c3.56,1.92,7.66,2.41,10.71,1.28c3.97-1.48,6.05-3.54,8.46-5.94
				c3.18-3.16,6.79-6.74,14.31-8.14c7.04-1.32,12.05,0.92,16.46,2.91c3.94,1.77,7.35,3.3,12.18,2.42
				c7.14-1.31,11.84-6.93,12.57-15.04c0.41-4.53-1.31-12.03-7.53-18.24C32.95-17.76,31.38-19.08,29.49-20.32z"/>
		</g>
	</g>
	<path class="st31" d="M-31.39,1.72c7.38-7.09,19.65-16.34,34.87-16.73c1.17-0.03,2.32-0.01,3.45,0.06"/>
	<line class="st31" x1="13.92" y1="-15.28" x2="12.36" y2="-15.45"/>
</symbol>
<symbol  id="_x12_1675529702016_310593920_98_x00_" viewBox="-41.82 -26.18 83.64 52.36">
	<g>
		<g>
			<path class="st32" d="M29.49-20.32c-5.94-3.88-15.11-6.93-28.91-5.51C-20.45-23.65-31.17-12.91-35.7-6.7
				c-4.72,6.48-6.96,13.79-5.83,19.09c1.12,5.28,4.18,9.51,8.6,11.9c3.56,1.92,7.66,2.41,10.71,1.28c3.97-1.48,6.05-3.54,8.46-5.94
				c3.18-3.16,6.79-6.74,14.31-8.14c7.04-1.32,12.05,0.92,16.46,2.91c3.94,1.77,7.35,3.3,12.18,2.42
				c7.14-1.31,11.84-6.93,12.57-15.04c0.41-4.53-1.31-12.03-7.53-18.24C32.95-17.76,31.38-19.08,29.49-20.32z"/>
		</g>
	</g>
	<path class="st33" d="M-31.39,1.72c7.38-7.09,19.65-16.34,34.87-16.73c1.17-0.03,2.32-0.01,3.45,0.06"/>
	<line class="st33" x1="13.92" y1="-15.28" x2="12.36" y2="-15.45"/>
</symbol>
<symbol  id="_x12_1675529702016_429864832_82_x00_" viewBox="-41.82 -26.18 83.64 52.36">
	<g>
		<g>
			<path class="st34" d="M29.49-20.32c-5.94-3.88-15.11-6.93-28.91-5.51C-20.45-23.65-31.17-12.91-35.7-6.7
				c-4.72,6.48-6.96,13.79-5.83,19.09c1.12,5.28,4.18,9.51,8.6,11.9c3.56,1.92,7.66,2.41,10.71,1.28c3.97-1.48,6.05-3.54,8.46-5.94
				c3.18-3.16,6.79-6.74,14.31-8.14c7.04-1.32,12.05,0.92,16.46,2.91c3.94,1.77,7.35,3.3,12.18,2.42
				c7.14-1.31,11.84-6.93,12.57-15.04c0.41-4.53-1.31-12.03-7.53-18.24C32.95-17.76,31.38-19.08,29.49-20.32z"/>
		</g>
	</g>
	<path class="st35" d="M-31.39,1.72c7.38-7.09,19.65-16.34,34.87-16.73c1.17-0.03,2.32-0.01,3.45,0.06"/>
	<line class="st35" x1="13.92" y1="-15.28" x2="12.36" y2="-15.45"/>
</symbol>
<symbol  id="_x12_1675529702016_474881664_58_x00_" viewBox="-41.82 -26.18 83.64 52.36">
	<g>
		<g>
			<path class="st36" d="M29.49-20.32c-5.94-3.88-15.11-6.93-28.91-5.51C-20.45-23.65-31.17-12.91-35.7-6.7
				c-4.72,6.48-6.96,13.79-5.83,19.09c1.12,5.28,4.18,9.51,8.6,11.9c3.56,1.92,7.66,2.41,10.71,1.28c3.97-1.48,6.05-3.54,8.46-5.94
				c3.18-3.16,6.79-6.74,14.31-8.14c7.04-1.32,12.05,0.92,16.46,2.91c3.94,1.77,7.35,3.3,12.18,2.42
				c7.14-1.31,11.84-6.93,12.57-15.04c0.41-4.53-1.31-12.03-7.53-18.24C32.95-17.76,31.38-19.08,29.49-20.32z"/>
		</g>
	</g>
	<path class="st37" d="M-31.39,1.72c7.38-7.09,19.65-16.34,34.87-16.73c1.17-0.03,2.32-0.01,3.45,0.06"/>
	<line class="st37" x1="13.92" y1="-15.28" x2="12.36" y2="-15.45"/>
</symbol>
<symbol  id="_x12_1675529702016_516821888_58_x00_" viewBox="-41.82 -26.18 83.64 52.36">
	<g>
		<g>
			<path class="st38" d="M29.49-20.32c-5.94-3.88-15.11-6.93-28.91-5.51C-20.45-23.65-31.17-12.91-35.7-6.7
				c-4.72,6.48-6.96,13.79-5.83,19.09c1.12,5.28,4.18,9.51,8.6,11.9c3.56,1.92,7.66,2.41,10.71,1.28c3.97-1.48,6.05-3.54,8.46-5.94
				c3.18-3.16,6.79-6.74,14.31-8.14c7.04-1.32,12.05,0.92,16.46,2.91c3.94,1.77,7.35,3.3,12.18,2.42
				c7.14-1.31,11.84-6.93,12.57-15.04c0.41-4.53-1.31-12.03-7.53-18.24C32.95-17.76,31.38-19.08,29.49-20.32z"/>
		</g>
	</g>
	<path class="st39" d="M-31.39,1.72c7.38-7.09,19.65-16.34,34.87-16.73c1.17-0.03,2.32-0.01,3.45,0.06"/>
	<line class="st39" x1="13.92" y1="-15.28" x2="12.36" y2="-15.45"/>
</symbol>
<symbol  id="_x12_1675529702016_57688448_75_x00_" viewBox="-41.82 -26.18 83.64 52.36">
	<g>
		<g>
			<path class="st40" d="M29.49-20.32c-5.94-3.88-15.11-6.93-28.91-5.51C-20.45-23.65-31.17-12.91-35.7-6.7
				c-4.72,6.48-6.96,13.79-5.83,19.09c1.12,5.28,4.18,9.51,8.6,11.9c3.56,1.92,7.66,2.41,10.71,1.28c3.97-1.48,6.05-3.54,8.46-5.94
				c3.18-3.16,6.79-6.74,14.31-8.14c7.04-1.32,12.05,0.92,16.46,2.91c3.94,1.77,7.35,3.3,12.18,2.42
				c7.14-1.31,11.84-6.93,12.57-15.04c0.41-4.53-1.31-12.03-7.53-18.24C32.95-17.76,31.38-19.08,29.49-20.32z"/>
		</g>
	</g>
	<path class="st41" d="M-31.39,1.72c7.38-7.09,19.65-16.34,34.87-16.73c1.17-0.03,2.32-0.01,3.45,0.06"/>
	<line class="st41" x1="13.92" y1="-15.28" x2="12.36" y2="-15.45"/>
</symbol>
<symbol  id="_x12_1675529702016_581652608_73_x00_" viewBox="-41.82 -26.18 83.64 52.36">
	<g>
		<g>
			<path class="st42" d="M29.49-20.32c-5.94-3.88-15.11-6.93-28.91-5.51C-20.45-23.65-31.17-12.91-35.7-6.7
				c-4.72,6.48-6.96,13.79-5.83,19.09c1.12,5.28,4.18,9.51,8.6,11.9c3.56,1.92,7.66,2.41,10.71,1.28c3.97-1.48,6.05-3.54,8.46-5.94
				c3.18-3.16,6.79-6.74,14.31-8.14c7.04-1.32,12.05,0.92,16.46,2.91c3.94,1.77,7.35,3.3,12.18,2.42
				c7.14-1.31,11.84-6.93,12.57-15.04c0.41-4.53-1.31-12.03-7.53-18.24C32.95-17.76,31.38-19.08,29.49-20.32z"/>
		</g>
	</g>
	<path class="st43" d="M-31.39,1.72c7.38-7.09,19.65-16.34,34.87-16.73c1.17-0.03,2.32-0.01,3.45,0.06"/>
	<line class="st43" x1="13.92" y1="-15.28" x2="12.36" y2="-15.45"/>
</symbol>
<symbol  id="_x12_1675529702016_685687424_38_x00_" viewBox="-41.82 -26.18 83.64 52.36">
	<g>
		<g>
			<path class="st44" d="M29.49-20.32c-5.94-3.88-15.11-6.93-28.91-5.51C-20.45-23.65-31.17-12.91-35.7-6.7
				c-4.72,6.48-6.96,13.79-5.83,19.09c1.12,5.28,4.18,9.51,8.6,11.9c3.56,1.92,7.66,2.41,10.71,1.28c3.97-1.48,6.05-3.54,8.46-5.94
				c3.18-3.16,6.79-6.74,14.31-8.14c7.04-1.32,12.05,0.92,16.46,2.91c3.94,1.77,7.35,3.3,12.18,2.42
				c7.14-1.31,11.84-6.93,12.57-15.04c0.41-4.53-1.31-12.03-7.53-18.24C32.95-17.76,31.38-19.08,29.49-20.32z"/>
		</g>
	</g>
	<path class="st45" d="M-31.39,1.72c7.38-7.09,19.65-16.34,34.87-16.73c1.17-0.03,2.32-0.01,3.45,0.06"/>
	<line class="st45" x1="13.92" y1="-15.28" x2="12.36" y2="-15.45"/>
</symbol>
<symbol  id="_x12_1675529702016_7105664_99_x00_" viewBox="-41.82 -26.18 83.64 52.36">
	<g>
		<g>
			<path class="st46" d="M29.49-20.32c-5.94-3.88-15.11-6.93-28.91-5.51C-20.45-23.65-31.17-12.91-35.7-6.7
				c-4.72,6.48-6.96,13.79-5.83,19.09c1.12,5.28,4.18,9.51,8.6,11.9c3.56,1.92,7.66,2.41,10.71,1.28c3.97-1.48,6.05-3.54,8.46-5.94
				c3.18-3.16,6.79-6.74,14.31-8.14c7.04-1.32,12.05,0.92,16.46,2.91c3.94,1.77,7.35,3.3,12.18,2.42
				c7.14-1.31,11.84-6.93,12.57-15.04c0.41-4.53-1.31-12.03-7.53-18.24C32.95-17.76,31.38-19.08,29.49-20.32z"/>
		</g>
	</g>
	<path class="st47" d="M-31.39,1.72c7.38-7.09,19.65-16.34,34.87-16.73c1.17-0.03,2.32-0.01,3.45,0.06"/>
	<line class="st47" x1="13.92" y1="-15.28" x2="12.36" y2="-15.45"/>
</symbol>
<symbol  id="_x12_1675529702016_727283328_79_x00_" viewBox="-41.82 -26.18 83.64 52.36">
	<g>
		<g>
			<path class="st48" d="M29.49-20.32c-5.94-3.88-15.11-6.93-28.91-5.51C-20.45-23.65-31.17-12.91-35.7-6.7
				c-4.72,6.48-6.96,13.79-5.83,19.09c1.12,5.28,4.18,9.51,8.6,11.9c3.56,1.92,7.66,2.41,10.71,1.28c3.97-1.48,6.05-3.54,8.46-5.94
				c3.18-3.16,6.79-6.74,14.31-8.14c7.04-1.32,12.05,0.92,16.46,2.91c3.94,1.77,7.35,3.3,12.18,2.42
				c7.14-1.31,11.84-6.93,12.57-15.04c0.41-4.53-1.31-12.03-7.53-18.24C32.95-17.76,31.38-19.08,29.49-20.32z"/>
		</g>
	</g>
	<path class="st49" d="M-31.39,1.72c7.38-7.09,19.65-16.34,34.87-16.73c1.17-0.03,2.32-0.01,3.45,0.06"/>
	<line class="st49" x1="13.92" y1="-15.28" x2="12.36" y2="-15.45"/>
</symbol>
<symbol  id="_x12_1675529702016_9383296_100_x00_" viewBox="-41.82 -26.18 83.64 52.36">
	<g>
		<g>
			<path class="st50" d="M29.49-20.32c-5.94-3.88-15.11-6.93-28.91-5.51C-20.45-23.65-31.17-12.91-35.7-6.7
				c-4.72,6.48-6.96,13.79-5.83,19.09c1.12,5.28,4.18,9.51,8.6,11.9c3.56,1.92,7.66,2.41,10.71,1.28c3.97-1.48,6.05-3.54,8.46-5.94
				c3.18-3.16,6.79-6.74,14.31-8.14c7.04-1.32,12.05,0.92,16.46,2.91c3.94,1.77,7.35,3.3,12.18,2.42
				c7.14-1.31,11.84-6.93,12.57-15.04c0.41-4.53-1.31-12.03-7.53-18.24C32.95-17.76,31.38-19.08,29.49-20.32z"/>
		</g>
	</g>
	<path class="st51" d="M-31.39,1.72c7.38-7.09,19.65-16.34,34.87-16.73c1.17-0.03,2.32-0.01,3.45,0.06"/>
	<line class="st51" x1="13.92" y1="-15.28" x2="12.36" y2="-15.45"/>
</symbol>
<g>
	
		<use xlink:href="#_x12_1675529702016_9383296_100_x00_"  width="83.64" height="52.36" x="-41.82" y="-26.18" transform="matrix(-0.2119 -0.1484 -0.1484 0.2119 623.3072 643.1707)" style="overflow:visible;"/>
	
		<use xlink:href="#_x12_1675529702016_-2060026496_54_x00_"  width="83.64" height="52.36" x="-41.82" y="-26.18" transform="matrix(-0.0639 -0.3476 -0.3476 0.0639 207.91 876.9352)" style="overflow:visible;"/>
	
		<use xlink:href="#_x12_1675529702016_581652608_73_x00_"  width="83.64" height="52.36" x="-41.82" y="-26.18" transform="matrix(-0.2216 0.1502 0.1502 0.2216 109.8022 905.7985)" style="overflow:visible;"/>
	
		<use xlink:href="#_x12_1675529702016_310593920_98_x00_"  width="83.64" height="52.36" x="-41.82" y="-26.18" transform="matrix(0.029 0.2571 0.2571 -0.029 285.4995 1074.764)" style="overflow:visible;"/>
	
		<use xlink:href="#_x12_1675529702016_1382576512_81_x00_"  width="83.64" height="52.36" x="-41.82" y="-26.18" transform="matrix(0.0575 0.1694 0.1694 -0.0575 338.5517 993.374)" style="overflow:visible;"/>
	
		<use xlink:href="#_x12_1675529702016_9383296_100_x00_"  width="83.64" height="52.36" x="-41.82" y="-26.18" transform="matrix(-0.0627 0.251 0.251 0.0627 375.4788 1042.0441)" style="overflow:visible;"/>
	
		<use xlink:href="#_x12_1675529702016_9383296_100_x00_"  width="83.64" height="52.36" x="-41.82" y="-26.18" transform="matrix(0.3251 0 0 -0.3251 438.7396 955.11)" style="overflow:visible;"/>
	
		<use xlink:href="#_x12_1675529702016_201428352_85_x00_"  width="83.64" height="52.36" x="-41.82" y="-26.18" transform="matrix(-0.2802 -0.0244 -0.0244 0.2802 723.5085 654.7475)" style="overflow:visible;"/>
	
		<use xlink:href="#_x12_1675529702016_-1900717184_53_x00_"  width="83.64" height="52.36" x="-41.82" y="-26.18" transform="matrix(-0.2554 -0.0413 -0.0413 0.2554 439.4772 1035.3197)" style="overflow:visible;"/>
	
		<use xlink:href="#_x12_1675529702016_474881664_58_x00_"  width="83.64" height="52.36" x="-41.82" y="-26.18" transform="matrix(-0.1326 -0.2221 -0.2221 0.1326 116.7909 806.3947)" style="overflow:visible;"/>
	
		<use xlink:href="#_x12_1675529702016_1310026880_86_x00_"  width="83.64" height="52.36" x="-41.82" y="-26.18" transform="matrix(-0.2454 0.0818 0.0818 0.2454 29.9253 1027.6349)" style="overflow:visible;"/>
	
		<use xlink:href="#_x12_1675529702016_1021473664_60_x00_"  width="83.64" height="52.36" x="-41.82" y="-26.18" transform="matrix(-0.0887 0.243 0.243 0.0887 855.1296 629.3689)" style="overflow:visible;"/>
	
		<use xlink:href="#_x12_1675529702016_9383296_100_x00_"  width="83.64" height="52.36" x="-41.82" y="-26.18" transform="matrix(-0.248 0.0735 0.0735 0.248 692.7319 817.6584)" style="overflow:visible;"/>
	
		<use xlink:href="#_x12_1675529702016_-1127593600_78_x00_"  width="83.64" height="52.36" x="-41.82" y="-26.18" transform="matrix(-0.0114 -0.2584 -0.2584 0.0114 298.338 712.5495)" style="overflow:visible;"/>
	
		<use xlink:href="#_x12_1675529702016_516821888_58_x00_"  width="83.64" height="52.36" x="-41.82" y="-26.18" transform="matrix(-0.1695 -0.1603 -0.1603 0.1695 154.9319 784.9782)" style="overflow:visible;"/>
	
		<use xlink:href="#_x12_1675529702016_1756931712_61_x00_"  width="83.64" height="52.36" x="-41.82" y="-26.18" transform="matrix(-0.2498 -0.0489 -0.0489 0.2498 71.8398 961.4836)" style="overflow:visible;"/>
	
		<use xlink:href="#_x12_1675529702016_9383296_100_x00_"  width="83.64" height="52.36" x="-41.82" y="-26.18" transform="matrix(-0.1029 -0.2374 -0.2374 0.1029 496.7305 839.1768)" style="overflow:visible;"/>
	
		<use xlink:href="#_x12_1675529702016_429864832_82_x00_"  width="83.64" height="52.36" x="-41.82" y="-26.18" transform="matrix(0.0858 -0.2441 -0.2441 -0.0858 291.9731 855.3049)" style="overflow:visible;"/>
	
		<use xlink:href="#_x12_1675529702016_9383296_100_x00_"  width="83.64" height="52.36" x="-41.82" y="-26.18" transform="matrix(0.1145 0.232 0.232 -0.1145 17.9308 914.5206)" style="overflow:visible;"/>
	
		<use xlink:href="#_x12_1675529702016_9383296_100_x00_"  width="83.64" height="52.36" x="-41.82" y="-26.18" transform="matrix(-0.1446 0.1607 0.1607 0.1446 448.4211 639.4858)" style="overflow:visible;"/>
	
		<use xlink:href="#_x12_1675529702016_9383296_100_x00_"  width="83.64" height="52.36" x="-41.82" y="-26.18" transform="matrix(0.1893 -0.1763 -0.1763 -0.1893 92.116 1061.9852)" style="overflow:visible;"/>
	
		<use xlink:href="#_x12_1675529702016_1557463936_71_x00_"  width="83.64" height="52.36" x="-41.82" y="-26.18" transform="matrix(-0.0952 0.2405 0.2405 0.0952 208.2222 1004.2726)" style="overflow:visible;"/>
	
		<use xlink:href="#_x12_1675529702016_1302681472_54_x00_"  width="83.64" height="52.36" x="-41.82" y="-26.18" transform="matrix(-0.0943 -0.2409 -0.2409 0.0943 27.0929 678.8641)" style="overflow:visible;"/>
	
		<use xlink:href="#_x12_1675529702016_1137580928_93_x00_"  width="83.64" height="52.36" x="-41.82" y="-26.18" transform="matrix(-0.1206 0.2289 0.2289 0.1206 358.2378 907.1505)" style="overflow:visible;"/>
	
		<use xlink:href="#_x12_1675529702016_7105664_99_x00_"  width="83.64" height="52.36" x="-41.82" y="-26.18" transform="matrix(-0.1913 0.1742 0.1742 0.1913 568.5778 734.4544)" style="overflow:visible;"/>
	
		<use xlink:href="#_x12_1675529702016_685687424_38_x00_"  width="83.64" height="52.36" x="-41.82" y="-26.18" transform="matrix(-0.2293 -0.1198 -0.1198 0.2293 151.9177 1064.74)" style="overflow:visible;"/>
	
		<use xlink:href="#_x12_1675529702016_9383296_100_x00_"  width="83.64" height="52.36" x="-41.82" y="-26.18" transform="matrix(0.0378 0.2559 0.2559 -0.0378 223.1734 785.3613)" style="overflow:visible;"/>
	
		<use xlink:href="#_x12_1675529702016_2001042048_83_x00_"  width="83.64" height="52.36" x="-41.82" y="-26.18" transform="matrix(-0.1197 -0.2294 -0.2294 0.1197 75.6112 638.6587)" style="overflow:visible;"/>
	
		<use xlink:href="#_x12_1675529702016_216800128_93_x00_"  width="83.64" height="52.36" x="-41.82" y="-26.18" transform="matrix(-0.0572 -0.2523 -0.2523 0.0572 96.2203 722.598)" style="overflow:visible;"/>
	
		<use xlink:href="#_x12_1675529702016_9383296_100_x00_"  width="83.64" height="52.36" x="-41.82" y="-26.18" transform="matrix(0.2367 0.1044 0.1044 -0.2367 258.8679 962.0858)" style="overflow:visible;"/>
	
		<use xlink:href="#_x12_1675529702016_1100123264_80_x00_"  width="83.64" height="52.36" x="-41.82" y="-26.18" transform="matrix(0.2352 -0.1078 -0.1078 -0.2352 443.3214 846.9995)" style="overflow:visible;"/>
	
		<use xlink:href="#_x12_1675529702016_1050176640_88_x00_"  width="83.64" height="52.36" x="-41.82" y="-26.18" transform="matrix(0.2092 -0.1521 -0.1521 -0.2092 76.1542 823.7828)" style="overflow:visible;"/>
	
		<use xlink:href="#_x12_1675529702016_727283328_79_x00_"  width="83.64" height="52.36" x="-41.82" y="-26.18" transform="matrix(-0.1275 0.2251 0.2251 0.1275 233.7627 693.2301)" style="overflow:visible;"/>
	
		<use xlink:href="#_x12_1675529702016_1251214720_93_x00_"  width="83.64" height="52.36" x="-41.82" y="-26.18" transform="matrix(-0.1463 0.2531 0.2531 0.1463 604.3882 795.4718)" style="overflow:visible;"/>
	
		<use xlink:href="#_x12_1675529702016_1021473664_60_x00_"  width="83.64" height="52.36" x="-41.82" y="-26.18" transform="matrix(-0.2569 0.0305 0.0305 0.2569 847.8724 886.8149)" style="overflow:visible;"/>
	
		<use xlink:href="#_x12_1675529702016_-1127593600_78_x00_"  width="83.64" height="52.36" x="-41.82" y="-26.18" transform="matrix(0.2255 -0.1268 -0.1268 -0.2255 811.7935 723.7054)" style="overflow:visible;"/>
	
		<use xlink:href="#_x12_1675529702016_9383296_100_x00_"  width="83.64" height="52.36" x="-41.82" y="-26.18" transform="matrix(-0.2087 -0.0565 -0.0565 0.2087 801.3113 856.0535)" style="overflow:visible;"/>
	
		<use xlink:href="#_x12_1675529702016_1100123264_80_x00_"  width="83.64" height="52.36" x="-41.82" y="-26.18" transform="matrix(0.2023 0.1612 0.1612 -0.2023 680.5331 712.0668)" style="overflow:visible;"/>
	
		<use xlink:href="#_x12_1675529702016_727283328_79_x00_"  width="83.64" height="52.36" x="-41.82" y="-26.18" transform="matrix(-0.2584 -0.0122 -0.0122 0.2584 781.6265 767.6955)" style="overflow:visible;"/>
	
		<use xlink:href="#_x12_1675529702016_1251214720_93_x00_"  width="83.64" height="52.36" x="-41.82" y="-26.18" transform="matrix(-0.2919 -0.0163 -0.0163 0.2919 774.9039 875.2317)" style="overflow:visible;"/>
	
		<use xlink:href="#_x12_1675529702016_1382576512_81_x00_"  width="83.64" height="52.36" x="-41.82" y="-26.18" transform="matrix(-0.1733 0.0443 0.0443 0.1733 596.6771 681.9781)" style="overflow:visible;"/>
	
		<use xlink:href="#_x12_1675529702016_9383296_100_x00_"  width="83.64" height="52.36" x="-41.82" y="-26.18" transform="matrix(-0.2454 -0.0819 -0.0819 0.2454 499.8506 1049.6249)" style="overflow:visible;"/>
	
		<use xlink:href="#_x12_1675529702016_9383296_100_x00_"  width="83.64" height="52.36" x="-41.82" y="-26.18" transform="matrix(-0.025 0.3241 0.3241 0.025 611.4802 1070.5187)" style="overflow:visible;"/>
	
		<use xlink:href="#_x12_1675529702016_201428352_85_x00_"  width="83.64" height="52.36" x="-41.82" y="-26.18" transform="matrix(0.0459 -0.2775 -0.2775 -0.0459 626.7393 917.1633)" style="overflow:visible;"/>
	
		<use xlink:href="#_x12_1675529702016_-1900717184_53_x00_"  width="83.64" height="52.36" x="-41.82" y="-26.18" transform="matrix(0.0608 -0.2514 -0.2514 -0.0608 543.9327 933.7432)" style="overflow:visible;"/>
	
		<use xlink:href="#_x12_1675529702016_1021473664_60_x00_"  width="83.64" height="52.36" x="-41.82" y="-26.18" transform="matrix(-0.2355 -0.1072 -0.1072 0.2355 778.0392 1047.2152)" style="overflow:visible;"/>
	
		<use xlink:href="#_x12_1675529702016_9383296_100_x00_"  width="83.64" height="52.36" x="-41.82" y="-26.18" transform="matrix(-0.0542 -0.253 -0.253 0.0542 660.968 1012.0643)" style="overflow:visible;"/>
	
		<use xlink:href="#_x12_1675529702016_9383296_100_x00_"  width="83.64" height="52.36" x="-41.82" y="-26.18" transform="matrix(0.2446 -0.0843 -0.0843 -0.2446 551.3661 1029.5522)" style="overflow:visible;"/>
	
		<use xlink:href="#_x12_1675529702016_9383296_100_x00_"  width="83.64" height="52.36" x="-41.82" y="-26.18" transform="matrix(-0.1491 -0.1566 -0.1566 0.1491 754.1846 996.7657)" style="overflow:visible;"/>
	
		<use xlink:href="#_x12_1675529702016_1137580928_93_x00_"  width="83.64" height="52.36" x="-41.82" y="-26.18" transform="matrix(-0.2189 -0.1379 -0.1379 0.2189 683.8287 898.1707)" style="overflow:visible;"/>
	
		<use xlink:href="#_x12_1675529702016_7105664_99_x00_"  width="83.64" height="52.36" x="-41.82" y="-26.18" transform="matrix(-0.1589 -0.2041 -0.2041 0.1589 567.9243 852.6268)" style="overflow:visible;"/>
	
		<use xlink:href="#_x12_1675529702016_727283328_79_x00_"  width="83.64" height="52.36" x="-41.82" y="-26.18" transform="matrix(-0.2146 -0.1445 -0.1445 0.2146 783.1814 911.0113)" style="overflow:visible;"/>
	
		<use xlink:href="#_x12_1675529702016_1251214720_93_x00_"  width="83.64" height="52.36" x="-41.82" y="-26.18" transform="matrix(-0.2411 -0.1654 -0.1654 0.2411 721.6599 999.4666)" style="overflow:visible;"/>
	
		<use xlink:href="#_x12_1675529702016_57688448_75_x00_"  width="83.64" height="52.36" x="-41.82" y="-26.18" transform="matrix(1.977771e-03 -0.2587 -0.2587 -1.977771e-03 142.8445 957.2922)" style="overflow:visible;"/>
</g>
<g>
	
		<use xlink:href="#_x12_1675529702016_9383296_100_x00_"  width="83.64" height="52.36" x="-41.82" y="-26.18" transform="matrix(-0.2119 -0.1484 -0.1484 0.2119 623.3072 90.1707)" style="overflow:visible;"/>
	
		<use xlink:href="#_x12_1675529702016_-2060026496_54_x00_"  width="83.64" height="52.36" x="-41.82" y="-26.18" transform="matrix(-0.0639 -0.3476 -0.3476 0.0639 207.91 323.9352)" style="overflow:visible;"/>
	
		<use xlink:href="#_x12_1675529702016_581652608_73_x00_"  width="83.64" height="52.36" x="-41.82" y="-26.18" transform="matrix(-0.2216 0.1502 0.1502 0.2216 109.8022 352.7985)" style="overflow:visible;"/>
	
		<use xlink:href="#_x12_1675529702016_310593920_98_x00_"  width="83.64" height="52.36" x="-41.82" y="-26.18" transform="matrix(0.029 0.2571 0.2571 -0.029 285.4995 521.764)" style="overflow:visible;"/>
	
		<use xlink:href="#_x12_1675529702016_1382576512_81_x00_"  width="83.64" height="52.36" x="-41.82" y="-26.18" transform="matrix(0.0575 0.1694 0.1694 -0.0575 338.5517 440.374)" style="overflow:visible;"/>
	
		<use xlink:href="#_x12_1675529702016_9383296_100_x00_"  width="83.64" height="52.36" x="-41.82" y="-26.18" transform="matrix(-0.0627 0.251 0.251 0.0627 375.4788 489.0441)" style="overflow:visible;"/>
	
		<use xlink:href="#_x12_1675529702016_9383296_100_x00_"  width="83.64" height="52.36" x="-41.82" y="-26.18" transform="matrix(0.3251 0 0 -0.3251 438.7396 402.1101)" style="overflow:visible;"/>
	
		<use xlink:href="#_x12_1675529702016_201428352_85_x00_"  width="83.64" height="52.36" x="-41.82" y="-26.18" transform="matrix(-0.2802 -0.0244 -0.0244 0.2802 723.5085 101.7475)" style="overflow:visible;"/>
	
		<use xlink:href="#_x12_1675529702016_-1900717184_53_x00_"  width="83.64" height="52.36" x="-41.82" y="-26.18" transform="matrix(-0.2554 -0.0413 -0.0413 0.2554 439.4772 482.3197)" style="overflow:visible;"/>
	
		<use xlink:href="#_x12_1675529702016_474881664_58_x00_"  width="83.64" height="52.36" x="-41.82" y="-26.18" transform="matrix(-0.1326 -0.2221 -0.2221 0.1326 116.7909 253.3946)" style="overflow:visible;"/>
	
		<use xlink:href="#_x12_1675529702016_1310026880_86_x00_"  width="83.64" height="52.36" x="-41.82" y="-26.18" transform="matrix(-0.2454 0.0818 0.0818 0.2454 29.9253 474.6348)" style="overflow:visible;"/>
	
		<use xlink:href="#_x12_1675529702016_1021473664_60_x00_"  width="83.64" height="52.36" x="-41.82" y="-26.18" transform="matrix(-0.0887 0.243 0.243 0.0887 855.1296 76.3689)" style="overflow:visible;"/>
	
		<use xlink:href="#_x12_1675529702016_9383296_100_x00_"  width="83.64" height="52.36" x="-41.82" y="-26.18" transform="matrix(-0.248 0.0735 0.0735 0.248 692.7319 264.6584)" style="overflow:visible;"/>
	
		<use xlink:href="#_x12_1675529702016_-1127593600_78_x00_"  width="83.64" height="52.36" x="-41.82" y="-26.18" transform="matrix(-0.0114 -0.2584 -0.2584 0.0114 298.338 159.5495)" style="overflow:visible;"/>
	
		<use xlink:href="#_x12_1675529702016_516821888_58_x00_"  width="83.64" height="52.36" x="-41.82" y="-26.18" transform="matrix(-0.1695 -0.1603 -0.1603 0.1695 154.9319 231.9782)" style="overflow:visible;"/>
	
		<use xlink:href="#_x12_1675529702016_1756931712_61_x00_"  width="83.64" height="52.36" x="-41.82" y="-26.18" transform="matrix(-0.2498 -0.0489 -0.0489 0.2498 71.8398 408.4836)" style="overflow:visible;"/>
	
		<use xlink:href="#_x12_1675529702016_9383296_100_x00_"  width="83.64" height="52.36" x="-41.82" y="-26.18" transform="matrix(-0.1029 -0.2374 -0.2374 0.1029 496.7305 286.1768)" style="overflow:visible;"/>
	
		<use xlink:href="#_x12_1675529702016_429864832_82_x00_"  width="83.64" height="52.36" x="-41.82" y="-26.18" transform="matrix(0.0858 -0.2441 -0.2441 -0.0858 291.9731 302.3049)" style="overflow:visible;"/>
	
		<use xlink:href="#_x12_1675529702016_9383296_100_x00_"  width="83.64" height="52.36" x="-41.82" y="-26.18" transform="matrix(0.1145 0.232 0.232 -0.1145 17.9308 361.5206)" style="overflow:visible;"/>
	
		<use xlink:href="#_x12_1675529702016_9383296_100_x00_"  width="83.64" height="52.36" x="-41.82" y="-26.18" transform="matrix(-0.1446 0.1607 0.1607 0.1446 448.4211 86.4858)" style="overflow:visible;"/>
	
		<use xlink:href="#_x12_1675529702016_9383296_100_x00_"  width="83.64" height="52.36" x="-41.82" y="-26.18" transform="matrix(0.1893 -0.1763 -0.1763 -0.1893 92.116 508.9852)" style="overflow:visible;"/>
	
		<use xlink:href="#_x12_1675529702016_1557463936_71_x00_"  width="83.64" height="52.36" x="-41.82" y="-26.18" transform="matrix(-0.0952 0.2405 0.2405 0.0952 208.2222 451.2726)" style="overflow:visible;"/>
	
		<use xlink:href="#_x12_1675529702016_1302681472_54_x00_"  width="83.64" height="52.36" x="-41.82" y="-26.18" transform="matrix(-0.0943 -0.2409 -0.2409 0.0943 27.0929 125.8642)" style="overflow:visible;"/>
	
		<use xlink:href="#_x12_1675529702016_1137580928_93_x00_"  width="83.64" height="52.36" x="-41.82" y="-26.18" transform="matrix(-0.1206 0.2289 0.2289 0.1206 358.2378 354.1504)" style="overflow:visible;"/>
	
		<use xlink:href="#_x12_1675529702016_7105664_99_x00_"  width="83.64" height="52.36" x="-41.82" y="-26.18" transform="matrix(-0.1913 0.1742 0.1742 0.1913 568.5778 181.4544)" style="overflow:visible;"/>
	
		<use xlink:href="#_x12_1675529702016_685687424_38_x00_"  width="83.64" height="52.36" x="-41.82" y="-26.18" transform="matrix(-0.2293 -0.1198 -0.1198 0.2293 151.9177 511.74)" style="overflow:visible;"/>
	
		<use xlink:href="#_x12_1675529702016_9383296_100_x00_"  width="83.64" height="52.36" x="-41.82" y="-26.18" transform="matrix(0.0378 0.2559 0.2559 -0.0378 223.1734 232.3613)" style="overflow:visible;"/>
	
		<use xlink:href="#_x12_1675529702016_2001042048_83_x00_"  width="83.64" height="52.36" x="-41.82" y="-26.18" transform="matrix(-0.1197 -0.2294 -0.2294 0.1197 75.6112 85.6587)" style="overflow:visible;"/>
	
		<use xlink:href="#_x12_1675529702016_216800128_93_x00_"  width="83.64" height="52.36" x="-41.82" y="-26.18" transform="matrix(-0.0572 -0.2523 -0.2523 0.0572 96.2203 169.598)" style="overflow:visible;"/>
	
		<use xlink:href="#_x12_1675529702016_9383296_100_x00_"  width="83.64" height="52.36" x="-41.82" y="-26.18" transform="matrix(0.2367 0.1044 0.1044 -0.2367 258.8679 409.0858)" style="overflow:visible;"/>
	
		<use xlink:href="#_x12_1675529702016_1100123264_80_x00_"  width="83.64" height="52.36" x="-41.82" y="-26.18" transform="matrix(0.2352 -0.1078 -0.1078 -0.2352 443.3214 293.9995)" style="overflow:visible;"/>
	
		<use xlink:href="#_x12_1675529702016_1050176640_88_x00_"  width="83.64" height="52.36" x="-41.82" y="-26.18" transform="matrix(0.2092 -0.1521 -0.1521 -0.2092 76.1542 270.7827)" style="overflow:visible;"/>
	
		<use xlink:href="#_x12_1675529702016_727283328_79_x00_"  width="83.64" height="52.36" x="-41.82" y="-26.18" transform="matrix(-0.1275 0.2251 0.2251 0.1275 233.7627 140.2301)" style="overflow:visible;"/>
	
		<use xlink:href="#_x12_1675529702016_1251214720_93_x00_"  width="83.64" height="52.36" x="-41.82" y="-26.18" transform="matrix(-0.1463 0.2531 0.2531 0.1463 604.3882 242.4718)" style="overflow:visible;"/>
	
		<use xlink:href="#_x12_1675529702016_1021473664_60_x00_"  width="83.64" height="52.36" x="-41.82" y="-26.18" transform="matrix(-0.2569 0.0305 0.0305 0.2569 847.8724 333.8149)" style="overflow:visible;"/>
	
		<use xlink:href="#_x12_1675529702016_-1127593600_78_x00_"  width="83.64" height="52.36" x="-41.82" y="-26.18" transform="matrix(0.2255 -0.1268 -0.1268 -0.2255 811.7935 170.7054)" style="overflow:visible;"/>
	
		<use xlink:href="#_x12_1675529702016_9383296_100_x00_"  width="83.64" height="52.36" x="-41.82" y="-26.18" transform="matrix(-0.2087 -0.0565 -0.0565 0.2087 801.3113 303.0535)" style="overflow:visible;"/>
	
		<use xlink:href="#_x12_1675529702016_1100123264_80_x00_"  width="83.64" height="52.36" x="-41.82" y="-26.18" transform="matrix(0.2023 0.1612 0.1612 -0.2023 680.5331 159.0668)" style="overflow:visible;"/>
	
		<use xlink:href="#_x12_1675529702016_727283328_79_x00_"  width="83.64" height="52.36" x="-41.82" y="-26.18" transform="matrix(-0.2584 -0.0122 -0.0122 0.2584 781.6265 214.6955)" style="overflow:visible;"/>
	
		<use xlink:href="#_x12_1675529702016_1251214720_93_x00_"  width="83.64" height="52.36" x="-41.82" y="-26.18" transform="matrix(-0.2919 -0.0163 -0.0163 0.2919 774.9039 322.2317)" style="overflow:visible;"/>
	
		<use xlink:href="#_x12_1675529702016_1382576512_81_x00_"  width="83.64" height="52.36" x="-41.82" y="-26.18" transform="matrix(-0.1733 0.0443 0.0443 0.1733 596.6771 128.9781)" style="overflow:visible;"/>
	
		<use xlink:href="#_x12_1675529702016_9383296_100_x00_"  width="83.64" height="52.36" x="-41.82" y="-26.18" transform="matrix(-0.2454 -0.0819 -0.0819 0.2454 499.8506 496.6248)" style="overflow:visible;"/>
	
		<use xlink:href="#_x12_1675529702016_9383296_100_x00_"  width="83.64" height="52.36" x="-41.82" y="-26.18" transform="matrix(-0.025 0.3241 0.3241 0.025 611.4802 517.5187)" style="overflow:visible;"/>
	
		<use xlink:href="#_x12_1675529702016_201428352_85_x00_"  width="83.64" height="52.36" x="-41.82" y="-26.18" transform="matrix(0.0459 -0.2775 -0.2775 -0.0459 626.7393 364.1633)" style="overflow:visible;"/>
	
		<use xlink:href="#_x12_1675529702016_-1900717184_53_x00_"  width="83.64" height="52.36" x="-41.82" y="-26.18" transform="matrix(0.0608 -0.2514 -0.2514 -0.0608 543.9327 380.7432)" style="overflow:visible;"/>
	
		<use xlink:href="#_x12_1675529702016_1021473664_60_x00_"  width="83.64" height="52.36" x="-41.82" y="-26.18" transform="matrix(-0.2355 -0.1072 -0.1072 0.2355 778.0392 494.2152)" style="overflow:visible;"/>
	
		<use xlink:href="#_x12_1675529702016_9383296_100_x00_"  width="83.64" height="52.36" x="-41.82" y="-26.18" transform="matrix(-0.0542 -0.253 -0.253 0.0542 660.968 459.0643)" style="overflow:visible;"/>
	
		<use xlink:href="#_x12_1675529702016_9383296_100_x00_"  width="83.64" height="52.36" x="-41.82" y="-26.18" transform="matrix(0.2446 -0.0843 -0.0843 -0.2446 551.3661 476.5523)" style="overflow:visible;"/>
	
		<use xlink:href="#_x12_1675529702016_9383296_100_x00_"  width="83.64" height="52.36" x="-41.82" y="-26.18" transform="matrix(-0.1491 -0.1566 -0.1566 0.1491 754.1846 443.7657)" style="overflow:visible;"/>
	
		<use xlink:href="#_x12_1675529702016_1137580928_93_x00_"  width="83.64" height="52.36" x="-41.82" y="-26.18" transform="matrix(-0.2189 -0.1379 -0.1379 0.2189 683.8287 345.1707)" style="overflow:visible;"/>
	
		<use xlink:href="#_x12_1675529702016_7105664_99_x00_"  width="83.64" height="52.36" x="-41.82" y="-26.18" transform="matrix(-0.1589 -0.2041 -0.2041 0.1589 567.9243 299.6268)" style="overflow:visible;"/>
	
		<use xlink:href="#_x12_1675529702016_727283328_79_x00_"  width="83.64" height="52.36" x="-41.82" y="-26.18" transform="matrix(-0.2146 -0.1445 -0.1445 0.2146 783.1814 358.0113)" style="overflow:visible;"/>
	
		<use xlink:href="#_x12_1675529702016_1251214720_93_x00_"  width="83.64" height="52.36" x="-41.82" y="-26.18" transform="matrix(-0.2411 -0.1654 -0.1654 0.2411 721.6599 446.4666)" style="overflow:visible;"/>
	
		<use xlink:href="#_x12_1675529702016_57688448_75_x00_"  width="83.64" height="52.36" x="-41.82" y="-26.18" transform="matrix(1.977771e-03 -0.2587 -0.2587 -1.977771e-03 142.8445 404.2922)" style="overflow:visible;"/>
</g>
<g>
	
		<use xlink:href="#_x12_1675529702016_9383296_100_x00_"  width="83.64" height="52.36" x="-41.82" y="-26.18" transform="matrix(-0.2119 -0.1484 -0.1484 0.2119 1572.3073 90.1707)" style="overflow:visible;"/>
	
		<use xlink:href="#_x12_1675529702016_-2060026496_54_x00_"  width="83.64" height="52.36" x="-41.82" y="-26.18" transform="matrix(-0.0639 -0.3476 -0.3476 0.0639 1156.9099 323.9352)" style="overflow:visible;"/>
	
		<use xlink:href="#_x12_1675529702016_581652608_73_x00_"  width="83.64" height="52.36" x="-41.82" y="-26.18" transform="matrix(-0.2216 0.1502 0.1502 0.2216 1058.8021 352.7985)" style="overflow:visible;"/>
	
		<use xlink:href="#_x12_1675529702016_310593920_98_x00_"  width="83.64" height="52.36" x="-41.82" y="-26.18" transform="matrix(0.029 0.2571 0.2571 -0.029 1234.4995 521.764)" style="overflow:visible;"/>
	
		<use xlink:href="#_x12_1675529702016_1382576512_81_x00_"  width="83.64" height="52.36" x="-41.82" y="-26.18" transform="matrix(0.0575 0.1694 0.1694 -0.0575 1287.5518 440.374)" style="overflow:visible;"/>
	
		<use xlink:href="#_x12_1675529702016_9383296_100_x00_"  width="83.64" height="52.36" x="-41.82" y="-26.18" transform="matrix(-0.0627 0.251 0.251 0.0627 1324.4788 489.0441)" style="overflow:visible;"/>
	
		<use xlink:href="#_x12_1675529702016_9383296_100_x00_"  width="83.64" height="52.36" x="-41.82" y="-26.18" transform="matrix(0.3251 0 0 -0.3251 1387.7396 402.1101)" style="overflow:visible;"/>
	
		<use xlink:href="#_x12_1675529702016_201428352_85_x00_"  width="83.64" height="52.36" x="-41.82" y="-26.18" transform="matrix(-0.2802 -0.0244 -0.0244 0.2802 1672.5085 101.7475)" style="overflow:visible;"/>
	
		<use xlink:href="#_x12_1675529702016_-1900717184_53_x00_"  width="83.64" height="52.36" x="-41.82" y="-26.18" transform="matrix(-0.2554 -0.0413 -0.0413 0.2554 1388.4772 482.3197)" style="overflow:visible;"/>
	
		<use xlink:href="#_x12_1675529702016_474881664_58_x00_"  width="83.64" height="52.36" x="-41.82" y="-26.18" transform="matrix(-0.1326 -0.2221 -0.2221 0.1326 1065.7909 253.3946)" style="overflow:visible;"/>
	
		<use xlink:href="#_x12_1675529702016_1310026880_86_x00_"  width="83.64" height="52.36" x="-41.82" y="-26.18" transform="matrix(-0.2454 0.0818 0.0818 0.2454 978.9253 474.6348)" style="overflow:visible;"/>
	
		<use xlink:href="#_x12_1675529702016_1021473664_60_x00_"  width="83.64" height="52.36" x="-41.82" y="-26.18" transform="matrix(-0.0887 0.243 0.243 0.0887 1804.1296 76.3689)" style="overflow:visible;"/>
	
		<use xlink:href="#_x12_1675529702016_9383296_100_x00_"  width="83.64" height="52.36" x="-41.82" y="-26.18" transform="matrix(-0.248 0.0735 0.0735 0.248 1641.7319 264.6584)" style="overflow:visible;"/>
	
		<use xlink:href="#_x12_1675529702016_-1127593600_78_x00_"  width="83.64" height="52.36" x="-41.82" y="-26.18" transform="matrix(-0.0114 -0.2584 -0.2584 0.0114 1247.338 159.5495)" style="overflow:visible;"/>
	
		<use xlink:href="#_x12_1675529702016_516821888_58_x00_"  width="83.64" height="52.36" x="-41.82" y="-26.18" transform="matrix(-0.1695 -0.1603 -0.1603 0.1695 1103.9319 231.9782)" style="overflow:visible;"/>
	
		<use xlink:href="#_x12_1675529702016_1756931712_61_x00_"  width="83.64" height="52.36" x="-41.82" y="-26.18" transform="matrix(-0.2498 -0.0489 -0.0489 0.2498 1020.8398 408.4836)" style="overflow:visible;"/>
	
		<use xlink:href="#_x12_1675529702016_9383296_100_x00_"  width="83.64" height="52.36" x="-41.82" y="-26.18" transform="matrix(-0.1029 -0.2374 -0.2374 0.1029 1445.7305 286.1768)" style="overflow:visible;"/>
	
		<use xlink:href="#_x12_1675529702016_429864832_82_x00_"  width="83.64" height="52.36" x="-41.82" y="-26.18" transform="matrix(0.0858 -0.2441 -0.2441 -0.0858 1240.973 302.3049)" style="overflow:visible;"/>
	
		<use xlink:href="#_x12_1675529702016_9383296_100_x00_"  width="83.64" height="52.36" x="-41.82" y="-26.18" transform="matrix(0.1145 0.232 0.232 -0.1145 966.9308 361.5206)" style="overflow:visible;"/>
	
		<use xlink:href="#_x12_1675529702016_9383296_100_x00_"  width="83.64" height="52.36" x="-41.82" y="-26.18" transform="matrix(-0.1446 0.1607 0.1607 0.1446 1397.4211 86.4858)" style="overflow:visible;"/>
	
		<use xlink:href="#_x12_1675529702016_9383296_100_x00_"  width="83.64" height="52.36" x="-41.82" y="-26.18" transform="matrix(0.1893 -0.1763 -0.1763 -0.1893 1041.1161 508.9852)" style="overflow:visible;"/>
	
		<use xlink:href="#_x12_1675529702016_1557463936_71_x00_"  width="83.64" height="52.36" x="-41.82" y="-26.18" transform="matrix(-0.0952 0.2405 0.2405 0.0952 1157.2223 451.2726)" style="overflow:visible;"/>
	
		<use xlink:href="#_x12_1675529702016_1302681472_54_x00_"  width="83.64" height="52.36" x="-41.82" y="-26.18" transform="matrix(-0.0943 -0.2409 -0.2409 0.0943 976.0929 125.8642)" style="overflow:visible;"/>
	
		<use xlink:href="#_x12_1675529702016_1137580928_93_x00_"  width="83.64" height="52.36" x="-41.82" y="-26.18" transform="matrix(-0.1206 0.2289 0.2289 0.1206 1307.2378 354.1504)" style="overflow:visible;"/>
	
		<use xlink:href="#_x12_1675529702016_7105664_99_x00_"  width="83.64" height="52.36" x="-41.82" y="-26.18" transform="matrix(-0.1913 0.1742 0.1742 0.1913 1517.5778 181.4544)" style="overflow:visible;"/>
	
		<use xlink:href="#_x12_1675529702016_685687424_38_x00_"  width="83.64" height="52.36" x="-41.82" y="-26.18" transform="matrix(-0.2293 -0.1198 -0.1198 0.2293 1100.9176 511.74)" style="overflow:visible;"/>
	
		<use xlink:href="#_x12_1675529702016_9383296_100_x00_"  width="83.64" height="52.36" x="-41.82" y="-26.18" transform="matrix(0.0378 0.2559 0.2559 -0.0378 1172.1735 232.3613)" style="overflow:visible;"/>
	
		<use xlink:href="#_x12_1675529702016_2001042048_83_x00_"  width="83.64" height="52.36" x="-41.82" y="-26.18" transform="matrix(-0.1197 -0.2294 -0.2294 0.1197 1024.6112 85.6587)" style="overflow:visible;"/>
	
		<use xlink:href="#_x12_1675529702016_216800128_93_x00_"  width="83.64" height="52.36" x="-41.82" y="-26.18" transform="matrix(-0.0572 -0.2523 -0.2523 0.0572 1045.2203 169.598)" style="overflow:visible;"/>
	
		<use xlink:href="#_x12_1675529702016_9383296_100_x00_"  width="83.64" height="52.36" x="-41.82" y="-26.18" transform="matrix(0.2367 0.1044 0.1044 -0.2367 1207.8679 409.0858)" style="overflow:visible;"/>
	
		<use xlink:href="#_x12_1675529702016_1100123264_80_x00_"  width="83.64" height="52.36" x="-41.82" y="-26.18" transform="matrix(0.2352 -0.1078 -0.1078 -0.2352 1392.3214 293.9995)" style="overflow:visible;"/>
	
		<use xlink:href="#_x12_1675529702016_1050176640_88_x00_"  width="83.64" height="52.36" x="-41.82" y="-26.18" transform="matrix(0.2092 -0.1521 -0.1521 -0.2092 1025.1542 270.7827)" style="overflow:visible;"/>
	
		<use xlink:href="#_x12_1675529702016_727283328_79_x00_"  width="83.64" height="52.36" x="-41.82" y="-26.18" transform="matrix(-0.1275 0.2251 0.2251 0.1275 1182.7627 140.2301)" style="overflow:visible;"/>
	
		<use xlink:href="#_x12_1675529702016_1251214720_93_x00_"  width="83.64" height="52.36" x="-41.82" y="-26.18" transform="matrix(-0.1463 0.2531 0.2531 0.1463 1553.3883 242.4718)" style="overflow:visible;"/>
	
		<use xlink:href="#_x12_1675529702016_1021473664_60_x00_"  width="83.64" height="52.36" x="-41.82" y="-26.18" transform="matrix(-0.2569 0.0305 0.0305 0.2569 1796.8723 333.8149)" style="overflow:visible;"/>
	
		<use xlink:href="#_x12_1675529702016_-1127593600_78_x00_"  width="83.64" height="52.36" x="-41.82" y="-26.18" transform="matrix(0.2255 -0.1268 -0.1268 -0.2255 1760.7935 170.7054)" style="overflow:visible;"/>
	
		<use xlink:href="#_x12_1675529702016_9383296_100_x00_"  width="83.64" height="52.36" x="-41.82" y="-26.18" transform="matrix(-0.2087 -0.0565 -0.0565 0.2087 1750.3113 303.0535)" style="overflow:visible;"/>
	
		<use xlink:href="#_x12_1675529702016_1100123264_80_x00_"  width="83.64" height="52.36" x="-41.82" y="-26.18" transform="matrix(0.2023 0.1612 0.1612 -0.2023 1629.5331 159.0668)" style="overflow:visible;"/>
	
		<use xlink:href="#_x12_1675529702016_727283328_79_x00_"  width="83.64" height="52.36" x="-41.82" y="-26.18" transform="matrix(-0.2584 -0.0122 -0.0122 0.2584 1730.6265 214.6955)" style="overflow:visible;"/>
	
		<use xlink:href="#_x12_1675529702016_1251214720_93_x00_"  width="83.64" height="52.36" x="-41.82" y="-26.18" transform="matrix(-0.2919 -0.0163 -0.0163 0.2919 1723.9039 322.2317)" style="overflow:visible;"/>
	
		<use xlink:href="#_x12_1675529702016_1382576512_81_x00_"  width="83.64" height="52.36" x="-41.82" y="-26.18" transform="matrix(-0.1733 0.0443 0.0443 0.1733 1545.677 128.9781)" style="overflow:visible;"/>
	
		<use xlink:href="#_x12_1675529702016_9383296_100_x00_"  width="83.64" height="52.36" x="-41.82" y="-26.18" transform="matrix(-0.2454 -0.0819 -0.0819 0.2454 1448.8506 496.6248)" style="overflow:visible;"/>
	
		<use xlink:href="#_x12_1675529702016_9383296_100_x00_"  width="83.64" height="52.36" x="-41.82" y="-26.18" transform="matrix(-0.025 0.3241 0.3241 0.025 1560.4802 517.5187)" style="overflow:visible;"/>
	
		<use xlink:href="#_x12_1675529702016_201428352_85_x00_"  width="83.64" height="52.36" x="-41.82" y="-26.18" transform="matrix(0.0459 -0.2775 -0.2775 -0.0459 1575.7394 364.1633)" style="overflow:visible;"/>
	
		<use xlink:href="#_x12_1675529702016_-1900717184_53_x00_"  width="83.64" height="52.36" x="-41.82" y="-26.18" transform="matrix(0.0608 -0.2514 -0.2514 -0.0608 1492.9327 380.7432)" style="overflow:visible;"/>
	
		<use xlink:href="#_x12_1675529702016_1021473664_60_x00_"  width="83.64" height="52.36" x="-41.82" y="-26.18" transform="matrix(-0.2355 -0.1072 -0.1072 0.2355 1727.0392 494.2152)" style="overflow:visible;"/>
	
		<use xlink:href="#_x12_1675529702016_9383296_100_x00_"  width="83.64" height="52.36" x="-41.82" y="-26.18" transform="matrix(-0.0542 -0.253 -0.253 0.0542 1609.968 459.0643)" style="overflow:visible;"/>
	
		<use xlink:href="#_x12_1675529702016_9383296_100_x00_"  width="83.64" height="52.36" x="-41.82" y="-26.18" transform="matrix(0.2446 -0.0843 -0.0843 -0.2446 1500.3662 476.5523)" style="overflow:visible;"/>
	
		<use xlink:href="#_x12_1675529702016_9383296_100_x00_"  width="83.64" height="52.36" x="-41.82" y="-26.18" transform="matrix(-0.1491 -0.1566 -0.1566 0.1491 1703.1847 443.7657)" style="overflow:visible;"/>
	
		<use xlink:href="#_x12_1675529702016_1137580928_93_x00_"  width="83.64" height="52.36" x="-41.82" y="-26.18" transform="matrix(-0.2189 -0.1379 -0.1379 0.2189 1632.8287 345.1707)" style="overflow:visible;"/>
	
		<use xlink:href="#_x12_1675529702016_7105664_99_x00_"  width="83.64" height="52.36" x="-41.82" y="-26.18" transform="matrix(-0.1589 -0.2041 -0.2041 0.1589 1516.9243 299.6268)" style="overflow:visible;"/>
	
		<use xlink:href="#_x12_1675529702016_727283328_79_x00_"  width="83.64" height="52.36" x="-41.82" y="-26.18" transform="matrix(-0.2146 -0.1445 -0.1445 0.2146 1732.1814 358.0113)" style="overflow:visible;"/>
	
		<use xlink:href="#_x12_1675529702016_1251214720_93_x00_"  width="83.64" height="52.36" x="-41.82" y="-26.18" transform="matrix(-0.2411 -0.1654 -0.1654 0.2411 1670.6599 446.4666)" style="overflow:visible;"/>
	
		<use xlink:href="#_x12_1675529702016_57688448_75_x00_"  width="83.64" height="52.36" x="-41.82" y="-26.18" transform="matrix(1.977771e-03 -0.2587 -0.2587 -1.977771e-03 1091.8446 404.2922)" style="overflow:visible;"/>
</g>
<g>
	
		<use xlink:href="#_x12_1675529702016_9383296_100_x00_"  width="83.64" height="52.36" x="-41.82" y="-26.18" transform="matrix(-0.2119 -0.1484 -0.1484 0.2119 1572.3073 602.1707)" style="overflow:visible;"/>
	
		<use xlink:href="#_x12_1675529702016_-2060026496_54_x00_"  width="83.64" height="52.36" x="-41.82" y="-26.18" transform="matrix(-0.0639 -0.3476 -0.3476 0.0639 1156.9099 835.9352)" style="overflow:visible;"/>
	
		<use xlink:href="#_x12_1675529702016_581652608_73_x00_"  width="83.64" height="52.36" x="-41.82" y="-26.18" transform="matrix(-0.2216 0.1502 0.1502 0.2216 1058.8021 864.7985)" style="overflow:visible;"/>
	
		<use xlink:href="#_x12_1675529702016_310593920_98_x00_"  width="83.64" height="52.36" x="-41.82" y="-26.18" transform="matrix(0.029 0.2571 0.2571 -0.029 1234.4995 1033.764)" style="overflow:visible;"/>
	
		<use xlink:href="#_x12_1675529702016_1382576512_81_x00_"  width="83.64" height="52.36" x="-41.82" y="-26.18" transform="matrix(0.0575 0.1694 0.1694 -0.0575 1287.5518 952.374)" style="overflow:visible;"/>
	
		<use xlink:href="#_x12_1675529702016_9383296_100_x00_"  width="83.64" height="52.36" x="-41.82" y="-26.18" transform="matrix(-0.0627 0.251 0.251 0.0627 1324.4788 1001.0441)" style="overflow:visible;"/>
	
		<use xlink:href="#_x12_1675529702016_9383296_100_x00_"  width="83.64" height="52.36" x="-41.82" y="-26.18" transform="matrix(0.3251 0 0 -0.3251 1387.7396 914.11)" style="overflow:visible;"/>
	
		<use xlink:href="#_x12_1675529702016_201428352_85_x00_"  width="83.64" height="52.36" x="-41.82" y="-26.18" transform="matrix(-0.2802 -0.0244 -0.0244 0.2802 1672.5085 613.7475)" style="overflow:visible;"/>
	
		<use xlink:href="#_x12_1675529702016_-1900717184_53_x00_"  width="83.64" height="52.36" x="-41.82" y="-26.18" transform="matrix(-0.2554 -0.0413 -0.0413 0.2554 1388.4772 994.3197)" style="overflow:visible;"/>
	
		<use xlink:href="#_x12_1675529702016_474881664_58_x00_"  width="83.64" height="52.36" x="-41.82" y="-26.18" transform="matrix(-0.1326 -0.2221 -0.2221 0.1326 1065.7909 765.3947)" style="overflow:visible;"/>
	
		<use xlink:href="#_x12_1675529702016_1310026880_86_x00_"  width="83.64" height="52.36" x="-41.82" y="-26.18" transform="matrix(-0.2454 0.0818 0.0818 0.2454 978.9253 986.6348)" style="overflow:visible;"/>
	
		<use xlink:href="#_x12_1675529702016_1021473664_60_x00_"  width="83.64" height="52.36" x="-41.82" y="-26.18" transform="matrix(-0.0887 0.243 0.243 0.0887 1804.1296 588.3689)" style="overflow:visible;"/>
	
		<use xlink:href="#_x12_1675529702016_9383296_100_x00_"  width="83.64" height="52.36" x="-41.82" y="-26.18" transform="matrix(-0.248 0.0735 0.0735 0.248 1641.7319 776.6584)" style="overflow:visible;"/>
	
		<use xlink:href="#_x12_1675529702016_-1127593600_78_x00_"  width="83.64" height="52.36" x="-41.82" y="-26.18" transform="matrix(-0.0114 -0.2584 -0.2584 0.0114 1247.338 671.5495)" style="overflow:visible;"/>
	
		<use xlink:href="#_x12_1675529702016_516821888_58_x00_"  width="83.64" height="52.36" x="-41.82" y="-26.18" transform="matrix(-0.1695 -0.1603 -0.1603 0.1695 1103.9319 743.9782)" style="overflow:visible;"/>
	
		<use xlink:href="#_x12_1675529702016_1756931712_61_x00_"  width="83.64" height="52.36" x="-41.82" y="-26.18" transform="matrix(-0.2498 -0.0489 -0.0489 0.2498 1020.8398 920.4836)" style="overflow:visible;"/>
	
		<use xlink:href="#_x12_1675529702016_9383296_100_x00_"  width="83.64" height="52.36" x="-41.82" y="-26.18" transform="matrix(-0.1029 -0.2374 -0.2374 0.1029 1445.7305 798.1768)" style="overflow:visible;"/>
	
		<use xlink:href="#_x12_1675529702016_429864832_82_x00_"  width="83.64" height="52.36" x="-41.82" y="-26.18" transform="matrix(0.0858 -0.2441 -0.2441 -0.0858 1240.973 814.3049)" style="overflow:visible;"/>
	
		<use xlink:href="#_x12_1675529702016_9383296_100_x00_"  width="83.64" height="52.36" x="-41.82" y="-26.18" transform="matrix(0.1145 0.232 0.232 -0.1145 966.9308 873.5206)" style="overflow:visible;"/>
	
		<use xlink:href="#_x12_1675529702016_9383296_100_x00_"  width="83.64" height="52.36" x="-41.82" y="-26.18" transform="matrix(-0.1446 0.1607 0.1607 0.1446 1397.4211 598.4858)" style="overflow:visible;"/>
	
		<use xlink:href="#_x12_1675529702016_9383296_100_x00_"  width="83.64" height="52.36" x="-41.82" y="-26.18" transform="matrix(0.1893 -0.1763 -0.1763 -0.1893 1041.1161 1020.9852)" style="overflow:visible;"/>
	
		<use xlink:href="#_x12_1675529702016_1557463936_71_x00_"  width="83.64" height="52.36" x="-41.82" y="-26.18" transform="matrix(-0.0952 0.2405 0.2405 0.0952 1157.2223 963.2726)" style="overflow:visible;"/>
	
		<use xlink:href="#_x12_1675529702016_1302681472_54_x00_"  width="83.64" height="52.36" x="-41.82" y="-26.18" transform="matrix(-0.0943 -0.2409 -0.2409 0.0943 976.0929 637.8641)" style="overflow:visible;"/>
	
		<use xlink:href="#_x12_1675529702016_1137580928_93_x00_"  width="83.64" height="52.36" x="-41.82" y="-26.18" transform="matrix(-0.1206 0.2289 0.2289 0.1206 1307.2378 866.1505)" style="overflow:visible;"/>
	
		<use xlink:href="#_x12_1675529702016_7105664_99_x00_"  width="83.64" height="52.36" x="-41.82" y="-26.18" transform="matrix(-0.1913 0.1742 0.1742 0.1913 1517.5778 693.4544)" style="overflow:visible;"/>
	
		<use xlink:href="#_x12_1675529702016_685687424_38_x00_"  width="83.64" height="52.36" x="-41.82" y="-26.18" transform="matrix(-0.2293 -0.1198 -0.1198 0.2293 1100.9176 1023.7399)" style="overflow:visible;"/>
	
		<use xlink:href="#_x12_1675529702016_9383296_100_x00_"  width="83.64" height="52.36" x="-41.82" y="-26.18" transform="matrix(0.0378 0.2559 0.2559 -0.0378 1172.1735 744.3613)" style="overflow:visible;"/>
	
		<use xlink:href="#_x12_1675529702016_2001042048_83_x00_"  width="83.64" height="52.36" x="-41.82" y="-26.18" transform="matrix(-0.1197 -0.2294 -0.2294 0.1197 1024.6112 597.6587)" style="overflow:visible;"/>
	
		<use xlink:href="#_x12_1675529702016_216800128_93_x00_"  width="83.64" height="52.36" x="-41.82" y="-26.18" transform="matrix(-0.0572 -0.2523 -0.2523 0.0572 1045.2203 681.598)" style="overflow:visible;"/>
	
		<use xlink:href="#_x12_1675529702016_9383296_100_x00_"  width="83.64" height="52.36" x="-41.82" y="-26.18" transform="matrix(0.2367 0.1044 0.1044 -0.2367 1207.8679 921.0858)" style="overflow:visible;"/>
	
		<use xlink:href="#_x12_1675529702016_1100123264_80_x00_"  width="83.64" height="52.36" x="-41.82" y="-26.18" transform="matrix(0.2352 -0.1078 -0.1078 -0.2352 1392.3214 805.9995)" style="overflow:visible;"/>
	
		<use xlink:href="#_x12_1675529702016_1050176640_88_x00_"  width="83.64" height="52.36" x="-41.82" y="-26.18" transform="matrix(0.2092 -0.1521 -0.1521 -0.2092 1025.1542 782.7828)" style="overflow:visible;"/>
	
		<use xlink:href="#_x12_1675529702016_727283328_79_x00_"  width="83.64" height="52.36" x="-41.82" y="-26.18" transform="matrix(-0.1275 0.2251 0.2251 0.1275 1182.7627 652.2301)" style="overflow:visible;"/>
	
		<use xlink:href="#_x12_1675529702016_1251214720_93_x00_"  width="83.64" height="52.36" x="-41.82" y="-26.18" transform="matrix(-0.1463 0.2531 0.2531 0.1463 1553.3883 754.4718)" style="overflow:visible;"/>
	
		<use xlink:href="#_x12_1675529702016_1021473664_60_x00_"  width="83.64" height="52.36" x="-41.82" y="-26.18" transform="matrix(-0.2569 0.0305 0.0305 0.2569 1796.8723 845.8149)" style="overflow:visible;"/>
	
		<use xlink:href="#_x12_1675529702016_-1127593600_78_x00_"  width="83.64" height="52.36" x="-41.82" y="-26.18" transform="matrix(0.2255 -0.1268 -0.1268 -0.2255 1760.7935 682.7054)" style="overflow:visible;"/>
	
		<use xlink:href="#_x12_1675529702016_9383296_100_x00_"  width="83.64" height="52.36" x="-41.82" y="-26.18" transform="matrix(-0.2087 -0.0565 -0.0565 0.2087 1750.3113 815.0535)" style="overflow:visible;"/>
	
		<use xlink:href="#_x12_1675529702016_1100123264_80_x00_"  width="83.64" height="52.36" x="-41.82" y="-26.18" transform="matrix(0.2023 0.1612 0.1612 -0.2023 1629.5331 671.0668)" style="overflow:visible;"/>
	
		<use xlink:href="#_x12_1675529702016_727283328_79_x00_"  width="83.64" height="52.36" x="-41.82" y="-26.18" transform="matrix(-0.2584 -0.0122 -0.0122 0.2584 1730.6265 726.6955)" style="overflow:visible;"/>
	
		<use xlink:href="#_x12_1675529702016_1251214720_93_x00_"  width="83.64" height="52.36" x="-41.82" y="-26.18" transform="matrix(-0.2919 -0.0163 -0.0163 0.2919 1723.9039 834.2317)" style="overflow:visible;"/>
	
		<use xlink:href="#_x12_1675529702016_1382576512_81_x00_"  width="83.64" height="52.36" x="-41.82" y="-26.18" transform="matrix(-0.1733 0.0443 0.0443 0.1733 1545.677 640.9781)" style="overflow:visible;"/>
	
		<use xlink:href="#_x12_1675529702016_9383296_100_x00_"  width="83.64" height="52.36" x="-41.82" y="-26.18" transform="matrix(-0.2454 -0.0819 -0.0819 0.2454 1448.8506 1008.6249)" style="overflow:visible;"/>
	
		<use xlink:href="#_x12_1675529702016_9383296_100_x00_"  width="83.64" height="52.36" x="-41.82" y="-26.18" transform="matrix(-0.025 0.3241 0.3241 0.025 1560.4802 1029.5187)" style="overflow:visible;"/>
	
		<use xlink:href="#_x12_1675529702016_201428352_85_x00_"  width="83.64" height="52.36" x="-41.82" y="-26.18" transform="matrix(0.0459 -0.2775 -0.2775 -0.0459 1575.7394 876.1633)" style="overflow:visible;"/>
	
		<use xlink:href="#_x12_1675529702016_-1900717184_53_x00_"  width="83.64" height="52.36" x="-41.82" y="-26.18" transform="matrix(0.0608 -0.2514 -0.2514 -0.0608 1492.9327 892.7432)" style="overflow:visible;"/>
	
		<use xlink:href="#_x12_1675529702016_1021473664_60_x00_"  width="83.64" height="52.36" x="-41.82" y="-26.18" transform="matrix(-0.2355 -0.1072 -0.1072 0.2355 1727.0392 1006.2152)" style="overflow:visible;"/>
	
		<use xlink:href="#_x12_1675529702016_9383296_100_x00_"  width="83.64" height="52.36" x="-41.82" y="-26.18" transform="matrix(-0.0542 -0.253 -0.253 0.0542 1609.968 971.0643)" style="overflow:visible;"/>
	
		<use xlink:href="#_x12_1675529702016_9383296_100_x00_"  width="83.64" height="52.36" x="-41.82" y="-26.18" transform="matrix(0.2446 -0.0843 -0.0843 -0.2446 1500.3662 988.5523)" style="overflow:visible;"/>
	
		<use xlink:href="#_x12_1675529702016_9383296_100_x00_"  width="83.64" height="52.36" x="-41.82" y="-26.18" transform="matrix(-0.1491 -0.1566 -0.1566 0.1491 1703.1847 955.7657)" style="overflow:visible;"/>
	
		<use xlink:href="#_x12_1675529702016_1137580928_93_x00_"  width="83.64" height="52.36" x="-41.82" y="-26.18" transform="matrix(-0.2189 -0.1379 -0.1379 0.2189 1632.8287 857.1707)" style="overflow:visible;"/>
	
		<use xlink:href="#_x12_1675529702016_7105664_99_x00_"  width="83.64" height="52.36" x="-41.82" y="-26.18" transform="matrix(-0.1589 -0.2041 -0.2041 0.1589 1516.9243 811.6268)" style="overflow:visible;"/>
	
		<use xlink:href="#_x12_1675529702016_727283328_79_x00_"  width="83.64" height="52.36" x="-41.82" y="-26.18" transform="matrix(-0.2146 -0.1445 -0.1445 0.2146 1732.1814 870.0113)" style="overflow:visible;"/>
	
		<use xlink:href="#_x12_1675529702016_1251214720_93_x00_"  width="83.64" height="52.36" x="-41.82" y="-26.18" transform="matrix(-0.2411 -0.1654 -0.1654 0.2411 1670.6599 958.4666)" style="overflow:visible;"/>
	
		<use xlink:href="#_x12_1675529702016_57688448_75_x00_"  width="83.64" height="52.36" x="-41.82" y="-26.18" transform="matrix(1.977771e-03 -0.2587 -0.2587 -1.977771e-03 1091.8446 916.2922)" style="overflow:visible;"/>
</g>
</svg>
