<?xml version="1.0" encoding="utf-8"?>
<!-- Generator: Adobe Illustrator 23.1.0, SVG Export Plug-In . SVG Version: 6.00 Build 0)  -->
<svg version="1.1" id="圖層_1" xmlns="http://www.w3.org/2000/svg" xmlns:xlink="http://www.w3.org/1999/xlink" x="0px" y="0px"
	 viewBox="0 0 289.7 267" style="enable-background:new 0 0 289.7 267;" xml:space="preserve">
<style type="text/css">
	.st0{fill:#FFBB36;}
</style>
<g>
	<g>
		<path class="st0" d="M197.1,35.7c0.8,30.6-62.2,79.6-42.1,100.3c20.1,20.7,47.7,29.8,72.8,25.4c9.6-1.7,24.6-5,21-20.7
			c-3.3-14.3-17.9-17-28.1-19c-26.4-5.1-53.3-2.4-78.1,6.8c-28.1,10.4-53.2,29.3-72.6,55.1c-2.1,2.9,2.2,6.5,4.3,3.7
			c30-40.1,75.3-63,121.8-62.3c10.9,0.2,21.9,1.4,32.7,4.3c6,1.6,13.9,4.6,15.6,12.9c2,9.8-7.8,11.7-13.8,13.2
			c-22.6,5.5-47.5-0.9-67.2-17.4c-22.8-19.1,37.8-69.7,36.5-101.9C199.8,33.9,197,33.5,197.1,35.7L197.1,35.7z"/>
	</g>
	<g>
		<path class="st0" d="M196.1,34.1c-1.3,33.3-63.9,86.3-41.5,108.5c21.2,21,52.5,31.8,78.2,22.8c5.3-1.8,10.5-4.8,14.2-9.7
			c2.8-3.7,5.9-10.1,4.1-15.5c-2.1-6.2-10.2-10.3-14.9-13c-6.1-3.4-12.6-5.7-19.1-7.1c-28.4-6-57.9,3.8-83.3,16.1
			c-31.1,15.2-59.8,38.6-81.6,68.8c-1.5,2.1,1.6,5.7,3.3,3.6c18.2-23,38.7-42.7,62.4-57.5c22.5-14.1,47.7-25.1,73.7-27.7
			c12.1-1.2,24.7-0.4,36.5,4.4c5.3,2.1,11.5,5,15.9,9.4c8.9,8.8-0.6,18.4-7.2,22c-22.1,12.1-52.8,2.9-73.2-13.4
			c-25.8-20.6,34.1-75.8,35.1-111.4C198.5,32.6,196.1,32.3,196.1,34.1L196.1,34.1z"/>
	</g>
	<g>
		<path class="st0" d="M50.2,189.9c6.9,4.5,13,9.9,19.2,15.7c-0.1-1.4-0.2-2.8-0.3-4.2c-7.2,6.9-14.2,14-21.1,21.2
			c1.4,0.6,2.7,1.3,4.1,1.9c-1.3-12-1.5-24-0.5-35.9c-1.3,0.7-2.5,1.3-3.8,2c3.8,3.5,7.5,7.2,11,11.2c0.6-1.5,1.3-3,1.9-4.6
			c-3.1-0.2-6.2-0.5-9.3-1.1c-2.2-0.4-3.5,3.5-1.4,4.9c4,2.8,7.9,4.2,12.4,4.5c2,0.1,3.4-3.2,1.3-4.7c-3.4-2.5-16.5-15.5-16-3.5
			c0.4,10.8,10.6,12.3,17,9.7c2.3-0.9,0.9-5.2-1.4-4.9c-1.4,0.2-2.8,0.4-4.2,0.6c0.3,1.7,0.6,3.4,0.9,5.1c2.9-1,5.9-1.9,8.9-2.7
			c2.6-0.7,1.8-5-0.8-4.9c-7.3,0.4-12.4,5.9-17.2,11.7c1.2,1.3,2.3,2.6,3.5,3.8c2-3.9,4-7.9,6-11.8c1.6-3-2-5.9-3.9-3.3
			c-2.5,3.5-4.6,7.1-6.4,11.2c1.4,0.7,2.9,1.3,4.3,2c-0.1-2.4,0.1-4.5,0.8-6.7c-1.5-0.2-3-0.4-4.5-0.7c0.7,3.9,0.8,7.3,0.3,11.1
			c-0.4,2.7,3.1,4.2,4.3,2c1.2-2.3,2.4-4.7,3.6-7c-1.3-1.1-2.5-2.2-3.8-3.2c-1.4,3.1-3,6-4.8,8.9c-1.7,2.7,2.1,5.9,3.7,3.2
			c4-6.4,8.8-11.7,14.4-16.2c2.1-1.6-0.4-6.1-2.6-4.6c-3.4,2.3-6.4,5-9.1,8.4c1.2,1.3,2.3,2.5,3.5,3.8c2.7-3.8,7.7-8.2,7.5-13.8
			c-0.1-2.3-1.7-3.8-3.5-3c-2.7,1.2-4.3,3.4-5.2,6.6c-1,3.5,3.7,5.7,4.7,2.2c0.4-1.8,1.3-3,2.8-3.5c-1.2-0.7-2.3-1.5-3.5-2.2
			c0.3,3-5.1,8.5-6.5,10.5c-1.6,2.3,1.7,6,3.5,3.8c2.4-3.1,5-5.6,8.1-7.7c-0.9-1.5-1.7-3.1-2.6-4.6c-5.9,4.7-10.9,10.4-15.1,17.2
			c1.2,1.1,2.5,2.1,3.7,3.2c1.7-2.8,3.3-5.8,4.8-8.8c1.4-2.9-2.2-6.1-3.8-3.2c-1.2,2.3-2.5,4.6-3.7,6.9c1.4,0.7,2.9,1.3,4.3,2
			c0.6-4.3,0.5-8.3-0.3-12.6c-0.5-2.7-3.8-3.2-4.5-0.7c-0.8,2.7-1.1,5.2-1,8.1c0.1,2.4,3.1,4.7,4.3,2c1.8-4.1,3.9-7.8,6.4-11.2
			c-1.3-1.1-2.6-2.2-3.9-3.3c-2,3.9-4,7.9-6,11.8c-1.3,2.5,1.7,6.2,3.5,3.8c4.1-5.3,8.4-10.7,14.9-11.2c-0.3-1.6-0.6-3.3-0.8-4.9
			c-3,0.7-6,1.5-8.9,2.4c-2.6,0.8-1.9,5.6,0.9,5.1c1.4-0.2,2.8-0.4,4.2-0.7c-0.5-1.6-0.9-3.3-1.4-4.9c-2.1,0.9-4.3,1.3-6.5,0.2
			c-0.6-0.3-5.5-4-3.9-5.6c-0.8,0.1-1.5,0.3-2.3,0.4c3.7,1.2,7.9,5.3,11.3,7.7c0.4-1.6,0.9-3.1,1.3-4.7c-3.7-0.2-7-1.3-10.2-3.6
			c-0.5,1.6-0.9,3.3-1.4,4.9c3.1,0.6,6.2,1,9.3,1.3c1.8,0.1,3.6-2.6,1.9-4.6c-3.8-4.3-7.7-8.4-11.8-12.3c-1.5-1.4-3.6-0.1-3.8,2
			c-1,12.4-0.8,24.9,0.5,37.4c0.2,2.3,2.8,3.2,4.1,1.9c7-7.1,14-14.2,20.9-21.6c1.1-1.1,0.9-3.1-0.3-4.2
			c-6.3-5.8-13.3-10.5-20.3-14.9C50,185.4,48.5,188.8,50.2,189.9L50.2,189.9z"/>
	</g>
</g>
</svg>
