<?xml version="1.0" encoding="iso-8859-1"?>
<!-- Generator: Adobe Illustrator 19.0.0, SVG Export Plug-In . SVG Version: 6.00 Build 0)  -->
<svg version="1.1" id="Layer_1" xmlns="http://www.w3.org/2000/svg" xmlns:xlink="http://www.w3.org/1999/xlink" x="0px" y="0px"
	 viewBox="0 0 512 512" style="enable-background:new 0 0 512 512;" xml:space="preserve">
<g>
	<g>
		<path d="M282.746,21.567C268.773,6.86,244.559-1.15,217.969,0.134c-23.025,1.115-67.456,10.416-106.325,60.188
			c-34.129,43.701-35.586,81.161-30.798,104.89c5.011,24.834,19.802,46.787,38.601,57.292c10.896,6.088,22.09,9.083,32.844,9.083
			c15.784-0.001,30.615-6.454,42.127-19.048c12.86-14.066,15.052-28.575,16.986-41.375c1.67-11.049,3.112-20.592,11.333-29.51
			c8.933-9.689,16.173-11.264,26.196-13.443c9.487-2.063,20.241-4.401,32.582-13.832c11.365-8.684,18.938-23.804,20.261-40.446
			C303.304,54.692,296.547,36.094,282.746,21.567z M280.945,72.279c-0.847,10.663-5.49,20.433-12.117,25.497
			c-8.643,6.605-15.914,8.187-24.335,10.017c-11.115,2.417-23.713,5.157-37.12,19.7c-12.561,13.626-14.723,27.931-16.63,40.552
			c-1.705,11.28-3.176,21.022-11.747,30.396c-12.656,13.842-31.108,16.02-49.355,5.822c-10.189-5.695-23.717-20.42-28.311-43.182
			c-3.92-19.431-2.456-50.453,26.783-87.895c33.742-43.206,71.413-51.237,90.867-52.178c1.504-0.072,2.998-0.109,4.48-0.109
			c18.523,0,35.159,5.612,44.137,15.063C277.257,46.13,281.998,59.028,280.945,72.279z"/>
	</g>
</g>
<g>
	<g>
		<path d="M234.514,31.444c-35.745-0.319-71.239,18.606-97.252,51.916c-3.552,4.547-2.744,11.114,1.804,14.666
			c1.91,1.491,4.175,2.214,6.424,2.214c3.106,0,6.182-1.379,8.242-4.019c21.98-28.145,51.364-44.143,80.597-43.881
			c5.736,0.068,10.489-4.585,10.541-10.356C244.921,36.214,240.285,31.496,234.514,31.444z"/>
	</g>
</g>
<g>
	<g>
		<path d="M136.129,107.235c-4.719-3.323-11.236-2.193-14.56,2.523l-0.174,0.247c-3.324,4.719-2.194,11.236,2.523,14.56
			c1.83,1.288,3.93,1.908,6.009,1.908c3.283,0,6.517-1.543,8.551-4.431l0.174-0.247
			C141.976,117.076,140.846,110.558,136.129,107.235z"/>
	</g>
</g>
<g>
	<g>
		<path d="M511.859,332.532c-1.114-23.026-10.416-67.456-60.188-106.326c-43.701-34.128-81.161-35.585-104.89-30.798
			c-24.834,5.011-46.787,19.802-57.292,38.601c-15.026,26.887-11.207,55.615,9.964,74.972c14.066,12.86,28.575,15.052,41.375,16.986
			c11.05,1.67,20.593,3.112,29.51,11.333c9.689,8.932,11.264,16.173,13.443,26.196c2.063,9.487,4.401,20.241,13.832,32.582
			c8.684,11.365,23.804,18.938,40.446,20.261c1.788,0.142,3.569,0.212,5.342,0.212c17.32,0,33.846-6.724,47.025-19.241
			C505.133,383.338,513.146,359.122,511.859,332.532z M476.03,382.159c-10.169,9.661-23.067,14.402-36.317,13.348
			c-10.663-0.847-20.433-5.49-25.497-12.117c-6.605-8.643-8.187-15.914-10.017-24.335c-2.417-11.115-5.157-23.713-19.7-37.12
			c-13.626-12.561-27.931-14.723-40.552-16.63c-11.28-1.705-21.022-3.176-30.396-11.747c-13.842-12.656-16.02-31.108-5.822-49.355
			c5.695-10.19,20.42-23.717,43.182-28.311c4.706-0.95,10.089-1.583,16.081-1.583c18.75,0,43.44,6.209,71.814,28.367
			c43.206,33.742,51.237,71.413,52.178,90.867C491.965,353.835,486.236,372.464,476.03,382.159z"/>
	</g>
</g>
<g>
	<g>
		<path d="M428.631,251.827c-4.547-3.55-11.114-2.744-14.666,1.805c-3.552,4.547-2.744,11.114,1.804,14.666
			c28.146,21.981,44.14,51.357,43.881,80.597c-0.051,5.771,4.585,10.489,10.356,10.541c0.031,0,0.063,0,0.094,0
			c5.727,0,10.395-4.617,10.447-10.356C480.864,313.287,461.941,277.84,428.631,251.827z"/>
	</g>
</g>
<g>
	<g>
		<path d="M402.233,236.131l-0.247-0.174c-4.719-3.323-11.236-2.193-14.56,2.523c-3.324,4.719-2.194,11.236,2.523,14.56l0.247,0.174
			c1.83,1.288,3.93,1.908,6.009,1.908c3.283,0,6.516-1.543,8.551-4.431C408.081,245.973,406.951,239.455,402.233,236.131z"/>
	</g>
</g>
<g>
	<g>
		<path d="M212.547,396.421c-14.066-12.86-28.575-15.052-41.375-16.986c-11.05-1.67-20.593-3.112-29.51-11.333
			c-9.689-8.933-11.264-16.173-13.443-26.196c-2.063-9.487-4.401-20.241-13.832-32.582c-8.684-11.365-23.804-18.938-40.446-20.261
			c-19.247-1.525-37.84,5.23-52.367,19.029C6.867,322.064-1.146,346.28,0.142,372.869c1.115,23.026,10.417,67.456,60.188,106.326
			c32.755,25.579,61.998,32.806,84.587,32.805c7.55,0,14.36-0.808,20.302-2.007c24.833-5.01,46.786-19.801,57.292-38.6
			C237.537,444.505,233.718,415.778,212.547,396.421z M204.269,461.197c-5.695,10.191-20.421,23.718-43.183,28.312
			c-19.433,3.919-50.453,2.456-87.894-26.783c-43.206-33.742-51.237-71.413-52.178-90.867c-0.981-20.292,4.748-38.921,14.954-48.616
			c9.24-8.777,20.729-13.492,32.692-13.492c1.204,0,2.415,0.048,3.626,0.142c10.663,0.847,20.433,5.49,25.497,12.117
			c6.605,8.643,8.187,15.914,10.017,24.335c2.417,11.115,5.157,23.713,19.7,37.12c13.626,12.561,27.931,14.723,40.552,16.63
			c11.28,1.705,21.022,3.176,30.396,11.747C212.29,424.498,214.467,442.949,204.269,461.197z"/>
	</g>
</g>
<g>
	<g>
		<path d="M96.229,437.105c-28.145-21.981-44.14-51.357-43.881-80.597c0.051-5.771-4.585-10.489-10.356-10.541
			c-5.796-0.062-10.49,4.585-10.541,10.356c-0.317,35.792,18.606,71.239,51.916,97.252c1.91,1.491,4.175,2.214,6.424,2.214
			c3.106,0,6.182-1.38,8.242-4.018C101.585,447.224,100.778,440.657,96.229,437.105z"/>
	</g>
</g>
<g>
	<g>
		<path d="M122.05,452.36l-0.247-0.174c-4.718-3.323-11.236-2.193-14.56,2.523c-3.324,4.719-2.194,11.236,2.523,14.56l0.247,0.174
			c1.83,1.288,3.93,1.908,6.009,1.908c3.283,0,6.516-1.543,8.551-4.431C127.897,462.202,126.768,455.684,122.05,452.36z"/>
	</g>
</g>
<g>
</g>
<g>
</g>
<g>
</g>
<g>
</g>
<g>
</g>
<g>
</g>
<g>
</g>
<g>
</g>
<g>
</g>
<g>
</g>
<g>
</g>
<g>
</g>
<g>
</g>
<g>
</g>
<g>
</g>
</svg>
