<?xml version="1.0" encoding="utf-8"?>
<!-- Generator: Adobe Illustrator 23.1.0, SVG Export Plug-In . SVG Version: 6.00 Build 0)  -->
<svg version="1.1" id="圖層_1" xmlns="http://www.w3.org/2000/svg" xmlns:xlink="http://www.w3.org/1999/xlink" x="0px" y="0px"
	 viewBox="0 0 703 648" style="enable-background:new 0 0 703 648;" xml:space="preserve">
<style type="text/css">
	.st8{fill:#DEFFE6;}
	.st9{fill:none;stroke:#00A99D;stroke-width:4.1427;stroke-miterlimit:10;}
	.st10{fill:#FFFFFF;stroke:#FFDBC8;stroke-width:3.2664;stroke-miterlimit:10;}
	.st11{fill:#00D99D;}
	.st12{opacity:0.74;enable-background:new    ;}
	.st13{fill:none;stroke:#F7C93D;stroke-width:1.0357;stroke-miterlimit:10;}
</style>
<circle class="st8" cx="367.94" cy="302.33" r="183.73"/>
<circle class="st9" cx="358.94" cy="285.33" r="183.73"/>
<g>
	<g>
		<g>
			<path id="XMLID_10_" class="st10" d="M144.83,403.11c-9.19-30.23-17.04-47.05-17.82-57.31c-0.78-10.27,5.67-17.09,9.16-27.42
				c3.49-10.33,7.62-28.58,11.23-42.49c3.61-13.91,5.28-13.84,8.63-18.45c3.35-4.61,14.56-23.32,20.17-31.49
				c5.61-8.17,11.56-8.05,11.56-8.05c-10.65,14.85-20.36,34.36-23.54,38.24c-3.18,3.88-5.04,4.31-10.35,22.67
				c-5.31,18.36-10.05,35.24-15.38,46.23c-5.33,10.99-8.06,16.97-3.05,26.7c5.01,9.73,17.09,52.35,19.55,69.86
				c2.45,17.52,4.25,33.71,2.47,47.85l0,0C158.81,446.86,152.48,428.3,144.83,403.11z"/>
			<path id="XMLID_9_" class="st10" d="M199.58,207.69c1.53,0.77,2.96,2.8,3.42,7.02c-1.24,14.88-10.14,30.62-15.12,41.46
				c-4.99,10.84-12.41,25.84-14.43,34.25c-2.02,8.4,1.63,43.71,19.35,66.55c0.62,0.8,1.24,1.51,1.86,2.15
				c2.75,5.22,6.22,12.51,10.6,25.14c11,31.72,6.89,47.82,2.5,68.23c-4.39,20.41,0.61,71.04-4.65,147.27h-70.46
				c0,0,17.42-86.61,23.04-116.17c0.94-4.93,1.51-9.61,1.78-14.14v0c1.78-14.14-0.02-30.33-2.47-47.85
				c-2.45-17.52-14.54-60.14-19.55-69.86c-5.01-9.73-2.27-15.7,3.05-26.7c5.33-10.99,10.07-27.87,15.38-46.23
				c5.31-18.36,7.17-18.78,10.35-22.67c3.18-3.88,12.89-23.39,23.54-38.24c0,0,1.6-3.01,3.28-5.32
				C192.71,210.27,196.83,206.3,199.58,207.69z"/>
		</g>
		<g id="XMLID_6_">
			<path id="XMLID_8_" class="st10" d="M170.67,276.78c7.32,6.64,9.42,22.96,11.84,40.19c0.8,5.67,1.77,10.36,3.23,15.41
				c0.22,1.89,0.49,3.87,0.8,5.94c0.53,3.51,1.19,6.16,2.02,8.49c1.46,4.13,3.44,7.25,6.09,12.3c1.52,2.89,3.26,6.42,5.26,11.13
				c1.07,2.7,2.21,5.57,3.42,8.65c0.62,1.68,1.26,3.45,1.92,5.36c9.24,26.63,7.82,42.26,4.53,58.66c-0.01,0.07-0.03,0.13-0.04,0.2
				c-1.98,9.37-17.58,10.21-26.12-15.55c-5.88-17.74-14.09-23.53-15.65-39.25c-0.91-9.18-0.49-14.57-2.98-30.02
				c-2.49-15.45-12.84-34.75-12.02-62.29C153.79,268.47,167.42,273.83,170.67,276.78z"/>
			<path id="XMLID_7_" class="st10" d="M159.26,300.74c8.73,4.96,17.15-2.54,17.15-2.54s-0.67-10.71-4.57-16.9
				c-3.91-6.19-12.83-4.67-14.41,0.96C155.84,287.88,159.26,300.74,159.26,300.74z"/>
		</g>
	</g>
	<g>
		<g>
			<path id="XMLID_5_" class="st10" d="M568.25,403.11c9.19-30.23,17.04-47.05,17.82-57.31c0.78-10.27-5.67-17.09-9.16-27.42
				c-3.49-10.33-7.62-28.58-11.23-42.49c-3.61-13.91-5.28-13.84-8.63-18.45c-3.35-4.61-14.56-23.32-20.17-31.49
				c-5.61-8.17-11.56-8.05-11.56-8.05c10.65,14.85,20.36,34.36,23.54,38.24c3.18,3.88,5.04,4.31,10.35,22.67
				c5.31,18.36,10.05,35.24,15.38,46.23c5.33,10.99,8.06,16.97,3.05,26.7c-5.01,9.73-17.09,52.35-19.55,69.86
				c-2.45,17.52-4.25,33.71-2.47,47.85l0,0C554.27,446.86,560.59,428.3,568.25,403.11z"/>
			<path id="XMLID_4_" class="st10" d="M513.49,207.69c-1.53,0.77-2.96,2.8-3.42,7.02c1.24,14.88,10.14,30.62,15.12,41.46
				c4.99,10.84,12.41,25.84,14.43,34.25c2.02,8.4-1.63,43.71-19.35,66.55c-0.62,0.8-1.24,1.51-1.86,2.15
				c-2.75,5.22-6.22,12.51-10.6,25.14c-11,31.72-6.89,47.82-2.5,68.23c4.39,20.41-0.61,71.04,4.65,147.27h70.46
				c0,0-17.42-86.61-23.04-116.17c-0.94-4.93-1.51-9.61-1.78-14.14v0c-1.78-14.14,0.02-30.33,2.47-47.85
				c2.45-17.52,14.54-60.14,19.55-69.86c5.01-9.73,2.27-15.7-3.05-26.7c-5.33-10.99-10.07-27.87-15.38-46.23
				c-5.31-18.36-7.17-18.78-10.35-22.67c-3.18-3.88-12.89-23.39-23.54-38.24c0,0-1.6-3.01-3.28-5.32
				C520.37,210.27,516.25,206.3,513.49,207.69z"/>
		</g>
		<g id="XMLID_1_">
			<path id="XMLID_3_" class="st10" d="M542.41,276.78c-7.32,6.64-9.42,22.96-11.84,40.19c-0.8,5.67-1.77,10.36-3.23,15.41
				c-0.22,1.89-0.49,3.87-0.8,5.94c-0.53,3.51-1.19,6.16-2.02,8.49c-1.46,4.13-3.44,7.25-6.09,12.3c-1.52,2.89-3.26,6.42-5.26,11.13
				c-1.07,2.7-2.21,5.57-3.42,8.65c-0.62,1.68-1.26,3.45-1.92,5.36c-9.24,26.63-7.82,42.26-4.53,58.66c0.01,0.07,0.03,0.13,0.04,0.2
				c1.99,9.37,17.58,10.21,26.12-15.55c5.88-17.74,14.09-23.53,15.65-39.25c0.91-9.18,0.49-14.57,2.98-30.02
				c2.49-15.45,12.84-34.75,12.02-62.29C559.28,268.47,545.66,273.83,542.41,276.78z"/>
			<path id="XMLID_2_" class="st10" d="M553.82,300.74c-8.73,4.96-17.15-2.54-17.15-2.54s0.67-10.71,4.57-16.9
				c3.91-6.19,12.83-4.67,14.41,0.96C557.24,287.88,553.82,300.74,553.82,300.74z"/>
		</g>
	</g>
</g>
<g id="Recycle">
	<g>
		<path class="st11" d="M453.95,318.09l-27.61-49.69c-0.85-1.53-2.78-2.08-4.31-1.23l-28.51,15.84c-1.52,0.84-2.09,2.74-1.27,4.27
			l17.94,33.35h-15.13v-6.34c0-1.75-1.42-3.17-3.17-3.17c-0.78,0-1.52,0.28-2.1,0.8l-28.51,25.34c-1.31,1.16-1.44,3.16-0.28,4.47
			c0.09,0.1,0.18,0.19,0.28,0.28l28.51,25.34c1.31,1.16,3.31,1.04,4.47-0.27c0.52-0.58,0.8-1.34,0.8-2.12v-6.34h31.82
			c4.89,0.02,9.51-2.25,12.5-6.12l13.23-17.01C456.51,330.5,457.04,323.64,453.95,318.09z M447.61,331.62l-13.23,17.01
			c-1.79,2.33-4.57,3.69-7.51,3.68h-34.99c-1.75,0-3.17,1.42-3.17,3.17v2.45l-20.58-18.29l20.58-18.29v2.45
			c0,1.75,1.42,3.17,3.17,3.17h38.02c1.75,0,3.17-1.42,3.17-3.17c0-1.75-1.42-3.17-3.17-3.17h-12.52l-18.06-33.58l23.01-12.78
			l26.08,46.93C450.25,324.52,449.94,328.62,447.61,331.62L447.61,331.62z"/>
		<path class="st11" d="M410.21,217.63c-1.11-0.58-2.45-0.45-3.43,0.32l-5,3.9l-19.59-25.09c-2.99-3.86-7.6-6.1-12.48-6.09h-0.03
			l-21.54,0.05c-6.35,0.01-12.07,3.82-14.54,9.67l-22.18,52.36c-0.68,1.61,0.07,3.47,1.68,4.15c0,0,0,0,0,0l30.03,12.73
			c1.6,0.68,3.44-0.05,4.14-1.64l15.24-34.65l9.32,11.9l-4.99,3.9c-1.38,1.08-1.62,3.07-0.55,4.45c0.48,0.61,1.16,1.03,1.93,1.17
			l37.52,6.87c0.9,0.16,1.82-0.07,2.53-0.63c0.71-0.56,1.16-1.39,1.21-2.3l2.42-38.07C411.97,219.36,411.31,218.2,410.21,217.63z
			 M403.38,254.73l-27.08-4.94l1.93-1.51c1.37-1.08,1.62-3.06,0.55-4.44l-23.4-29.89c-1.15-1.32-3.15-1.46-4.47-0.31
			c-1.22,1.07-1.44,2.88-0.51,4.21l7.69,9.82l-15.35,34.88l-24.24-10.26l20.93-49.44c1.48-3.51,4.92-5.79,8.73-5.8l21.54-0.05h0.03
			c2.93-0.01,5.69,1.34,7.48,3.65l21.54,27.56c1.08,1.37,3.06,1.61,4.44,0.54l1.93-1.51L403.38,254.73z"/>
		<path class="st11" d="M350.7,323.79h-38.92l7.99-14.1l5.46,3.17c1.52,0.87,3.45,0.35,4.33-1.16c0.39-0.67,0.51-1.46,0.36-2.22
			l-7.69-37.38c-0.35-1.71-2.03-2.82-3.74-2.47c-0.12,0.03-0.24,0.06-0.36,0.1l-36.2,12.02c-1.66,0.55-2.56,2.34-2.01,4
			c0.24,0.74,0.75,1.36,1.43,1.75l5.48,3.17l-15.91,27.56c-2.46,4.23-2.81,9.36-0.95,13.88l8.05,19.82
			c2.41,5.98,8.22,9.89,14.67,9.87h58c1.75,0,3.17-1.42,3.17-3.17v-31.68C353.87,325.21,352.45,323.79,350.7,323.79z M347.54,355.47
			h-54.83c-3.87,0.01-7.36-2.34-8.8-5.92l-8.06-19.82c-1.11-2.72-0.9-5.79,0.57-8.33l17.49-30.3c0.88-1.51,0.36-3.45-1.16-4.33
			c0,0,0,0,0,0l-2.12-1.22l26.13-8.67l5.55,26.96l-2.12-1.23c-1.52-0.87-3.45-0.35-4.33,1.16c0,0.01-0.01,0.02-0.01,0.02
			l-18.97,32.86c-0.92,1.49-0.47,3.44,1.02,4.36s3.44,0.47,4.36-1.02c0.02-0.03,0.04-0.06,0.06-0.1l5.84-9.77h39.39V355.47z"/>
		<path class="st11" d="M385.55,380.81h-63.36c-1.75,0-3.17-1.42-3.17-3.17c0-1.75,1.42-3.17,3.17-3.17h63.36
			c1.75,0,3.17,1.42,3.17,3.17C388.72,379.4,387.3,380.81,385.55,380.81z"/>
		<path class="st11" d="M404.56,380.81h-6.34c-1.75,0-3.17-1.42-3.17-3.17c0-1.75,1.42-3.17,3.17-3.17h6.34
			c1.75,0,3.17,1.42,3.17,3.17C407.73,379.4,406.31,380.81,404.56,380.81z"/>
		<path class="st11" d="M281.01,251.94c-1.75,0-3.17-1.42-3.16-3.17c0-0.55,0.15-1.1,0.42-1.58l31.68-54.87
			c0.86-1.52,2.8-2.05,4.32-1.19s2.05,2.8,1.19,4.32c-0.01,0.01-0.01,0.02-0.02,0.04l-31.68,54.87
			C283.19,251.34,282.14,251.94,281.01,251.94z"/>
		<path class="st11" d="M271.51,268.41c-1.75,0-3.17-1.42-3.16-3.17c0-0.56,0.15-1.1,0.42-1.58l3.17-5.49
			c0.86-1.52,2.8-2.05,4.32-1.19s2.05,2.8,1.19,4.32c-0.01,0.01-0.01,0.02-0.02,0.04l-3.17,5.49
			C273.69,267.8,272.64,268.41,271.51,268.41z"/>
		<path class="st11" d="M455.25,268.41c-1.13,0-2.18-0.6-2.75-1.58l-31.68-54.86c-0.89-1.51-0.38-3.45,1.13-4.34
			c1.51-0.89,3.45-0.38,4.34,1.13c0.01,0.01,0.01,0.02,0.02,0.04l31.68,54.87c0.87,1.52,0.36,3.45-1.16,4.33
			c-0.48,0.28-1.03,0.42-1.58,0.42L455.25,268.41z"/>
		<path class="st11" d="M417.23,202.56c-1.13,0-2.18-0.6-2.75-1.58l-3.17-5.49c-0.89-1.51-0.38-3.45,1.13-4.34
			c1.51-0.89,3.45-0.38,4.34,1.13c0.01,0.01,0.01,0.02,0.02,0.04l3.17,5.49c0.87,1.52,0.36,3.45-1.16,4.33
			C418.33,202.41,417.79,202.56,417.23,202.56z"/>
	</g>
</g>
<g id="Recycle_1_" class="st12">
	<path class="st13" d="M450.84,316.02l-27.61-49.69c-0.85-1.53-2.78-2.08-4.31-1.23l-28.51,15.84c-1.52,0.84-2.09,2.74-1.27,4.27
		l17.94,33.35h-15.13v-6.34c0-1.75-1.42-3.17-3.17-3.17c-0.78,0-1.52,0.28-2.1,0.8l-28.51,25.34c-1.31,1.16-1.44,3.16-0.28,4.47
		c0.09,0.1,0.18,0.19,0.28,0.28l28.51,25.34c1.31,1.16,3.31,1.04,4.47-0.27c0.52-0.58,0.8-1.34,0.8-2.12v-6.34h31.82
		c4.89,0.02,9.51-2.25,12.5-6.12l13.23-17.01C453.4,328.43,453.93,321.57,450.84,316.02z M444.51,329.54l-13.23,17.01
		c-1.79,2.33-4.57,3.69-7.51,3.68h-34.99c-1.75,0-3.17,1.42-3.17,3.17v2.45l-20.58-18.29l20.58-18.29v2.45
		c0,1.75,1.42,3.17,3.17,3.17h38.02c1.75,0,3.17-1.42,3.17-3.17c0-1.75-1.42-3.17-3.17-3.17h-12.52l-18.06-33.58l23.01-12.78
		l26.08,46.93C447.15,322.45,446.83,326.55,444.51,329.54L444.51,329.54z"/>
	<path class="st13" d="M407.1,215.55c-1.11-0.58-2.45-0.45-3.43,0.32l-5,3.9l-19.59-25.09c-2.99-3.86-7.6-6.1-12.48-6.09h-0.03
		l-21.54,0.05c-6.35,0.01-12.07,3.82-14.54,9.67l-22.18,52.36c-0.68,1.61,0.07,3.47,1.68,4.15c0,0,0,0,0,0l30.03,12.73
		c1.6,0.68,3.44-0.05,4.14-1.64l15.24-34.65l9.32,11.9l-4.99,3.9c-1.38,1.08-1.62,3.07-0.55,4.45c0.48,0.61,1.16,1.03,1.93,1.17
		l37.52,6.86c0.9,0.16,1.82-0.07,2.53-0.63c0.71-0.56,1.16-1.39,1.21-2.3l2.42-38.07C408.87,217.29,408.2,216.13,407.1,215.55z
		 M400.27,252.66l-27.08-4.94l1.93-1.51c1.37-1.08,1.62-3.06,0.55-4.44l-23.4-29.89c-1.15-1.32-3.15-1.46-4.47-0.31
		c-1.22,1.07-1.44,2.88-0.51,4.21l7.69,9.82l-15.35,34.88l-24.24-10.26l20.93-49.44c1.48-3.51,4.92-5.79,8.73-5.8l21.54-0.05h0.03
		c2.93-0.01,5.69,1.34,7.48,3.65l21.54,27.56c1.08,1.37,3.06,1.61,4.44,0.54l1.93-1.51L400.27,252.66z"/>
	<path class="st13" d="M347.6,321.72h-38.92l7.99-14.1l5.46,3.17c1.52,0.87,3.45,0.35,4.33-1.16c0.39-0.67,0.51-1.46,0.36-2.22
		l-7.69-37.38c-0.35-1.71-2.03-2.82-3.74-2.47c-0.12,0.03-0.24,0.06-0.36,0.1l-36.2,12.02c-1.66,0.55-2.56,2.34-2.01,4
		c0.24,0.74,0.75,1.36,1.43,1.75l5.48,3.17l-15.91,27.56c-2.46,4.23-2.81,9.36-0.95,13.88l8.05,19.82
		c2.41,5.98,8.22,9.89,14.67,9.87h58c1.75,0,3.17-1.42,3.17-3.17v-31.68C350.77,323.14,349.35,321.72,347.6,321.72z M344.43,353.4
		H289.6c-3.87,0.01-7.36-2.34-8.8-5.92l-8.06-19.82c-1.11-2.72-0.9-5.79,0.57-8.33l17.49-30.3c0.88-1.51,0.36-3.45-1.16-4.33
		c0,0,0,0,0,0l-2.12-1.22l26.13-8.67l5.55,26.96l-2.12-1.23c-1.52-0.87-3.45-0.35-4.33,1.16c0,0.01-0.01,0.02-0.01,0.02
		l-18.97,32.86c-0.92,1.49-0.47,3.44,1.02,4.36s3.44,0.47,4.36-1.02c0.02-0.03,0.04-0.06,0.06-0.1l5.84-9.77h39.39V353.4z"/>
	<path class="st13" d="M382.45,378.74h-63.36c-1.75,0-3.17-1.42-3.17-3.17c0-1.75,1.42-3.17,3.17-3.17h63.36
		c1.75,0,3.17,1.42,3.17,3.17C385.61,377.33,384.19,378.74,382.45,378.74z"/>
	<path class="st13" d="M401.45,378.74h-6.34c-1.75,0-3.17-1.42-3.17-3.17c0-1.75,1.42-3.17,3.17-3.17h6.34
		c1.75,0,3.17,1.42,3.17,3.17C404.62,377.33,403.2,378.74,401.45,378.74z"/>
	<path class="st13" d="M277.9,249.87c-1.75,0-3.17-1.42-3.16-3.17c0-0.56,0.15-1.1,0.42-1.58l31.68-54.87
		c0.86-1.52,2.8-2.05,4.32-1.19c1.52,0.86,2.05,2.8,1.19,4.32c-0.01,0.01-0.01,0.02-0.02,0.04l-31.68,54.87
		C280.08,249.27,279.03,249.87,277.9,249.87z"/>
	<path class="st13" d="M268.4,266.33c-1.75,0-3.17-1.42-3.16-3.17c0-0.55,0.15-1.1,0.42-1.58l3.17-5.49c0.86-1.52,2.8-2.05,4.32-1.19
		c1.52,0.86,2.05,2.8,1.19,4.32c-0.01,0.01-0.01,0.02-0.02,0.04l-3.17,5.49C270.58,265.73,269.53,266.34,268.4,266.33z"/>
	<path class="st13" d="M452.14,266.33c-1.13,0-2.18-0.6-2.75-1.58l-31.68-54.86c-0.89-1.51-0.38-3.45,1.13-4.34s3.45-0.38,4.34,1.13
		c0.01,0.01,0.01,0.02,0.02,0.04l31.68,54.87c0.87,1.52,0.36,3.45-1.16,4.33c-0.48,0.28-1.03,0.42-1.58,0.42L452.14,266.33z"/>
	<path class="st13" d="M414.12,200.49c-1.13,0-2.18-0.6-2.75-1.58l-3.17-5.49c-0.89-1.51-0.38-3.45,1.13-4.34s3.45-0.38,4.34,1.13
		c0.01,0.01,0.01,0.02,0.02,0.04l3.17,5.49c0.87,1.52,0.36,3.45-1.16,4.33C415.23,200.34,414.68,200.49,414.12,200.49z"/>
</g>
</svg>
