<?xml version="1.0" encoding="utf-8"?>
<!-- Generator: Adobe Illustrator 23.1.0, SVG Export Plug-In . SVG Version: 6.00 Build 0)  -->
<svg version="1.1" id="123" xmlns="http://www.w3.org/2000/svg" xmlns:xlink="http://www.w3.org/1999/xlink" x="0px" y="0px"
	 viewBox="0 0 686 768" style="enable-background:new 0 0 686 768;" xml:space="preserve">
<style type="text/css">
	
		.st20{opacity:0.74;fill:#FFF9D9;stroke:#F7C93D;stroke-width:4;stroke-linecap:round;stroke-linejoin:round;stroke-miterlimit:10;enable-background:new    ;}
	
		.st21{opacity:0.74;fill:none;stroke:#F7C93D;stroke-width:4;stroke-linecap:round;stroke-linejoin:round;stroke-miterlimit:10;enable-background:new    ;}
	.st22{fill:#FF7BAC;}
	.st23{fill:#00A99D;}
	.st24{fill:#FFFFFF;}
	.st25{fill:none;stroke:#FCEBB7;stroke-linecap:round;stroke-linejoin:round;stroke-miterlimit:10;}
</style>
<path class="st20" d="M515.23,717H171.21c-58.97,0-106.77-47.8-106.77-106.77V208.04c0-58.97,47.8-106.77,106.77-106.77h344.02
	c58.97,0,106.77,47.8,106.77,106.77v402.19C622,669.2,574.2,717,515.23,717z"/>
<path class="st21" d="M495.74,678.15H151.72c-58.97,0-106.77-47.8-106.77-106.77V169.19c0-58.97,47.8-106.77,106.77-106.77h344.02
	c58.97,0,106.77,47.8,106.77,106.77v402.19C602.52,630.35,554.71,678.15,495.74,678.15z"/>
<g>
	<path d="M298.7,182.28l1.4-0.07l-0.03,3.03l-1.36,0.1c-0.03,4.15-0.49,9.45-3.45,14.37c1.71,1.5,3.24,2.96,4.29,4.19l-2.37,2.48
		c-0.94-1.15-2.3-2.51-3.84-3.98c-1.78,2.13-4.12,4.15-7.22,5.9c-0.52-0.77-1.6-1.92-2.34-2.48c3.1-1.67,5.44-3.59,7.12-5.69
		c-1.99-1.74-4.05-3.49-5.86-4.92c0.77-2.44,1.5-5.72,2.2-9.14l-3.14,0.17l-0.35-3.21l4.05-0.17c0.35-2.23,0.63-4.4,0.8-6.38
		l3.42,0.17c-0.21,1.92-0.52,3.94-0.84,6.03l4.36-0.24v-1.67h3.17V182.28z M295.53,185.56c-1.71,0.1-3.35,0.21-4.95,0.31
		c-0.59,3-1.22,5.96-1.88,8.44c1.29,0.98,2.65,2.09,4.01,3.21C295.08,193.34,295.5,189.01,295.53,185.56z M314.12,179.98v26.96
		h-3.21v-2.09h-6.7v2.58h-3.03v-27.45H314.12z M310.91,201.78v-18.73h-6.7v18.73H310.91z"/>
	<path d="M344.67,197.56c3.14,2.86,7.78,5.48,12,6.8c-0.73,0.7-1.71,1.92-2.23,2.76c-4.26-1.67-8.93-4.74-12.28-8.16v9.38h-3.42
		v-9.21c-3.28,3.52-7.92,6.52-12.31,8.16c-0.45-0.77-1.46-2.02-2.16-2.69c4.29-1.36,8.93-4.05,11.96-7.05h-11.06v-2.96h13.57v-2.58
		h-10.19v-14.02h23.96v14.02h-10.36v2.58h13.53v2.96H344.67z M331.9,183.67h6.84v-2.96h-6.84V183.67z M338.74,189.26v-3.03h-6.84
		v3.03H338.74z M349.03,180.71h-6.87v2.96h6.87V180.71z M349.03,186.22h-6.87v3.03h6.87V186.22z"/>
	<path d="M368.35,197.17c2.69-1.01,4.26-2.62,4.43-4.71c-0.14,0.04-0.31,0.04-0.49,0.04c-1.57,0-2.93-0.98-2.93-2.79
		c0-1.78,1.36-2.79,2.96-2.79c2.2,0,3.35,1.71,3.35,4.36c0,3.87-2.44,6.87-6.42,8.16L368.35,197.17z"/>
	<path d="M134.36,306.65c-1.57,2.9-3.56,5.55-5.9,7.92c1.15,3.24,2.51,5.2,3.94,5.2c0.84,0,1.26-1.71,1.43-6.03
		c0.73,0.77,1.85,1.53,2.72,1.81c-0.56,5.93-1.64,7.53-4.46,7.53c-2.65,0-4.71-2.3-6.24-6.03c-2.16,1.85-4.46,3.42-6.91,4.71
		c-0.52-0.8-1.4-1.88-2.23-2.62c2.86-1.33,5.58-3.17,8.06-5.34c-0.84-2.83-1.43-6.17-1.85-9.77h-7.71v4.88l5.83-1.15l0.24,2.9
		c-1.99,0.45-4.05,0.94-6.07,1.36v6.94c0,1.92-0.45,2.86-1.67,3.38c-1.22,0.52-3.17,0.63-5.96,0.63c-0.17-0.91-0.73-2.41-1.22-3.28
		c2.13,0.07,4.15,0.07,4.74,0.03c0.63-0.03,0.84-0.21,0.84-0.77v-6.21c-2.48,0.52-4.74,1.01-6.73,1.43l-0.91-3.24
		c2.06-0.35,4.74-0.84,7.64-1.4v-5.51h-7.05v-3.07h7.05v-4.81c-2.06,0.35-4.12,0.63-6,0.87c-0.17-0.73-0.59-1.99-1.01-2.69
		c4.85-0.73,10.39-1.85,13.78-3.03l2.27,2.72c-1.71,0.56-3.7,1.05-5.76,1.46v5.48h7.4c-0.28-3.14-0.42-6.42-0.45-9.73h3.35
		c-0.03,3.35,0.1,6.66,0.38,9.73h9.91v3.07h-9.56c0.35,2.62,0.73,4.95,1.26,7.08c1.57-1.78,2.93-3.7,3.98-5.69L134.36,306.65z
		 M132.55,299.43c-0.98-1.64-3.24-4.15-5.2-5.9l2.44-1.67c1.95,1.67,4.29,4.05,5.37,5.69L132.55,299.43z"/>
	<path d="M154.24,291.89c-0.77,2.3-1.67,4.64-2.72,6.87v24.14h-3.07v-18.49c-0.91,1.43-1.81,2.72-2.79,3.84
		c-0.28-0.8-1.12-2.62-1.6-3.42c2.9-3.38,5.58-8.55,7.19-13.78L154.24,291.89z M163.94,305.67h-6.52v17.16h-3v-30h9.52V305.67z
		 M157.41,295.35V298h4.01v-2.65H157.41z M161.42,303.19v-2.83h-4.01v2.83H161.42z M175.69,318.96c0,1.88-0.42,2.83-1.67,3.35
		c-1.29,0.49-3.38,0.56-6.63,0.56c-0.14-0.87-0.66-2.27-1.08-3.14c2.34,0.1,4.74,0.1,5.44,0.07c0.63-0.03,0.87-0.24,0.87-0.87
		v-13.25h-6.87v-12.84h9.94V318.96z M168.4,295.35V298h4.22v-2.65H168.4z M172.62,303.19v-2.83h-4.22v2.83H172.62z"/>
	<path d="M198.74,313.73c-2.65,3.42-6.73,6.98-10.46,9.28c-0.66-0.7-1.88-1.71-2.65-2.27c3.66-2.06,7.71-5.48,9.66-8.34
		L198.74,313.73z M213.29,293.5v16.01h-24V293.5H213.29z M192.6,306.44h17.2v-9.87h-17.2V306.44z M206.97,312.3
		c3.31,2.51,7.57,6.17,9.7,8.65l-3.04,1.92c-1.92-2.41-6.1-6.24-9.49-8.9L206.97,312.3z"/>
	<path d="M250.22,313.31c-1.01,1.74-2.34,3.17-3.87,4.36c4.01,0.98,7.64,1.95,10.36,2.9l-2.93,2.27c-2.72-1.01-6.42-2.13-10.71-3.17
		c-3.94,1.85-9.1,2.79-15.73,3.31c-0.24-0.94-0.77-2.13-1.29-2.83c4.74-0.24,8.65-0.77,11.86-1.64c-2.48-0.52-4.99-0.98-7.57-1.43
		c0.91-1.08,1.92-2.37,2.9-3.77h-7.08v-2.72h8.9c0.73-1.15,1.4-2.37,1.88-3.45l3.28,0.7c-0.45,0.91-0.98,1.85-1.53,2.76h9.38
		c0.28-0.63,0.56-1.29,0.8-1.99l3.14,0.87c-0.14,0.35-0.28,0.73-0.42,1.12h5.65v2.72H250.22z M235.95,295.14h-9.28v-2.83h29.89v2.83
		h-9.59v2.55h8.3v9.24h-26.93v-9.24h7.6V295.14z M231.38,304.34h4.57v-4.08h-4.57V304.34z M236.89,313.31
		c-0.49,0.77-1.01,1.46-1.53,2.13c2.34,0.42,4.64,0.84,6.91,1.33c1.64-0.91,3-2.06,4.08-3.45H236.89z M243.9,295.14h-4.88v2.55h4.88
		V295.14z M239.02,304.34h4.88v-4.08h-4.88V304.34z M246.97,300.26v4.08h5.09v-4.08H246.97z"/>
	<path d="M548.01,311.77c2.69-1.01,4.26-2.62,4.43-4.71c-0.14,0.04-0.31,0.04-0.49,0.04c-1.57,0-2.93-0.98-2.93-2.79
		c0-1.78,1.36-2.79,2.96-2.79c2.2,0,3.35,1.71,3.35,4.36c0,3.87-2.44,6.87-6.42,8.16L548.01,311.77z"/>
	<path d="M115.6,432.79v3.31H84.62v-3.31h10.08v-17.51h-9.24v-3.21h7.5c-0.59-1.6-1.81-3.8-2.96-5.41l2.9-1.08
		c1.36,1.74,2.76,4.15,3.31,5.76l-1.71,0.73h10.08l-0.7-0.24c1.19-1.71,2.62-4.39,3.38-6.35l3.59,1.01
		c-1.12,1.95-2.37,4.01-3.49,5.58h7.4v3.21h-9.42v17.51H115.6z M89.86,418.28c1.64,3.42,2.93,7.85,3.31,10.78l-3.14,0.84
		c-0.28-2.96-1.54-7.43-3.07-10.85L89.86,418.28z M97.95,432.79h4.15v-17.51h-4.15V432.79z M106.53,429.06
		c1.29-2.9,2.83-7.6,3.56-11.06l3.49,0.8c-1.22,3.84-2.79,8.23-4.12,11.09L106.53,429.06z"/>
	<path d="M132.37,405.55h3v31.99h-3v-11.96h-3.21v0.49c0,2.93-0.35,8.06-2.55,11.54c-0.56-0.49-1.71-1.22-2.41-1.57
		c1.85-3.07,2.13-7.46,2.13-10.08v-0.38h-1.81v-2.83h7.85v-4.54h-6.38v-11.3h2.83v8.48h3.56V405.55z M156.4,426.1h-4.26v7.43
		c0,1.67-0.31,2.62-1.46,3.1s-2.9,0.56-5.62,0.56c-0.1-0.91-0.49-2.23-0.94-3.14c1.92,0.07,3.73,0.07,4.22,0.07
		c0.56-0.04,0.73-0.14,0.73-0.63v-7.4h-12.63v-2.86h1.53c-0.35-0.73-1.08-1.74-1.6-2.34c3.56-0.84,7.08-2.37,9.98-4.53
		c-0.94-1.36-2.48-3-3.98-4.33c-1.5,1.05-3.14,1.95-4.74,2.69c-0.42-0.56-1.4-1.5-1.99-1.99c4.01-1.6,7.78-4.5,9.73-7.22l3.14,0.84
		c-0.49,0.7-1.12,1.36-1.74,2.02h6.14l0.52-0.1l1.99,0.98c-2.97,7.53-9.84,11.83-17.16,13.99h10.81v-4.57h3.07v4.57h4.26V426.1z
		 M143.71,417.06c-2.41,0.42-4.71,0.77-6.77,1.12l-0.52-2.34c1.92-0.21,4.4-0.59,7.12-0.98L143.71,417.06z M141.2,426.52
		c1.67,1.64,3.59,3.94,4.4,5.51l-2.65,1.64c-0.77-1.57-2.62-3.98-4.26-5.69L141.2,426.52z M144.47,410.68
		c1.47,1.22,2.93,2.69,3.87,3.98c1.29-1.19,2.34-2.51,3.1-3.98H144.47z"/>
	<path d="M196.48,422.05c-4.85,10.36-16.46,14.23-29.16,15.59c-0.21-0.94-0.77-2.37-1.29-3.14c5.69-0.49,11.09-1.5,15.73-3.35
		c-1.15-1.22-2.83-2.65-4.36-3.87c-1.54,0.8-3.21,1.57-5.02,2.3c-0.42-0.8-1.33-1.95-2.02-2.51c7.05-2.41,11.93-6.03,14.51-9.45
		l3.56,0.8c-0.7,0.87-1.4,1.67-2.2,2.48h7.46l0.56-0.14L196.48,422.05z M191.59,409.6c-4.43,7.85-14.44,12.31-23.82,14.2
		c-0.31-0.8-0.98-2.16-1.53-2.86c3.73-0.63,7.53-1.71,11.02-3.21c-1.08-1.19-2.65-2.55-4.15-3.63c-1.15,0.63-2.37,1.29-3.66,1.88
		c-0.49-0.77-1.46-1.81-2.2-2.34c5.55-2.23,9.73-5.37,11.96-8.2l3.52,0.8c-0.63,0.77-1.36,1.5-2.16,2.23h8.34l0.56-0.17
		L191.59,409.6z M177.22,411.34c-0.52,0.42-1.08,0.8-1.64,1.15c1.67,1.19,3.42,2.62,4.57,3.77c2.51-1.36,4.74-3.03,6.42-4.92H177.22
		z M182.87,423.79c-0.84,0.66-1.78,1.29-2.72,1.92c1.64,1.22,3.49,2.76,4.67,3.98c2.76-1.54,5.13-3.45,6.8-5.89H182.87z"/>
	<path d="M210.07,412.46c-1.12,1.08-2.3,2.06-3.49,2.86c-0.24-0.63-0.94-2.3-1.43-3.04c2.72-1.64,5.55-4.29,7.12-7.12l2.69,0.94
		c-0.21,0.35-0.42,0.73-0.63,1.08c1.67,0.87,3.63,2.02,4.71,2.79l-1.47,2.58c-1.05-0.84-3.07-2.09-4.81-3.1
		c-0.7,0.91-1.47,1.74-2.23,2.55H216v2.23h-5.93V412.46z M215.48,428.43c1.29,2.16,2.83,5.13,3.49,6.84l-2.51,1.29
		c-0.28-0.77-0.7-1.67-1.15-2.69c-6.59,2.58-7.6,3.07-8.27,3.59c-0.17-0.77-0.66-2.13-1.12-2.86c0.63-0.24,1.46-0.73,1.46-2.02
		v-16.6h10.19v11.96h-7.22v5.09l3.87-1.4c-0.38-0.77-0.73-1.46-1.12-2.16L215.48,428.43z M210.35,418.39v2.34h4.4v-2.34H210.35z
		 M214.75,425.54v-2.48h-4.4v2.48H214.75z M229.5,424.74v9.52c0,1.54-0.31,2.27-1.26,2.72c-0.98,0.45-2.37,0.49-4.4,0.49
		c-0.17-0.77-0.63-1.99-1.01-2.69c1.33,0.03,2.69,0.03,3.07,0.03c0.45,0,0.59-0.14,0.59-0.56v-9.52h-7.33v-2.89h7.33v-3.52h-5.16
		v-2.83h13.19c-2.44-1.6-4.67-3.42-6.8-5.75c-2.2,2.62-4.99,4.81-7.88,6.35c-0.42-0.73-1.19-1.71-1.92-2.37
		c3.84-1.78,7.67-4.92,9.7-8.41l2.51,1.08c-0.24,0.42-0.49,0.8-0.77,1.22c2.48,2.65,5.3,4.43,8.41,5.93
		c-0.73,0.77-1.64,1.78-2.06,2.69c-0.38-0.21-0.8-0.45-1.19-0.73v2.83h-5.02v3.52h7.43v2.89H229.5z M224.3,427.04
		c-0.98,2.65-2.48,5.72-3.66,7.71c-0.52-0.45-1.67-1.19-2.34-1.54c1.22-1.85,2.48-4.54,3.35-6.94L224.3,427.04z M233.79,426.03
		c1.29,2.37,2.93,5.55,3.7,7.43l-2.58,1.26c-0.73-1.95-2.34-5.2-3.59-7.6L233.79,426.03z"/>
	<path d="M276.9,410.92c0,0,0,1.12-0.04,1.53c-0.49,15.73-0.91,21.14-2.3,22.88c-0.87,1.15-1.71,1.46-3.03,1.64
		c-1.22,0.14-3.28,0.1-5.27,0c-0.07-0.87-0.45-2.23-1.05-3.14c2.23,0.17,4.26,0.21,5.13,0.21c0.7,0,1.08-0.1,1.46-0.59
		c1.12-1.15,1.57-6.42,2.02-19.57h-8.23c-0.98,2.23-2.06,4.25-3.17,5.86c-0.52-0.49-1.74-1.36-2.55-1.81v16.01h-9.45v2.65h-2.96
		v-25.5h3.91c0.49-1.67,1.01-3.98,1.22-5.65l3.52,0.59c-0.59,1.74-1.26,3.59-1.81,5.06h5.58v6.59c2.3-3,4.15-7.64,5.2-12.24
		l3.14,0.73c-0.42,1.6-0.87,3.21-1.43,4.74H276.9z M250.42,413.92v6.63h6.49v-6.63H250.42z M256.91,431.08v-7.71h-6.49v7.71H256.91z
		 M268.53,428.36c-0.98-2.13-3.24-5.55-5.09-8.06l2.55-1.43c1.85,2.41,4.22,5.72,5.27,7.78L268.53,428.36z"/>
	<g>
		<path class="st22" d="M273.28,314.7c-1,3.28-2.72,6.56-4.52,8.68c-0.64-0.56-2.04-1.48-2.8-1.92c1.8-1.88,3.28-4.68,4.04-7.56
			L273.28,314.7z M279.68,313.3h-11.64v-25.2h11.64V313.3z M276.32,291.15h-5.04v4.44h5.04V291.15z M276.32,298.42h-5.04v4.52h5.04
			V298.42z M276.32,305.74h-5.04v4.56h5.04V305.74z M277.64,313.86c1.28,1.96,2.68,4.56,3.32,6.28l-2.92,1.4
			c-0.52-1.72-1.96-4.48-3.2-6.48L277.64,313.86z M303,316.86h-2.12v2.88c0,1.64-0.36,2.52-1.52,3.04c-1.2,0.52-3.04,0.52-5.8,0.52
			c-0.12-0.84-0.56-2.16-1-3c1.84,0.08,3.68,0.08,4.2,0.04c0.56,0,0.68-0.16,0.68-0.64v-2.84h-11.56v6.52h-3.32v-6.52h-2.36v-2.72
			h2.36v-10.12h7.36v-1.92h-9.56v-2.76h5.4v-2.12h-3.6v-2.64h3.6v-1.96h-4.6v-2.76h4.6v-3.24h3.28v3.24h5.12v-3.24h3.32v3.24h4.6
			v2.76h-4.6v1.96h3.96v2.64h-3.96v2.12h5.44v2.76h-9.72v1.92h7.68v10.12H303V316.86z M285.88,306.78v2.36h4.04v-2.36H285.88z
			 M285.88,314.14h4.04v-2.56h-4.04V314.14z M289.04,294.59h5.12v-1.96h-5.12V294.59z M289.04,299.34h5.12v-2.12h-5.12V299.34z
			 M293.2,306.78v2.36h4.24v-2.36H293.2z M297.44,314.14v-2.56h-4.24v2.56H297.44z"/>
		<path class="st22" d="M328.24,318.42c-3.28,2.04-8.4,3.96-12.44,5.04c-0.64-0.72-1.96-2.12-2.8-2.76c4.2-0.8,9.04-2.28,11.84-3.8
			L328.24,318.42z M346.72,288.39v9.2h-30.99v-9.2H346.72z M344.48,299.58v17.24h-26.48v-17.24H344.48z M319.21,294.75h5.68v-3.52
			h-5.68V294.75z M321.72,304.58h18.92v-2.52h-18.92V304.58z M321.72,309.42h18.92v-2.48h-18.92V309.42z M321.72,314.38h18.92v-2.6
			h-18.92V314.38z M328.08,294.75h5.84v-3.52h-5.84V294.75z M336.88,316.94c4.44,1.36,9.44,3.2,12.44,4.52l-3.96,1.92
			c-2.56-1.28-7-3.08-11.4-4.48L336.88,316.94z M337.08,294.75h6.04v-3.52h-6.04V294.75z"/>
		<path class="st22" d="M379.08,308.7c-0.32,0.88-0.64,1.68-0.92,2.48h14.6v8.6c0,1.6-0.24,2.44-1.36,2.96
			c-1.12,0.52-2.68,0.56-4.8,0.56c-0.16-0.92-0.64-2.24-1.12-3.08c1.44,0.04,2.76,0.04,3.16,0.04c0.44-0.04,0.56-0.16,0.56-0.52
			v-5.64h-5.4v8.88h-3.4v-8.88h-5.28v8.88h-3.4v-8.88h-5.08v9.12h-3.52v-12.04h11.44c0.28-0.84,0.52-1.64,0.72-2.48h-15.16v-2.92
			h34.83v2.92H379.08z M363.97,302.26h-3.52v-8.76h15.08v-2.44h-13.36v-2.8h30.52v2.8h-13.52v2.44h15.44v8.76h-3.72v-5.92h-11.72
			v8.28h-3.64v-8.28h-11.56V302.26z M364.25,302.58c2.52-0.24,5.92-0.76,9.44-1.32l0.12,2.24c-3,0.64-6,1.28-8.6,1.84L364.25,302.58
			z M366.4,296.75c2.4,0.44,5.6,1.2,7.32,1.92l-1,2.12c-1.68-0.72-4.88-1.68-7.36-2.12L366.4,296.75z M389.68,305.34
			c-2.16-0.76-6.2-1.72-9.28-2.16l0.8-2.2c2.96,0.36,7.04,1.2,9.2,1.96L389.68,305.34z M389.68,298.5c-2.2,0.92-5.32,1.68-7.52,2.12
			l-1.24-1.84c2.16-0.48,5.36-1.6,7.2-2.32L389.68,298.5z"/>
		<path class="st22" d="M433.68,312.3c-1.16,2-2.68,3.64-4.44,5c4.6,1.12,8.76,2.24,11.88,3.32l-3.36,2.6
			c-3.12-1.16-7.36-2.44-12.28-3.64c-4.52,2.12-10.44,3.2-18.04,3.8c-0.28-1.08-0.88-2.44-1.48-3.24c5.44-0.28,9.92-0.88,13.6-1.88
			c-2.84-0.6-5.72-1.12-8.68-1.64c1.04-1.24,2.2-2.72,3.32-4.32h-8.12v-3.12h10.2c0.84-1.32,1.6-2.72,2.16-3.96l3.76,0.8
			c-0.52,1.04-1.12,2.12-1.76,3.16h10.76c0.32-0.72,0.64-1.48,0.92-2.28l3.6,1c-0.16,0.4-0.32,0.84-0.48,1.28h6.48v3.12H433.68z
			 M417.32,291.47h-10.64v-3.24h34.27v3.24h-11v2.92h9.52v10.6h-30.88v-10.6h8.72V291.47z M412.08,302.02h5.24v-4.68h-5.24V302.02z
			 M418.4,312.3c-0.56,0.88-1.16,1.68-1.76,2.44c2.68,0.48,5.32,0.96,7.92,1.52c1.88-1.04,3.44-2.36,4.68-3.96H418.4z
			 M426.44,291.47h-5.6v2.92h5.6V291.47z M420.84,302.02h5.6v-4.68h-5.6V302.02z M429.96,297.35v4.68h5.84v-4.68H429.96z"/>
		<path class="st22" d="M487.48,292.83c0,0,0,1.28-0.04,1.76c-0.56,18.04-1.04,24.24-2.64,26.24c-1,1.32-1.96,1.68-3.48,1.88
			c-1.4,0.16-3.76,0.12-6.04,0c-0.08-1-0.52-2.56-1.2-3.6c2.56,0.2,4.88,0.24,5.88,0.24c0.8,0,1.24-0.12,1.68-0.68
			c1.28-1.32,1.8-7.36,2.32-22.44h-9.44c-1.12,2.56-2.36,4.88-3.64,6.72c-0.6-0.56-2-1.56-2.92-2.08v18.36h-10.84v3.04h-3.4v-29.23
			h4.48c0.56-1.92,1.16-4.56,1.4-6.48l4.04,0.68c-0.68,2-1.44,4.12-2.08,5.8h6.4v7.56c2.64-3.44,4.76-8.76,5.96-14.04l3.6,0.84
			c-0.48,1.84-1,3.68-1.64,5.44H487.48z M457.13,296.27v7.6h7.44v-7.6H457.13z M464.56,315.94v-8.84h-7.44v8.84H464.56z
			 M477.88,312.82c-1.12-2.44-3.72-6.36-5.84-9.24l2.92-1.64c2.12,2.76,4.84,6.56,6.04,8.92L477.88,312.82z"/>
		<path class="st22" d="M534.76,319.54v2.84h-36.03v-2.84h16.12v-1.92h-12.72v-2.52h12.72v-1.8h-11.72v-10h27.44v10h-12.12v1.8h12.92
			v2.52h-12.92v1.92H534.76z M534.6,301.78h-35.71v-2.72h35.71V301.78z M529.48,297.54h-25.64v-9.68h25.64V297.54z M506.64,307.26
			h8.2v-1.84h-8.2V307.26z M514.84,311.18v-1.88h-8.2v1.88H514.84z M525.72,289.91h-18.28v1.8h18.28V289.91z M525.72,293.67h-18.28
			v1.84h18.28V293.67z M526.92,305.42h-8.48v1.84h8.48V305.42z M526.92,309.3h-8.48v1.88h8.48V309.3z"/>
		<path class="st22" d="M307.67,414.47c-0.2,0.36-0.44,0.68-0.68,1c4.48,4.88,9.96,7.92,16.28,10.28c-0.88,0.8-1.88,2.04-2.4,3.08
			c-1.6-0.68-3.16-1.48-4.64-2.24v11.24h-3.8v-1.12h-15.12v1.24h-3.64v-10.88c-1.56,0.84-3.2,1.64-4.84,2.28
			c-0.52-0.92-1.52-2.2-2.36-3c7.32-2.6,14.24-7.36,17.96-13.28L307.67,414.47z M291.87,412.47h-3.64v-7.76h15.08
			c-0.4-1-0.88-2.04-1.36-2.96l3.84-0.84c0.68,1.12,1.44,2.6,1.92,3.8h13.88v7.76h-3.76v-4.4h-25.96V412.47z M301.51,410.67
			c-2.56,3.48-6.6,6.8-10.24,8.84c-0.52-0.68-1.8-2.16-2.56-2.8c3.52-1.68,7.16-4.4,9.32-7.24L301.51,410.67z M312.43,433.42v-5.6
			h-15.12v5.6H312.43z M312.79,424.54c-2.8-1.8-5.32-3.88-7.76-6.48c-2.08,2.4-4.56,4.6-7.24,6.48H312.79z M310.43,409.51
			c3.48,2.08,8,5.28,10.2,7.52l-2.68,2.4c-2.08-2.2-6.48-5.56-10.08-7.8L310.43,409.51z"/>
		<path class="st22" d="M359.19,420.94c2.92,2.2,6.88,4,10.8,4.92c-0.8,0.68-1.84,2.08-2.32,2.96c-0.64-0.2-1.2-0.4-1.84-0.6v9.48
			h-3.56v-0.84h-6.08v1.04h-3.4v-12.32h7.48c-2.2-1.32-4.2-2.92-5.8-4.64h-7.24c-1.56,1.64-3.44,3.24-5.6,4.64h7.88v12.12h-3.56
			v-0.84h-5.64v1.04h-3.4v-9.76c-0.72,0.36-1.44,0.68-2.24,1c-0.4-0.88-1.32-2.24-2-2.88c3.92-1.44,7.08-3.28,9.6-5.32h-8.8v-3.28
			h12.12c0.96-1.2,1.8-2.44,2.4-3.64h-11.84v-11.08h12.96v10.6l2.88,0.56c-0.56,1.2-1.28,2.4-2.04,3.56h9.8
			c-1.24-0.8-2.84-1.56-4.24-2.08l1.64-1.56h-4.2v-11.08h13.44v11.08h-7.96c1.84,0.76,3.84,1.76,4.96,2.68l-1,0.96h6.8v3.28H359.19z
			 M345.59,406.11h-6.12v4.76h6.12V406.11z M345.95,428.82h-5.64v4.84h5.64V428.82z M362.27,433.66v-4.84h-6.08v4.84H362.27z
			 M356.35,410.87h6.48v-4.76h-6.48V410.87z"/>
		<path class="st22" d="M415.63,433.74v3h-35.71v-3h15.76v-2.84h-12.8v-2.92h12.8v-2.28h-11.56v-12.44h11.56v-2.04h-15.56v-2.96
			h15.56v-2.36c-4,0.24-8.08,0.36-11.8,0.44c-0.04-0.88-0.48-2.16-0.76-2.92c9.2-0.24,20.2-0.96,26.64-2.08l1.88,2.92
			c-3.44,0.6-7.72,1.04-12.24,1.36v2.64h15.96v2.96h-15.96v2.04h12.2v12.44h-12.2v2.28h13.68v2.92h-13.68v2.84H415.63z
			 M387.75,418.3h7.92v-2.48h-7.92V418.3z M395.67,423.1v-2.44h-7.92v2.44H395.67z M399.39,415.83v2.48h8.4v-2.48H399.39z
			 M407.79,420.66h-8.4v2.44h8.4V420.66z"/>
		<path class="st22" d="M460.35,425.18c-1.48,2.92-3.68,5.28-6.36,7.16c2.6,1.12,5.52,1.92,8.64,2.4c-0.76,0.8-1.72,2.24-2.16,3.16
			c-3.72-0.68-7.12-1.88-10.04-3.44c-3.44,1.72-7.32,2.88-11.28,3.6c-0.32-0.88-1.12-2.28-1.76-3c3.4-0.52,6.72-1.36,9.68-2.64
			c-1.2-0.88-2.36-1.88-3.36-2.92c-1.12,0.84-2.2,1.6-3.28,2.24c-0.6-0.64-1.84-1.92-2.64-2.48c1.28-0.68,2.56-1.44,3.76-2.32
			c-0.72-0.96-1.32-1.96-1.92-3.04l3.04-1c0.4,0.68,0.8,1.32,1.28,2c0.92-0.92,1.76-1.88,2.4-2.88h-4.64v-9.16
			c-0.28,0.32-0.56,0.64-0.84,0.96c-0.64-0.6-2.04-1.6-3-2.12c-0.96,2.24-2.16,4.4-3.44,6.52v0.16c0.28,0.24,0.68,0.64,1.04,1.08
			c1-1.16,2.04-2.64,2.68-3.72l2.32,2.16c-1.24,1.16-2.32,2.4-3.32,3.36c1.04,1.16,1.96,2.2,2.36,2.6l-2.24,2.84
			c-0.56-1.04-1.72-2.68-2.84-4.2v15.4h-3.4v-14.96c-1.32,1.64-2.72,3.08-4.04,4.28c-0.32-1.04-1.28-2.92-1.88-3.64
			c3.44-2.72,7.08-7.48,9.2-12.12h-8.28v-3.32h6.32c-0.48-1.44-1.68-3.72-2.68-5.36l2.92-1.4c1.04,1.68,2.32,3.84,2.84,5.28
			l-2.88,1.48h3.56l0.68-0.16l2.04,1.4c-0.24,0.64-0.48,1.24-0.76,1.88c2.56-2.52,4.8-6.28,6.12-10.08l3.64,0.92
			c-0.36,1-0.8,1.96-1.28,2.96h15.24v3.16h-16.88c-0.44,0.76-0.84,1.44-1.32,2.16h16.08v11.64h-9.32c-0.4,0.68-0.88,1.44-1.4,2.08
			h8.4l0.64-0.16L460.35,425.18z M445.19,414.95h10.8v-2.12h-10.8V414.95z M445.19,419.54h10.8v-2.24h-10.8V419.54z M446.15,427.38
			c1.28,1.2,2.76,2.36,4.44,3.28c1.8-1.04,3.32-2.32,4.52-3.76h-8.52L446.15,427.38z"/>
		<path class="st22" d="M484.43,413.07h7.76v3.44h-7.76v1.24c1.96,1.68,6.24,5.8,7.36,6.88l-2.12,3.16c-1.12-1.4-3.32-3.88-5.24-5.88
			v16h-3.72v-15.84c-1.96,4.16-4.4,8.12-6.88,10.64c-0.36-1.08-1.36-2.64-1.96-3.64c3.04-2.84,6.28-7.96,8.12-12.56h-7.28v-3.44h8
			v-5.92c-2.44,0.48-4.88,0.84-7.16,1.12c-0.2-0.84-0.72-2.08-1.16-2.88c5.8-0.88,12.52-2.28,16.28-3.96l2.68,2.84
			c-1.96,0.8-4.36,1.52-6.92,2.08V413.07z M498.63,427.98h-3.68v-22h3.68V427.98z M507.07,401.75v31.31c0,2.36-0.56,3.44-1.96,4.04
			c-1.44,0.6-3.84,0.72-7.44,0.72c-0.16-1.04-0.76-2.8-1.32-3.84c2.68,0.12,5.2,0.12,6,0.12c0.72-0.04,1.04-0.28,1.04-1.04v-31.31
			H507.07z"/>
		<path class="st22" d="M552.47,433.26c0,2.16-0.52,3.28-1.96,3.84c-1.48,0.6-3.8,0.68-7.48,0.64c-0.16-1-0.76-2.64-1.24-3.6
			c2.56,0.12,5.2,0.08,5.96,0.08c0.72,0,1-0.24,1-1v-7.16h-9.68v11.44h-3.72v-11.44h-9.2c-0.64,4.4-2.08,8.88-5,12.12
			c-0.56-0.72-2.08-2-2.92-2.44c4.36-4.84,4.76-11.92,4.76-17.56v-14.24h29.48V433.26z M535.35,422.54v-5.92h-8.68v1.6
			c0,1.36-0.04,2.84-0.16,4.32H535.35z M526.67,407.51v5.64h8.68v-5.64H526.67z M548.75,407.51h-9.68v5.64h9.68V407.51z
			 M548.75,422.54v-5.92h-9.68v5.92H548.75z"/>
	</g>
	<path d="M577.37,424.39l-2.97,2.55c-2.2-2.69-5.2-5.69-7.64-7.74l2.86-2.48C572.14,418.74,575.38,422.02,577.37,424.39z"/>
	<path d="M124.31,544.57c-0.84,2.86-2.3,5.75-3.87,7.6c-0.59-0.49-1.78-1.29-2.44-1.67c1.53-1.64,2.76-4.12,3.45-6.59L124.31,544.57
		z M129.54,543.38h-9.73v-21.97h9.73V543.38z M126.71,524.06h-4.19v3.87h4.19V524.06z M126.71,530.41h-4.19v3.94h4.19V530.41z
		 M126.71,536.79h-4.19v3.98h4.19V536.79z M142.48,545.58l0.28,2.55c-4.26,1.01-8.79,2.02-12.17,2.79l-0.73-1.71l-2.02,0.87
		c-0.38-1.39-1.4-3.59-2.34-5.23l2.34-0.91c0.8,1.26,1.64,2.83,2.13,4.12l1.67-0.31v-13.6h2.44v13.12l2.16-0.42v-15.31h2.51v5.79
		h3.14v2.51h-3.14v6.52L142.48,545.58z M145.17,530.86c0.35,9.98,1.22,17.27,2.65,17.3c0.45,0,0.84-1.81,1.01-4.81
		c0.45,0.66,1.71,1.5,2.16,1.78c-0.73,5.62-2.16,6.94-3.31,6.91c-3.7-0.07-4.92-8.44-5.37-21.17h-12.03v-2.72h11.93
		c-0.07-2.51-0.1-5.13-0.14-7.88h2.97c0,2.72,0,5.37,0.07,7.88h5.3v2.72H145.17z M140.7,525.21h-9.07v-2.58h9.07V525.21z
		 M148.31,527.02c-0.52-1.29-1.74-3.28-2.9-4.67l2.16-1.05c1.22,1.36,2.51,3.24,3.03,4.54L148.31,527.02z"/>
	<path d="M190.65,534.07c-1.71,3.1-3.91,6.52-5.93,8.72l-2.72-1.64c1.08-1.26,2.37-3.1,3.42-4.92h-8.69v12.14
		c0,1.81-0.45,2.72-1.85,3.17c-1.4,0.49-3.52,0.52-6.52,0.52c-0.21-0.91-0.77-2.27-1.22-3.14c2.27,0.1,4.71,0.07,5.37,0.07
		c0.66-0.03,0.84-0.17,0.84-0.7v-12.07h-14.02v-3.1h17.06c-2.83-1.33-6.28-2.86-9-3.94l1.67-2.44c1.74,0.7,3.84,1.5,5.9,2.37
		c1.92-1.12,4.01-2.65,5.65-4.12h-18v-3h21.17l0.7-0.17l2.37,1.81c-2.37,2.37-5.58,4.88-8.62,6.84c1.33,0.59,2.51,1.12,3.42,1.57
		l-0.66,1.08h6.42l0.59-0.21L190.65,534.07z"/>
	<path d="M229.57,524.72v7.53h-3.38v-4.43h-22.12v4.43h-3.21v-7.53h13.39c-0.42-1.22-1.08-2.76-1.74-3.98l3.1-0.87
		c0.94,1.5,1.92,3.52,2.27,4.85H229.57z M222.49,548.13c2.72,0,3.14-0.87,3.49-5.34c0.87,0.56,2.3,1.08,3.24,1.29
		c-0.52,5.62-1.71,7.25-6.63,7.25h-10.12c-5.37,0-6.94-1.12-6.94-5.34v-15.04h3.42v7.36c5.23-1.43,10.6-3.28,13.95-5.13l2.62,2.62
		c-4.5,2.13-10.78,4.01-16.57,5.44V546c0,1.78,0.52,2.13,3.59,2.13H222.49z"/>
	<path d="M271.66,534v3.56h-31.74V534H271.66z"/>
	<path d="M289.79,521.13c-0.77,2.27-1.67,4.53-2.76,6.7v24.35h-3.1v-18.84c-0.94,1.39-1.88,2.72-2.9,3.84
		c-0.24-0.8-1.12-2.58-1.6-3.42c2.96-3.31,5.72-8.37,7.36-13.5L289.79,521.13z M311.07,522.07v29.72H308v-1.74h-14.37v2.06h-2.96
		v-30.03H311.07z M308,547.19V524.9h-14.37v22.29H308z M302.14,532.01v3.49h3.7v9.28h-9.77v-9.28h3.49v-3.49h-4.67v-2.41h4.67v-3.77
		h2.58v3.77h4.85v2.41H302.14z M303.33,537.84h-4.85v4.6h4.85V537.84z"/>
	<path d="M338.24,548.3h13.22v2.93h-29.44v-2.93h12.8v-5.13h-9.38v-2.83h9.38v-4.74H327v-2.83c-1.53,1.08-3.07,2.02-4.53,2.79
		c-0.45-0.84-1.29-1.95-2.02-2.65c4.15-1.81,8.93-5.27,12.31-8.79h-5.55v-3.04h11.13c3.1,4.64,8.93,9.17,14.58,11.41
		c-0.66,0.66-1.71,2.02-2.2,2.93c-1.5-0.7-3.04-1.57-4.5-2.55v2.72h-7.99v4.74h9.49v2.83h-9.49V548.3z M327.07,532.74h18.94
		c-3.59-2.41-6.94-5.51-9.42-8.62C334.08,527.16,330.6,530.27,327.07,532.74z"/>
	<path d="M366.83,542.37c-0.87,2.44-2.27,5.23-3.52,7.01c-0.52-0.42-1.57-1.19-2.23-1.54c1.29-1.64,2.48-4.01,3.21-6.24
		L366.83,542.37z M371.33,540.1v11.83h-3.14V540.1h-6.7v-2.76h6.7v-3.17h-6.91v-2.72h3.8c-0.14-1.19-0.63-3-1.22-4.36l2.65-0.66
		c0.56,1.36,1.12,3.14,1.29,4.29l-2.58,0.73h5.51c0.63-1.46,1.36-3.59,1.71-5.06l3,0.63c-0.59,1.54-1.19,3.14-1.78,4.43h4.08v2.72
		h-6.42v3.17h5.93v2.76H371.33z M377.19,526.36h-15.35v-2.69h6.38c-0.38-0.98-0.84-2.09-1.26-2.97l3.21-0.84
		c0.59,1.19,1.29,2.65,1.74,3.8h5.27V526.36z M374.71,541.33c1.15,1.64,2.34,3.84,2.9,5.23l-2.27,1.36
		c-0.56-1.46-1.74-3.73-2.79-5.41L374.71,541.33z M393.06,534.7h-3.56v17.27h-3.17V534.7h-4.08v0.84c0,5.02-0.45,12-3.56,16.43
		c-0.49-0.59-1.81-1.57-2.48-1.92c2.76-4.04,3-9.94,3-14.51v-12.07c3.87-0.66,8.16-1.74,10.67-2.83l2.55,2.37
		c-2.86,1.12-6.63,1.95-10.19,2.58v6.1h10.81V534.7z"/>
	<path d="M433.1,547.92v3.14h-30.98v-3.14h13.81v-8.02H406v-3.1h9.94v-6.98h-7.74c-1.08,2.09-2.23,3.94-3.45,5.41
		c-0.66-0.56-2.09-1.5-2.96-1.95c2.83-2.96,5.02-7.74,6.31-12.63l3.35,0.77c-0.52,1.78-1.15,3.56-1.81,5.23h6.31v-6.49h3.35v6.49
		h12.14v3.17h-12.14v6.98h10.85v3.1h-10.85v8.02H433.1z"/>
	<path d="M460.75,521.51c-0.21,0.25-0.42,0.52-0.66,0.8c3.14,3.28,8.72,6.24,14.16,7.54c-0.77,0.73-1.81,2.13-2.3,3.07
		c-2.41-0.7-4.78-1.74-6.98-3.04v2.2h-14.23v-2.16c-2.3,1.29-4.74,2.37-7.12,3.17c-0.42-0.98-1.22-2.27-1.88-3.14
		c6.42-1.64,13.18-5.82,16.43-10.29L460.75,521.51z M455.84,546.7h-7.92v2.86h-3v-14.96h10.92V546.7z M447.92,537.42v6.45h4.88
		v-6.45H447.92z M463.86,529.19c-2.16-1.4-4.12-3-5.72-4.74c-1.78,1.71-3.91,3.35-6.17,4.74H463.86z M471.25,544.22
		c0,1.53-0.28,2.44-1.36,2.93c-1.08,0.52-2.76,0.52-5.16,0.52c-0.14-0.87-0.56-2.13-0.94-2.93c1.67,0.03,3.28,0.03,3.7,0
		c0.49,0,0.63-0.14,0.63-0.56v-6.7h-5.86v14.72h-3.17v-17.62h12.17V544.22z"/>
	<path d="M486.45,543.63v2.69h-2.93v-23.09h2.93v0.03h6.7v20.37H486.45z M486.45,526.4v14.09h3.87V526.4H486.45z M498.87,531.77
		v1.74c0,5.65-0.59,13.39-4.78,18.28c-0.52-0.52-1.81-1.32-2.58-1.67c4.01-4.67,4.36-11.41,4.36-16.6v-11.82h17.41v10.08H498.87z
		 M498.87,524.65v4.15h11.37v-4.15H498.87z M510.31,548.41c1.22,0,1.43-0.66,1.57-4.39c0.7,0.52,1.99,1.05,2.79,1.25
		c-0.35,4.71-1.19,6-4.08,6h-5.23c-3.38,0-4.25-0.94-4.25-4.29v-13.71h3.03v4.5h9.84v2.58h-9.84v6.63c0,1.22,0.24,1.43,1.61,1.43
		H510.31z"/>
	<path d="M538.95,529.92c0-2.27-1.71-3.77-4.92-3.77c-2.27,0-4.36,0.98-6.14,2.96l-2.3-2.13c2.23-2.51,5.13-4.15,8.89-4.15
		c4.95,0,8.37,2.44,8.37,6.73c0,5.2-8.02,6.07-7.29,11.16H532C531.06,535.05,538.95,533.62,538.95,529.92z M533.82,543.52
		c1.78,0,3.17,1.19,3.17,3.04s-1.4,3.07-3.17,3.07c-1.78,0-3.14-1.22-3.14-3.07S532.04,543.52,533.82,543.52z"/>
</g>
<g>
	<path class="st23" d="M195.94,91.84l-4.27-13.77c2.26-1.59,3.36-4.52,2.49-7.3l-0.01-0.04c-1.07-3.44-4.74-5.38-8.19-4.31l-21.3,6.6
		c1.89-2.21,3.46-4.7,4.63-7.4c2.82-6.48,3.22-13.76,1.13-20.52l-3.51-11.33c1.88-1.44,2.77-3.95,2.02-6.35V27.4
		c-0.96-3.08-4.23-4.8-7.3-3.85L56.54,56.11c-3.07,0.95-4.8,4.22-3.84,7.29l0.01,0.03c0.74,2.4,2.89,3.97,5.25,4.1l3.51,11.33
		C63.56,85.61,68.01,91.4,74,95.14c2.5,1.57,5.2,2.73,8,3.49l-21.29,6.6c-3.45,1.06-5.39,4.74-4.32,8.19l0.01,0.03
		c0.86,2.78,3.42,4.58,6.19,4.61l4.26,13.77c5.68,18.33,25.2,28.61,43.53,22.94l3.69-1.15h0.01l55.21-17.1
		c0.01-0.01,0.01-0.01,0.02-0.01l3.69-1.15C191.33,129.69,201.61,110.16,195.94,91.84z M187.21,70.46c1.22-0.38,2.53,0.3,2.91,1.53
		l0.01,0.03c0.38,1.22-0.31,2.53-1.53,2.9l-33.01,10.23l-1.38-4.47l0.77-0.24h0.01L187.21,70.46z M162.88,27.58
		c0.84-0.26,1.75,0.22,2.01,1.07l0.01,0.03c0.26,0.84-0.21,1.75-1.06,2.01l-27.36,8.48l-0.97-3.11L162.88,27.58z M131.48,37.31
		l2.45,7.93c0.35,1.11,1.53,1.74,2.65,1.39c1.11-0.34,1.73-1.53,1.39-2.64l-0.25-0.79l25.26-7.82l3.41,10.98
		c1.79,5.78,1.45,12.02-0.97,17.57c-2.37,5.45-6.58,9.89-11.86,12.53l-5.05,1.56l-7.79-25.15c-0.35-1.12-1.53-1.74-2.64-1.39
		c-1.12,0.34-1.74,1.52-1.4,2.64l7.8,25.15l-42.29,13.1l-13-41.96L131.48,37.31z M58.75,63.24c-0.84,0.27-1.75-0.21-2.01-1.06
		l-0.01-0.03c-0.26-0.84,0.22-1.75,1.06-2.01l27.37-8.48l0.96,3.11L58.75,63.24z M76.24,91.56c-5.13-3.21-8.94-8.16-10.73-13.95
		l-3.4-10.98l25.26-7.83l10.79,34.82l-5.05,1.57C87.26,95.99,81.28,94.71,76.24,91.56z M109.12,150.73
		c-16.09,4.99-33.24-4.05-38.23-20.15l-4.18-13.47l23.04-7.14c1.11-0.34,1.74-1.52,1.39-2.64c-0.34-1.11-1.53-1.74-2.64-1.39
		l-25.16,7.79c-1.22,0.38-2.53-0.31-2.9-1.53l-0.02-0.03c-0.37-1.23,0.31-2.53,1.54-2.91l32.22-9.98h0.01l0.77-0.24l15.85,51.17
		L109.12,150.73z M114.85,148.96L99,97.79l51.17-15.86l2,6.46c0.01,0.01,0.01,0.02,0.01,0.03s0.01,0.02,0.01,0.03l13.83,44.65
		L114.85,148.96z M171.75,131.33l-1.69,0.52l-13.22-42.66l30.89-9.57l4.17,13.47C196.89,109.19,187.85,126.34,171.75,131.33z"/>
	<path class="st24" d="M166.39,46.36l-3.41-10.98l-25.26,7.82l0.25,0.79c0.34,1.11-0.28,2.3-1.39,2.64c-1.12,0.35-2.3-0.28-2.65-1.39
		l-2.45-7.93l-42.29,13.1l13,41.96l42.29-13.1l-7.8-25.15c-0.34-1.12,0.28-2.3,1.4-2.64c1.11-0.35,2.29,0.27,2.64,1.39l7.79,25.15
		l5.05-1.56c5.28-2.64,9.49-7.08,11.86-12.53C167.84,58.38,168.18,52.14,166.39,46.36z M101.96,64.88c-0.35-1.12,0.27-2.3,1.39-2.65
		l11.57-3.58c1.11-0.35,2.3,0.28,2.64,1.39c0.35,1.11-0.28,2.3-1.39,2.64l-11.57,3.59C103.49,66.61,102.3,65.99,101.96,64.88z
		 M120.96,78.16l-11.57,3.58c-1.11,0.35-2.29-0.28-2.64-1.39c-0.34-1.12,0.28-2.3,1.39-2.64l11.57-3.59c1.12-0.34,2.3,0.28,2.65,1.4
		C122.7,76.63,122.08,77.81,120.96,78.16z M125.2,50.91l-23.14,7.16c-1.11,0.35-2.3-0.27-2.64-1.39c-0.35-1.11,0.28-2.3,1.39-2.64
		l23.14-7.17c1.11-0.35,2.3,0.28,2.64,1.39C126.94,49.38,126.31,50.56,125.2,50.91z"/>
	<path class="st24" d="M98.16,93.62l-5.05,1.57c-5.85,0.8-11.83-0.48-16.87-3.63c-5.13-3.21-8.94-8.16-10.73-13.95l-3.4-10.98
		l25.26-7.83L98.16,93.62z"/>
	<path class="st24" d="M110.81,150.21l-1.69,0.52c-16.09,4.99-33.24-4.05-38.23-20.15l-4.18-13.47l23.04-7.14
		c1.11-0.34,1.74-1.52,1.39-2.64c-0.34-1.11-1.53-1.74-2.64-1.39l-25.16,7.79c-1.22,0.38-2.53-0.31-2.9-1.53l-0.02-0.03
		c-0.37-1.23,0.31-2.53,1.54-2.91l32.22-9.98h0.01l0.77-0.24L110.81,150.21z"/>
	<path class="st24" d="M152.19,88.45c0-0.01-0.01-0.02-0.01-0.03s0-0.02-0.01-0.03l-2-6.46L99,97.79l15.85,51.17l51.17-15.86
		L152.19,88.45z M126.13,111.48l-11.56,3.58c-1.12,0.35-2.3-0.28-2.65-1.39c-0.34-1.12,0.28-2.3,1.4-2.64l11.56-3.59
		c1.12-0.34,2.3,0.28,2.65,1.4C127.87,109.95,127.25,111.13,126.13,111.48z M135.16,99.7l-23.13,7.17c-1.12,0.34-2.3-0.28-2.65-1.39
		c-0.34-1.12,0.28-2.3,1.4-2.65l23.13-7.17c1.12-0.34,2.3,0.28,2.65,1.4C136.9,98.17,136.28,99.35,135.16,99.7z"/>
	<path class="st24" d="M171.75,131.33l-1.69,0.52l-13.22-42.66l30.89-9.57l4.17,13.47C196.89,109.19,187.85,126.34,171.75,131.33z"/>
	<path class="st23" d="M135.16,99.7l-23.13,7.17c-1.12,0.34-2.3-0.28-2.65-1.39c-0.34-1.12,0.28-2.3,1.4-2.65l23.13-7.17
		c1.12-0.34,2.3,0.28,2.65,1.4C136.9,98.17,136.28,99.35,135.16,99.7z"/>
	<path class="st23" d="M126.13,111.48l-11.56,3.58c-1.12,0.35-2.3-0.28-2.65-1.39c-0.34-1.12,0.28-2.3,1.4-2.64l11.56-3.59
		c1.12-0.34,2.3,0.28,2.65,1.4C127.87,109.95,127.25,111.13,126.13,111.48z"/>
	<path class="st23" d="M125.2,50.91l-23.14,7.16c-1.11,0.35-2.3-0.27-2.64-1.39c-0.35-1.11,0.28-2.3,1.39-2.64l23.14-7.17
		c1.11-0.35,2.3,0.28,2.64,1.39C126.94,49.38,126.31,50.56,125.2,50.91z"/>
	<path class="st23" d="M116.17,62.68l-11.57,3.59c-1.11,0.34-2.3-0.28-2.64-1.39c-0.35-1.12,0.27-2.3,1.39-2.65l11.57-3.58
		c1.11-0.35,2.3,0.28,2.64,1.39C117.91,61.15,117.28,62.34,116.17,62.68z"/>
	<path class="st23" d="M120.96,78.16l-11.57,3.58c-1.11,0.35-2.29-0.28-2.64-1.39c-0.34-1.12,0.28-2.3,1.39-2.64l11.57-3.59
		c1.12-0.34,2.3,0.28,2.65,1.4C122.7,76.63,122.08,77.81,120.96,78.16z"/>
	<path class="st25" d="M193.94,90.84l-4.27-13.77c2.26-1.59,3.36-4.52,2.49-7.3l-0.01-0.04c-1.07-3.44-4.74-5.38-8.19-4.31l-21.3,6.6
		c1.89-2.21,3.46-4.7,4.63-7.4c2.82-6.48,3.22-13.76,1.13-20.52l-3.51-11.33c1.88-1.44,2.77-3.95,2.02-6.35V26.4
		c-0.96-3.08-4.23-4.8-7.3-3.85L54.54,55.11c-3.07,0.95-4.8,4.22-3.84,7.29l0.01,0.03c0.74,2.4,2.89,3.97,5.25,4.1l3.51,11.33
		C61.56,84.61,66.01,90.4,72,94.14c2.5,1.57,5.2,2.73,8,3.49l-21.29,6.6c-3.45,1.06-5.39,4.74-4.32,8.19l0.01,0.03
		c0.86,2.78,3.42,4.58,6.19,4.61l4.26,13.77c5.68,18.33,25.2,28.61,43.53,22.94l3.69-1.15h0.01l55.21-17.1
		c0.01-0.01,0.01-0.01,0.02-0.01l3.69-1.15C189.33,128.69,199.61,109.16,193.94,90.84z M185.21,69.46c1.22-0.38,2.53,0.3,2.91,1.53
		l0.01,0.03c0.38,1.22-0.31,2.53-1.53,2.9l-33.01,10.23l-1.38-4.47l0.77-0.24h0.01L185.21,69.46z M160.88,26.58
		c0.84-0.26,1.75,0.22,2.01,1.07l0.01,0.03c0.26,0.84-0.21,1.75-1.06,2.01l-27.36,8.48l-0.97-3.11L160.88,26.58z M129.48,36.31
		l2.45,7.93c0.35,1.11,1.53,1.74,2.65,1.39c1.11-0.34,1.73-1.53,1.39-2.64l-0.25-0.79l25.26-7.82l3.41,10.98
		c1.79,5.78,1.45,12.02-0.97,17.57c-2.37,5.45-6.58,9.89-11.86,12.53l-5.05,1.56l-7.79-25.15c-0.35-1.12-1.53-1.74-2.64-1.39
		c-1.12,0.34-1.74,1.52-1.4,2.64l7.8,25.15l-42.29,13.1l-13-41.96L129.48,36.31z M56.75,62.24c-0.84,0.27-1.75-0.21-2.01-1.06
		l-0.01-0.03c-0.26-0.84,0.22-1.75,1.06-2.01l27.37-8.48l0.96,3.11L56.75,62.24z M74.24,90.56c-5.13-3.21-8.94-8.16-10.73-13.95
		l-3.4-10.98l25.26-7.83l10.79,34.82l-5.05,1.57C85.26,94.99,79.28,93.71,74.24,90.56z M107.12,149.73
		c-16.09,4.99-33.24-4.05-38.23-20.15l-4.18-13.47l23.04-7.14c1.11-0.34,1.74-1.52,1.39-2.64c-0.34-1.11-1.53-1.74-2.64-1.39
		l-25.16,7.79c-1.22,0.38-2.53-0.31-2.9-1.53l-0.02-0.03c-0.37-1.23,0.31-2.53,1.54-2.91l32.22-9.98h0.01l0.77-0.24l15.85,51.17
		L107.12,149.73z M112.85,147.96L97,96.79l51.17-15.86l2,6.46c0.01,0.01,0.01,0.02,0.01,0.03s0.01,0.02,0.01,0.03l13.83,44.65
		L112.85,147.96z M169.75,130.33l-1.69,0.52l-13.22-42.66l30.89-9.57l4.17,13.47C194.89,108.19,185.85,125.34,169.75,130.33z"/>
</g>
</svg>
