<?xml version="1.0" encoding="utf-8"?>
<!-- Generator: Adobe Illustrator 23.1.0, SVG Export Plug-In . SVG Version: 6.00 Build 0)  -->
<svg version="1.1" id="圖層_1" xmlns="http://www.w3.org/2000/svg" xmlns:xlink="http://www.w3.org/1999/xlink" x="0px" y="0px"
	 viewBox="0 0 343 134" style="enable-background:new 0 0 343 134;" xml:space="preserve">
<style type="text/css">
	
		.st0{opacity:0.74;fill:#FFF9D9;stroke:#F7C93D;stroke-width:1.1344;stroke-linecap:round;stroke-linejoin:round;stroke-miterlimit:10;enable-background:new    ;}
	
		.st1{opacity:0.74;fill:none;stroke:#F7C93D;stroke-width:1.1344;stroke-linecap:round;stroke-linejoin:round;stroke-miterlimit:10;enable-background:new    ;}
</style>
<path class="st0" d="M291.7,113H58.6c-16.7,0-30.3-13.6-30.3-30.3V49.2c0-16.7,13.6-30.3,30.3-30.3h233.1
	c16.7,0,30.3,13.6,30.3,30.3v33.5C322,99.4,308.4,113,291.7,113z"/>
<path class="st1" d="M281.5,107H48.3c-16.7,0-30.3-13.6-30.3-30.3V43.3C18.1,26.6,31.6,13,48.3,13h233.1c16.7,0,30.3,13.6,30.3,30.3
	v33.5C311.7,93.5,298.2,107,281.5,107z"/>
<g>
	<path d="M117.6,51.3v27.6h-1v-6.7c-3,0.5-5.9,1-8.2,1.4l-0.2-1c0.7-0.1,1.5-0.2,2.3-0.3V51.3h-2.1v-1h10.9v1H117.6z M116.7,51.3
		h-5.1v5.9h5.1V51.3z M116.7,58.1h-5.1v6.1h5.1V58.1z M111.6,72c1.6-0.3,3.3-0.6,5.1-0.9v-6h-5.1V72z M126.6,58.9
		c0.7,1.8,1.5,4.1,1.8,5.4l-0.9,0.4c-0.1-0.5-0.3-1.2-0.6-2c-6.3,0.7-7.1,0.9-7.6,1.1c-0.1-0.3-0.2-0.8-0.4-1.1
		c0.5-0.1,1.2-0.8,1.9-1.7c0.5-0.6,1.8-2.2,3.1-4.2c-3.3,0.2-4,0.3-4.3,0.4c0-0.2-0.2-0.8-0.3-1c0.4,0,0.8-0.5,1.3-1.2
		c0.5-0.7,2.3-3.3,3.2-5.9l1,0.5c-1.1,2.3-2.4,4.6-3.7,6.4l3.5-0.1c0.6-0.9,1.1-1.9,1.6-2.9l0.9,0.5c-1.9,3.3-4.1,6.5-6.3,9l5.6-0.6
		c-0.3-0.9-0.6-1.8-0.9-2.6L126.6,58.9z M126.4,65h1v5.4c0,3-0.9,6.5-5.4,8.8c-0.2-0.2-0.5-0.6-0.7-0.7c3.7-1.9,4.8-4.4,5-6.8h-5V65
		h1v5.7h4.1v-0.3V65z M137.7,64.4c-0.2-0.5-0.4-1.2-0.7-2c-6.4,0.7-7.2,0.8-7.7,1c-0.1-0.3-0.2-0.8-0.4-1.1c0.5,0,1.1-0.7,1.8-1.6
		c0.5-0.6,1.6-2.1,2.8-4.1c-3.2,0.2-3.9,0.3-4.2,0.5c-0.1-0.2-0.2-0.8-0.4-1.1c0.4-0.1,0.8-0.5,1.2-1.1c0.5-0.7,2.2-3.3,3.1-5.8
		l1,0.4c-1,2.3-2.3,4.6-3.6,6.3l3.4-0.1c0.5-0.9,1-1.8,1.4-2.7l1,0.5c-1.7,3.1-3.6,6.3-5.6,8.6l5.8-0.6c-0.4-1-0.8-2-1.3-2.9
		l0.8-0.2c0.9,1.8,1.9,4.3,2.4,5.7L137.7,64.4z M135.5,65.3h1v7.7h-1v-1.4h-4v7.4h-1v-14h1v5.7h4V65.3z"/>
	<path d="M144.5,69.8c-0.5,2.8-1.2,6-1.9,8.1c-0.2-0.1-0.7-0.3-0.9-0.4c0.8-2.2,1.4-5.1,1.9-7.9L144.5,69.8z M150.8,61.1
		c1,2.2,2,5.2,2.4,6.9l-1,0.3c-0.1-0.6-0.3-1.4-0.6-2.2c-7.8,1.2-8.7,1.4-9.2,1.7c-0.1-0.3-0.2-0.8-0.3-1.1c0.5-0.1,1.4-1,2.3-2.2
		c0.6-0.7,2.1-2.6,3.7-4.9c-4.8,0.6-5.5,0.7-5.9,0.9c-0.1-0.3-0.2-0.8-0.4-1.1c0.5-0.1,1.1-0.8,1.9-1.8c0.8-1,3.4-5,5.1-8.8l1,0.5
		c-1.8,3.6-3.9,7.1-6.1,9.9l5-0.5c1-1.4,1.9-2.9,2.7-4.4l1,0.5c-2.6,4.3-5.5,8.6-8.4,11.7l7.2-1c-0.4-1.3-0.9-2.7-1.5-3.9
		L150.8,61.1z M147.9,69.5c0.4,2.3,0.8,5.3,0.9,7.3l-1,0.1c-0.1-1.9-0.5-5-0.9-7.3L147.9,69.5z M151.1,68.8c0.8,2,1.6,4.5,1.9,6.3
		l-0.9,0.2c-0.3-1.7-1.1-4.3-1.9-6.3L151.1,68.8z M170.1,52.8c-1.3,3.1-3.4,6-5.8,8.3c2.2,2.1,4.9,4,7.9,5.3
		c-0.2,0.2-0.5,0.6-0.7,0.8c-3-1.3-5.7-3.3-7.9-5.5c-2.2,2.1-4.7,3.7-7.1,4.9h13.6v11.7h-1v-1.1h-11.8v1.2h-1V66.8
		c-0.6,0.3-1.1,0.5-1.6,0.7c-0.1-0.2-0.4-0.6-0.6-0.8c2.8-1.1,6.1-3.1,8.8-5.7c-1.9-2-3.5-4.2-4.5-6.1c-1.2,1.6-2.6,3-4,4.2
		c-0.2-0.2-0.6-0.5-0.8-0.7c3.2-2.4,6-6,7.7-10l1,0.3c-0.6,1.3-1.2,2.6-2,3.7h9l0.2-0.1L170.1,52.8z M157.4,67.7v8.6h11.8v-8.6
		H157.4z M159.6,53.5c-0.1,0.2-0.3,0.5-0.5,0.7c1.1,2,2.6,4.2,4.6,6.3c2.1-2,3.9-4.4,5-7H159.6z"/>
	<path d="M202.9,62.3c-1.5,2.9-3.7,5.9-6.2,8.5c1.5,4.5,3.6,7.1,6,7.1c1.1,0,1.6-1.8,1.8-6.5c0.2,0.2,0.6,0.4,0.9,0.4
		c-0.3,5.2-0.8,7-2.8,7c-2.8,0-5.1-2.7-6.7-7.4c-2.4,2.3-5.1,4.3-8,5.8c-0.2-0.2-0.5-0.5-0.8-0.7c3-1.5,5.9-3.7,8.4-6.2
		c-0.9-2.9-1.6-6.5-2-10.5h-8.9v7l6.8-1.7l0.1,0.9l-6.9,1.8V77c0,1.1-0.4,1.5-1.1,1.7c-0.8,0.2-2.4,0.2-5.2,0.2
		c-0.1-0.3-0.3-0.7-0.4-1c2.4,0.1,4.4,0,4.9,0c0.6,0,0.8-0.2,0.8-0.8v-9c-2.9,0.8-5.7,1.5-7.9,2l-0.5-1c2.2-0.5,5.1-1.2,8.4-2v-7.2
		h-8v-1h8v-7c-2.3,0.5-4.8,1-7.1,1.4c-0.1-0.2-0.2-0.5-0.4-0.8c4.7-0.8,10.3-2.1,13.3-3.3l0.8,0.8c-1.5,0.6-3.5,1.2-5.7,1.7v7.2h8.8
		c-0.3-3.1-0.5-6.5-0.5-10h1c0,3.6,0.2,7,0.5,10H205v1h-10.5c0.4,3.8,1,7.1,1.8,9.8c2.3-2.4,4.2-5.1,5.6-7.8L202.9,62.3z M202.8,56
		c-1.2-1.6-3.6-4.1-5.8-6l0.8-0.5c2.1,1.8,4.5,4.2,5.8,5.8L202.8,56z"/>
	<path d="M216.5,49.1c-0.7,2.3-1.7,4.5-2.7,6.7v23h-1V57.7c-1.3,2.4-2.8,4.6-4.3,6.4c-0.1-0.2-0.5-0.6-0.7-0.8
		c3.1-3.5,6-8.9,7.8-14.4L216.5,49.1z M226.3,62.3h-7.6v16.4h-1v-28h8.5V62.3z M218.7,51.7v4.1h6.6v-4.1H218.7z M225.3,61.3v-4.4
		h-6.6v4.4H225.3z M237.6,76.9c0,1.1-0.4,1.6-1.2,1.7c-0.9,0.2-2.7,0.2-5.9,0.2c-0.1-0.3-0.3-0.7-0.5-1c2.7,0.1,5,0,5.7,0
		c0.6,0,0.9-0.2,0.9-0.9V62.3h-7.9V50.7h8.9V76.9z M229.7,51.7v4.1h6.9v-4.1H229.7z M236.6,61.3v-4.4h-6.9v4.4H236.6z"/>
</g>
</svg>
