<?xml version="1.0" encoding="utf-8"?>
<!-- Generator: Adobe Illustrator 23.1.0, SVG Export Plug-In . SVG Version: 6.00 Build 0)  -->
<svg version="1.1" id="圖層_1" xmlns="http://www.w3.org/2000/svg" xmlns:xlink="http://www.w3.org/1999/xlink" x="0px" y="0px"
	 viewBox="0 0 343 134" style="enable-background:new 0 0 343 134;" xml:space="preserve">
<style type="text/css">
	
		.st0{opacity:0.74;fill:#FFF9D9;stroke:#F7C93D;stroke-width:1.1344;stroke-linecap:round;stroke-linejoin:round;stroke-miterlimit:10;enable-background:new    ;}
	
		.st1{opacity:0.74;fill:none;stroke:#F7C93D;stroke-width:1.1344;stroke-linecap:round;stroke-linejoin:round;stroke-miterlimit:10;enable-background:new    ;}
</style>
<path class="st0" d="M291.7,113H58.6c-16.7,0-30.3-13.6-30.3-30.3V49.2c0-16.7,13.6-30.3,30.3-30.3h233.1
	c16.7,0,30.3,13.6,30.3,30.3v33.5C322,99.4,308.4,113,291.7,113z"/>
<path class="st1" d="M281.5,107H48.3c-16.7,0-30.3-13.6-30.3-30.3V43.3C18.1,26.6,31.6,13,48.3,13h233.1c16.7,0,30.3,13.6,30.3,30.3
	v33.5C311.7,93.5,298.2,107,281.5,107z"/>
<g>
	<path d="M112.3,61.1v7.2c0,3.4-0.5,7.8-3.4,10.8c-0.1-0.2-0.5-0.6-0.7-0.7c2.8-2.9,3.1-6.9,3.1-10.1v-8.1H138v1H112.3z M136.8,53.1
		h-25.4v-1h13.2c-0.6-1-1.6-2.3-2.4-3.2l0.9-0.5c1.1,1.1,2.2,2.7,2.8,3.7h10.9V53.1z M138.5,76.5v1h-25.2v-1h11.9v-4.9h-8.6v-1h8.6
		v-4.3h-8.5c-0.9,1.5-1.9,2.8-2.9,3.9c-0.2-0.1-0.6-0.4-0.9-0.5c2-2,3.7-4.8,4.8-7.7l0.9,0.2c-0.4,1.1-0.9,2.1-1.4,3.2h8v-3.6h1v3.6
		h9.9v1h-9.9v4.3h9.3v1h-9.3v4.9H138.5z M133.3,60c-2-0.8-5-1.9-8.2-3c-3.3,1.2-6.9,2.2-10,2.9c-0.1-0.2-0.4-0.7-0.6-0.8
		c2.8-0.6,6.2-1.5,9.2-2.6c-2.8-0.9-5.8-1.8-8.5-2.5l0.8-0.8c2.8,0.7,6.1,1.7,9.2,2.7c2.5-0.9,4.8-1.9,6.4-2.9l0.9,0.6
		c-1.7,1-3.7,1.9-6,2.8c2.9,1,5.5,1.9,7.4,2.7L133.3,60z"/>
	<path d="M143.4,64.7h11v13.7h-1v-1.6h-9.1v2h-1V64.7z M144.3,65.7v10.2h9.1V65.7H144.3z M165.5,60.3h-17V50.2h17V60.3z M164.5,51.1
		h-15v8.2h15V51.1z M170.7,64.7v13.8h-1v-1.7h-9.9v2h-1V64.7H170.7z M169.8,75.9V65.7h-9.9v10.2H169.8z"/>
	<path d="M187.4,67.8c-4.3,1.5-8.8,3.1-11.9,4.3l-0.4-1c1.5-0.5,3.4-1.1,5.5-1.9V53.8h-5v-1h11.2v1h-5.2v15c1.8-0.6,3.7-1.3,5.6-2
		L187.4,67.8z M193.4,74.5c-2.1,1.7-5.5,3.4-8.5,4.3c-0.1-0.2-0.5-0.6-0.7-0.8c2.9-1,6.4-2.6,8.1-4.1L193.4,74.5z M194.3,55.8
		c0.4-1.2,0.9-2.9,1.2-4.3h-8.8v-1h18.8v1h-8.9c-0.4,1.4-0.8,3-1.2,4.3h8.8v17.1h-15.5V55.8H194.3z M203.1,56.8h-13.5v4.3h13.5V56.8
		z M203.1,62.1h-13.5v4.4h13.5V62.1z M203.1,67.4h-13.5v4.4h13.5V67.4z M199.2,74c2.4,1.1,5.3,2.9,6.9,4.2l-0.8,0.7
		c-1.5-1.2-4.4-3.1-6.9-4.2L199.2,74z"/>
	<path d="M234.4,51v27.7h-1v-2.5h-19.6v2.5h-1V51H234.4z M213.8,52v7.1h19.6V52H213.8z M213.8,60v7.1h19.6V60H213.8z M233.5,75.3
		v-7.2h-19.6v7.2H233.5z"/>
</g>
</svg>
