<?xml version="1.0" encoding="utf-8"?>
<!-- Generator: Adobe Illustrator 23.1.0, SVG Export Plug-In . SVG Version: 6.00 Build 0)  -->
<svg version="1.1" id="圖層_1" xmlns="http://www.w3.org/2000/svg" xmlns:xlink="http://www.w3.org/1999/xlink" x="0px" y="0px"
	 viewBox="0 0 343 134" style="enable-background:new 0 0 343 134;" xml:space="preserve">
<style type="text/css">
	
		.st0{opacity:0.74;fill:#FFF9D9;stroke:#F7C93D;stroke-width:1.1344;stroke-linecap:round;stroke-linejoin:round;stroke-miterlimit:10;enable-background:new    ;}
	
		.st1{opacity:0.74;fill:none;stroke:#F7C93D;stroke-width:1.1344;stroke-linecap:round;stroke-linejoin:round;stroke-miterlimit:10;enable-background:new    ;}
</style>
<path class="st0" d="M291.7,113H58.6c-16.7,0-30.3-13.6-30.3-30.3V49.2c0-16.7,13.6-30.3,30.3-30.3h233.1
	c16.7,0,30.3,13.6,30.3,30.3v33.5C322,99.4,308.4,113,291.7,113z"/>
<path class="st1" d="M281.5,107H48.3C31.6,107,18,93.4,18,76.7V43.3C18.1,26.6,31.6,13,48.3,13h233.1c16.7,0,30.3,13.6,30.3,30.3
	v33.5C311.7,93.5,298.2,107,281.5,107z"/>
<g>
	<path d="M113.64,66.2c-4.37,1.28-8.94,2.67-12.16,3.64l-0.31-1.07c1.59-0.45,3.64-1.04,5.89-1.66v-9.98h-4.92v-1h4.92v-8.73h-5.44
		v-1h11.64v1h-5.2v8.73h4.92v1h-4.92v9.67l5.44-1.59L113.64,66.2z M130.86,74.58c0.97,0,1.14-0.52,1.25-4.16
		c0.24,0.17,0.66,0.35,0.97,0.42c-0.1,3.81-0.45,4.71-2.11,4.71h-4.12c-1.8,0-2.29-0.31-2.29-1.84v-8.7h-4.71
		c-0.8,5.44-2.95,9.08-9.04,11.02c-0.14-0.24-0.49-0.66-0.69-0.83c5.93-1.77,7.97-5.23,8.7-10.19h-3.67V46.34h15.59v18.68h-5.16v8.7
		c0,0.69,0.21,0.87,1.32,0.87H130.86z M116.13,52.17h13.55v-4.82h-13.55V52.17z M116.13,58.06h13.55V53.2h-13.55V58.06z
		 M116.13,63.98h13.55v-4.92h-13.55V63.98z"/>
	<path d="M146.59,63.81c-3.6,1.77-7.45,3.64-10.26,5.02l-0.48-1c1.42-0.62,3.19-1.49,5.16-2.43V53.38h-4.61v-1.04h4.61v-7.59h1.04
		v7.59h4.3v1.04h-4.3v11.5l4.3-2.08L146.59,63.81z M152.41,60.17c-0.59,1.11-1.28,2.18-2.04,3.19h15.87c0,0-0.03,0.45-0.07,0.66
		c-0.59,7.59-1.14,10.22-2.08,11.19c-0.45,0.45-0.94,0.55-1.7,0.59c-0.69,0-2.04,0-3.36-0.1c0-0.28-0.1-0.73-0.28-1
		c1.52,0.14,2.91,0.17,3.43,0.17c0.52,0,0.83-0.03,1.07-0.35c0.76-0.69,1.32-3.33,1.87-10.15h-4.12c-1.32,4.51-4.09,9.25-7.21,11.61
		c-0.17-0.24-0.55-0.52-0.87-0.66c2.98-2.15,5.75-6.65,7.14-10.95h-4.64c-1.84,3.92-5.37,8-8.77,10.15
		c-0.17-0.24-0.49-0.55-0.76-0.76c3.19-1.84,6.65-5.72,8.49-9.39h-4.82v-0.03c-1.56,1.84-3.33,3.43-5.09,4.64
		c-0.14-0.17-0.52-0.55-0.8-0.73c3.01-1.94,5.86-4.78,7.62-8.07h-5.79v-1.04h21.73v1.04H152.41z M164.68,56.57h-15.39V45.82h15.39
		V56.57z M163.68,46.83h-13.34v3.81h13.34V46.83z M163.68,51.68h-13.34v3.85h13.34V51.68z"/>
	<path d="M174.9,68.59c-0.76,2.77-2.08,5.44-3.6,7.24c-0.17-0.17-0.62-0.55-0.87-0.73c1.52-1.7,2.74-4.16,3.4-6.72L174.9,68.59z
		 M181.07,67.2h-9.01V45.96h9.01V67.2z M180.07,46.97h-6.96v5.68h6.96V46.97z M180.07,53.66h-6.96v5.72h6.96V53.66z M180.07,60.41
		h-6.96v5.75h6.96V60.41z M179.34,68.38c1.07,1.59,2.29,3.74,2.77,5.09l-0.94,0.49c-0.52-1.39-1.66-3.54-2.7-5.13L179.34,68.38z
		 M202,69.94h-2.53v4.26c0,0.83-0.24,1.21-0.9,1.42c-0.76,0.17-2.29,0.14-5.02,0.14c-0.07-0.24-0.24-0.62-0.42-0.9
		c2.29,0.04,4.16,0.04,4.64,0c0.52-0.03,0.69-0.14,0.69-0.62v-4.3H185.3v5.89h-1.04v-5.89h-2.6V68.9h2.6v-8.98h6.96v-2.74h-9.46v-1
		h5.65v-3.26h-3.64v-1h3.64v-2.95h-4.64v-1h4.64v-3.29h1.04v3.29h6.76v-3.29h1v3.29h4.75v1h-4.75v2.95h4.12v1h-4.12v3.26h5.58v1
		h-9.56v2.74h7.24v8.98H202V69.94z M185.3,60.93v3.43h5.92v-3.43H185.3z M185.3,68.9h5.92v-3.5h-5.92V68.9z M188.45,51.92h6.76
		v-2.95h-6.76V51.92z M188.45,56.19h6.76v-3.26h-6.76V56.19z M192.23,60.93v3.43h6.24v-3.43H192.23z M198.47,68.9v-3.5h-6.24v3.5
		H198.47z"/>
	<path d="M217.08,71.88c-2.77,1.56-7.07,3.08-10.46,4.02c-0.14-0.21-0.52-0.66-0.76-0.87c3.47-0.83,7.66-2.18,10.29-3.6
		L217.08,71.88z M234.16,46.41v6.86H208v-6.86H234.16z M209,52.23h7.14v-4.82H209V52.23z M232.08,55.84v14.62h-21.9V55.84H232.08z
		 M211.22,60.34h19.86v-3.47h-19.86V60.34z M211.22,64.85h19.86v-3.5h-19.86V64.85z M211.22,69.42h19.86v-3.57h-19.86V69.42z
		 M217.15,52.23h7.42v-4.82h-7.42V52.23z M225.53,71.5c3.98,1.11,8.11,2.53,10.67,3.71l-0.9,0.73c-2.46-1.11-6.45-2.53-10.53-3.74
		L225.53,71.5z M225.57,52.23h7.59v-4.82h-7.59V52.23z"/>
</g>
</svg>
