<?xml version="1.0" encoding="utf-8"?>
<!-- Generator: Adobe Illustrator 23.1.0, SVG Export Plug-In . SVG Version: 6.00 Build 0)  -->
<svg version="1.1" id="wewe" xmlns="http://www.w3.org/2000/svg" xmlns:xlink="http://www.w3.org/1999/xlink" x="0px" y="0px"
	 viewBox="0 0 1304.53 566.65" 
	 preserveAspectRatio="none"
	 style="enable-background:new 0 0 1304.53 566.65;" xml:space="preserve">
<style type="text/css">
	.st0{opacity:0.51;fill:#4D4D4D;}
	.st1{opacity:0.82;fill:#FFFFFF;}
	.st2{opacity:0.82;fill:none;stroke:#666666;stroke-width:8.0038;stroke-linecap:round;stroke-linejoin:round;stroke-miterlimit:10;}
</style>
<path class="st0" d="M1192.53,436.69H745.48c-12.5,0-23.9,7.11-29.4,18.34l-44.13,90.08l-44.13-90.08
	c-5.5-11.22-16.91-18.34-29.4-18.34H151.36c-35.98,0-65.14-29.17-65.14-65.14V159.86c0-35.98,29.17-65.14,65.14-65.14h1041.17
	c35.98,0,65.14,29.17,65.14,65.14v211.69C1257.68,407.53,1228.51,436.69,1192.53,436.69z"/>
<path class="st1" d="M1180.89,411.95H733.84c-12.5,0-23.9,7.11-29.4,18.34l-44.13,90.08l-44.13-90.08
	c-5.5-11.22-16.91-18.34-29.4-18.34H139.72c-35.98,0-65.14-29.17-65.14-65.14V135.12c0-35.98,29.17-65.14,65.14-65.14h1041.17
	c35.98,0,65.14,29.17,65.14,65.14v211.69C1246.03,382.79,1216.87,411.95,1180.89,411.95z"/>
<path class="st2" d="M1168.89,403.59H721.83c-12.5,0-23.9,7.11-29.4,18.34L648.3,512l-44.13-90.08
	c-5.5-11.22-16.91-18.34-29.4-18.34H127.71c-35.98,0-65.14-29.17-65.14-65.14V126.75c0-35.98,29.17-65.14,65.14-65.14h1041.17
	c35.98,0,65.14,29.17,65.14,65.14v211.69C1234.03,374.42,1204.86,403.59,1168.89,403.59z"/>
</svg>
