<?xml version="1.0" encoding="utf-8"?>
<!-- Generator: Adobe Illustrator 23.1.0, SVG Export Plug-In . SVG Version: 6.00 Build 0)  -->
<svg version="1.1" id="wewe" xmlns="http://www.w3.org/2000/svg" xmlns:xlink="http://www.w3.org/1999/xlink" x="0px" y="0px"
	 viewBox="0 0 1019.7 971.4" style="enable-background:new 0 0 1019.7 971.4;" xml:space="preserve">
<style type="text/css">
	.st0{opacity:0.51;fill:#4D4D4D;}
	.st1{opacity:0.82;fill:#FFFFFF;}
	
		.st2{opacity:0.82;fill:none;stroke:#666666;stroke-width:9.7029;stroke-linecap:round;stroke-linejoin:round;stroke-miterlimit:10;}
</style>
<path class="st0" d="M980.7,254.1v461c0,49.5-40.5,90-90,90H581.2l-55.3,138.7l-57.7-138.7H163.1c-49.5,0-90-40.5-90-90v-461
	c0-49.5,40.5-90,90-90h727.6C940.2,164.1,980.7,204.6,980.7,254.1z"/>
<path class="st1" d="M960.6,237v461c0,49.5-40.5,90-90,90H561l-55.3,138.7l-57.7-138.7H142.9c-49.5,0-90-40.5-90-90V237
	c0-49.5,40.5-90,90-90h727.6C920.1,147.1,960.6,187.6,960.6,237z"/>
<path class="st2" d="M946.6,214.7v461c0,49.5-40.5,90-90,90H547.1l-55.3,138.7l-57.7-138.7H129c-49.5,0-90-40.5-90-90v-461
	c0-49.5,40.5-90,90-90h727.6C906.1,124.7,946.6,165.2,946.6,214.7z"/>
</svg>
