<svg id="bad2cfc7-95c2-4fb1-bc2c-fbff239383aa" data-name="圖層 1" xmlns="http://www.w3.org/2000/svg" viewBox="0 0 50 50"><defs><style>.eb7f94cc-3bcf-44bb-a984-fcfbabfd31ce{fill:#00a99d;}</style></defs><title>li</title><path class="eb7f94cc-3bcf-44bb-a984-fcfbabfd31ce" d="M30.23,12.35a13.18,13.18,0,0,0-8.88,3.41,8.88,8.88,0,1,0-3.87,13.78,13.39,13.39,0,0,0,.66,1.73A7,7,0,1,0,28.72,38.9a13.32,13.32,0,1,0,1.51-26.55ZM6.75,21.23a7.61,7.61,0,0,1,13.69-4.57,13.17,13.17,0,0,0-3.53,9,13.56,13.56,0,0,0,.26,2.63A7.59,7.59,0,0,1,6.75,21.23ZM22,42.81a5.72,5.72,0,1,1,5.71-5.71A5.71,5.71,0,0,1,22,42.81Zm8.25-5.08a11.17,11.17,0,0,1-1.29-.08c0-.18,0-.37,0-.55a7,7,0,0,0-9.7-6.43,12.49,12.49,0,0,1-.74-2.13,12.06,12.06,0,1,1,11.71,9.19Z"/><path class="eb7f94cc-3bcf-44bb-a984-fcfbabfd31ce" d="M11.19,34.56a.63.63,0,1,0-1.26,0A1.91,1.91,0,0,1,8,36.46a.64.64,0,0,0-.63.64.63.63,0,0,0,.63.63,1.91,1.91,0,0,1,1.91,1.91.63.63,0,0,0,1.26,0,1.91,1.91,0,0,1,1.91-1.91.63.63,0,0,0,.63-.63.64.64,0,0,0-.63-.64A1.91,1.91,0,0,1,11.19,34.56Zm-.63,3.19a3.33,3.33,0,0,0-.65-.65,3.69,3.69,0,0,0,.65-.66,3.13,3.13,0,0,0,.65.66A2.86,2.86,0,0,0,10.56,37.75Z"/><path class="eb7f94cc-3bcf-44bb-a984-fcfbabfd31ce" d="M36.58,11.71a.64.64,0,0,0,.63.64.64.64,0,0,0,.64-.64,1.9,1.9,0,0,1,1.9-1.9.64.64,0,0,0,.64-.64.64.64,0,0,0-.64-.63,1.9,1.9,0,0,1-1.9-1.91A.64.64,0,0,0,37.21,6a.63.63,0,0,0-.63.63,1.9,1.9,0,0,1-1.9,1.91.63.63,0,0,0-.64.63.64.64,0,0,0,.64.64A1.9,1.9,0,0,1,36.58,11.71Zm.63-3.19a3.13,3.13,0,0,0,.66.65,3.44,3.44,0,0,0-.66.66,3.13,3.13,0,0,0-.65-.66A2.86,2.86,0,0,0,37.21,8.52Z"/><path class="eb7f94cc-3bcf-44bb-a984-fcfbabfd31ce" d="M38.48,25.67a1.9,1.9,0,0,1-1.9-1.9.64.64,0,1,0-1.27,0,1.9,1.9,0,0,1-1.9,1.9.64.64,0,0,0-.64.64.64.64,0,0,0,.64.63,1.91,1.91,0,0,1,1.9,1.91.64.64,0,0,0,1.27,0,1.91,1.91,0,0,1,1.9-1.91.64.64,0,0,0,.64-.63A.64.64,0,0,0,38.48,25.67ZM35.94,27a2.86,2.86,0,0,0-.65-.65,3.13,3.13,0,0,0,.65-.66,3.44,3.44,0,0,0,.66.66A3.13,3.13,0,0,0,35.94,27Z"/><path class="eb7f94cc-3bcf-44bb-a984-fcfbabfd31ce" d="M31.5,20.6a.64.64,0,0,0-.63-.64A1.91,1.91,0,0,1,29,18.06a.64.64,0,0,0-.63-.64.64.64,0,0,0-.64.64,1.9,1.9,0,0,1-1.9,1.9.64.64,0,0,0-.63.64.63.63,0,0,0,.63.63,1.9,1.9,0,0,1,1.9,1.9.64.64,0,0,0,.64.64.63.63,0,0,0,.63-.64,1.91,1.91,0,0,1,1.91-1.9A.63.63,0,0,0,31.5,20.6Zm-3.17.65a3.33,3.33,0,0,0-.65-.65,3.69,3.69,0,0,0,.65-.66,3.13,3.13,0,0,0,.65.66A2.86,2.86,0,0,0,28.33,21.25Z"/><path class="eb7f94cc-3bcf-44bb-a984-fcfbabfd31ce" d="M13.1,32h1.27v1.27H13.1Z"/><path class="eb7f94cc-3bcf-44bb-a984-fcfbabfd31ce" d="M6.75,40.9H8v1.27H6.75Z"/><path class="eb7f94cc-3bcf-44bb-a984-fcfbabfd31ce" d="M42.93,39A1.91,1.91,0,1,0,41,40.9,1.91,1.91,0,0,0,42.93,39Zm-2.54,0a.63.63,0,0,1,.63-.63.64.64,0,0,1,.64.63.64.64,0,0,1-.64.64A.64.64,0,0,1,40.39,39Z"/><path class="eb7f94cc-3bcf-44bb-a984-fcfbabfd31ce" d="M24.52,10.44A2.54,2.54,0,1,0,22,13,2.54,2.54,0,0,0,24.52,10.44Zm-3.81,0A1.27,1.27,0,1,1,22,11.71,1.27,1.27,0,0,1,20.71,10.44Z"/><path class="eb7f94cc-3bcf-44bb-a984-fcfbabfd31ce" d="M28.33,9.17H29.6v1.27H28.33Z"/><path class="eb7f94cc-3bcf-44bb-a984-fcfbabfd31ce" d="M30.87,32.65h1.27v1.27H30.87Z"/><path class="eb7f94cc-3bcf-44bb-a984-fcfbabfd31ce" d="M34.68,40.9h1.26v1.27H34.68Z"/><path class="eb7f94cc-3bcf-44bb-a984-fcfbabfd31ce" d="M13.1,22.5h1.27v1.27H13.1Z"/><path class="eb7f94cc-3bcf-44bb-a984-fcfbabfd31ce" d="M8,22.56l1.27-.12S9,19.39,10.71,17.56a4.72,4.72,0,0,1,3.66-1.41V14.88a6,6,0,0,0-4.6,1.82C7.72,19,8,22.41,8,22.56Z"/><path class="eb7f94cc-3bcf-44bb-a984-fcfbabfd31ce" d="M30.87,14.88v1.27c.31,0,7.71.14,8.89,9L41,25C39.69,15,31,14.88,30.87,14.88Z"/></svg>