<svg id="afb739e3-cd88-4fa8-9703-1bc2b4ecc277" data-name="圖層 1" xmlns="http://www.w3.org/2000/svg" viewBox="0 0 50 50"><defs><style>.bca504f2-a80a-4e7e-9bdf-33dd0a2e297c{fill:#00a99d;}</style></defs><title>li</title><path class="bca504f2-a80a-4e7e-9bdf-33dd0a2e297c" d="M45.74,21.5a.8.8,0,0,0-.27-.48,5.21,5.21,0,0,1-1.78-3.44l0-.13a.82.82,0,0,0-.69-.67l-.38,0A3.76,3.76,0,0,0,40,17.82a.83.83,0,0,0-.22.46c-.06.44-.09.85-.12,1.2-.1,1.34-.19,1.49-.6,1.62a.82.82,0,0,0-.53.53A19.27,19.27,0,0,1,37,25.18c-.3-.58-.64-1.11-1-1.6-.77-1.19-1.38-2.13-1.17-3.3.67-3.79.33-6.64-1-8.48a5.3,5.3,0,0,0-3.11-2.05,3.63,3.63,0,0,1,2.43-3.14A.82.82,0,0,0,32.79,5a5.26,5.26,0,0,0-3.64,4.51,5.46,5.46,0,0,0-3.47,1.18c-1.79,1.43-2.87,4.09-3.22,7.9-.1,1.14-.84,1.81-1.87,2.74a11.87,11.87,0,0,0-2.52,2.87,10.16,10.16,0,0,0-3-.71,3.59,3.59,0,0,1,2.41-3,.82.82,0,0,0-.42-1.59,4.35,4.35,0,0,0-1.23.56A4.84,4.84,0,0,0,14.53,17a4.88,4.88,0,0,0-4.68-1.26.84.84,0,0,0-.59.58A4.89,4.89,0,0,0,10.52,21a4.78,4.78,0,0,0,3.15,1.41,6.19,6.19,0,0,0-.22,1.09A10.25,10.25,0,1,0,20,42.17l.82.34A20.26,20.26,0,0,0,28.27,44a16.55,16.55,0,0,0,10.59-3.73A20.83,20.83,0,0,0,45.5,29.34,21.23,21.23,0,0,0,45.74,21.5Zm-24,1.08c1.11-1,2.25-2,2.41-3.82.3-3.34,1.17-5.62,2.6-6.76a4,4,0,0,1,3.11-.77,3.91,3.91,0,0,1,2.76,1.54c1.07,1.46,1.31,3.89.72,7.22-.32,1.8.56,3.17,1.41,4.48A12.68,12.68,0,0,1,36,26.86a19.64,19.64,0,0,1-11.58,8,10,10,0,0,0,.06-1.1A10.27,10.27,0,0,0,19.54,25,10.65,10.65,0,0,1,21.69,22.58Zm-10-2.73a3.23,3.23,0,0,1-.92-2.61l.34,0a3.16,3.16,0,0,1,2.27.94,3.19,3.19,0,0,1,.92,2.61,1.88,1.88,0,0,1-.34,0h0A3.18,3.18,0,0,1,11.68,19.85Zm2.54,22.48a8.61,8.61,0,1,1,8.61-8.6,8.39,8.39,0,0,1-.12,1.41c-.53.07-1.06.11-1.59.13a7.27,7.27,0,0,0,.17-1.54,7,7,0,0,0-.53-2.68.82.82,0,0,0-1.52.62,5.41,5.41,0,0,1,.41,2.06,5.51,5.51,0,0,1-.22,1.51,17.74,17.74,0,0,1-3.51-.58.81.81,0,0,0-.69.13,4.66,4.66,0,0,0-1.9,2.41.83.83,0,0,0,.25.9,28.25,28.25,0,0,0,4.7,3.22A8.6,8.6,0,0,1,14.22,42.33Zm29.7-13.42c-2.25,8.41-8.11,13.42-15.65,13.42a21.42,21.42,0,0,1-13.16-5.09,2.84,2.84,0,0,1,.77-.89,19.51,19.51,0,0,0,4.67.57,19.82,19.82,0,0,0,12.28-4.34,22,22,0,0,0,4.73-5.11l0-.07A20.89,20.89,0,0,0,40,22.49c1.15-.58,1.23-1.75,1.32-2.89,0-.26,0-.52.07-.8a2.15,2.15,0,0,1,.8-.35,6.43,6.43,0,0,0,2,3.62A19.91,19.91,0,0,1,43.92,28.91Z"/><path class="bca504f2-a80a-4e7e-9bdf-33dd0a2e297c" d="M30.44,12.92a.82.82,0,0,0-.63,1.51c.6.25.93,2.06.4,5a.82.82,0,0,0,.67.95H31a.82.82,0,0,0,.81-.68C32.3,17.09,32.44,13.76,30.44,12.92Z"/><path class="bca504f2-a80a-4e7e-9bdf-33dd0a2e297c" d="M35.87,36.41a.83.83,0,0,0-1.15-.16h0a.82.82,0,0,0,.48,1.49.89.89,0,0,0,.49-.16l0,0A.82.82,0,0,0,35.87,36.41Z"/><path class="bca504f2-a80a-4e7e-9bdf-33dd0a2e297c" d="M34,37.74a.84.84,0,0,0-1.11-.36,11.68,11.68,0,0,1-5.21,1.38.82.82,0,0,0-.85.79.81.81,0,0,0,.79.85h.13a13.64,13.64,0,0,0,5.89-1.56A.84.84,0,0,0,34,37.74Z"/><path class="bca504f2-a80a-4e7e-9bdf-33dd0a2e297c" d="M19.24,28.76l0,0a.82.82,0,0,0-1.16,1.16l0,0a.82.82,0,0,0,.58.24.85.85,0,0,0,.58-.23A.82.82,0,0,0,19.24,28.76Z"/></svg>