<svg id="acf026b8-6304-4ce3-b664-f7dd4711e874" data-name="圖層 1" xmlns="http://www.w3.org/2000/svg" viewBox="0 0 50 50"><defs><style>.b3b4874a-c230-4556-a35b-a57c9b2468ca{fill:#00a99d;}</style></defs><title>li</title><path class="b3b4874a-c230-4556-a35b-a57c9b2468ca" d="M45.23,23.87A9.42,9.42,0,0,0,32.58,15V11.94a2.89,2.89,0,0,0-1.16-5.53h0l.49-3.55a.75.75,0,0,0-.18-.6A.73.73,0,0,0,31.15,2H23.22a.8.8,0,0,0-.58.26.78.78,0,0,0-.18.6L23,6.41H20a1.94,1.94,0,0,0-1.24,3.43l1.79,1.48a3.91,3.91,0,0,0,1.23.68v8.81a2.85,2.85,0,0,1-1.55,2.53,15,15,0,0,0-8.1,13.34,15.55,15.55,0,0,0,.31,3,6.16,6.16,0,0,0-.75,0c-2.88,0-5.22,1.94-5.22,4.31s2.34,4.3,5.22,4.3a6,6,0,0,0,2.56-.56,6.07,6.07,0,0,0,2.58.56,5.79,5.79,0,0,0,3.57-1.17H34.94a6.2,6.2,0,0,0,5.43-3.19,15.12,15.12,0,0,0,1.85-7.25,14.89,14.89,0,0,0-.91-5.17A9.37,9.37,0,0,0,45.23,23.87ZM30.28,3.52l-.4,2.89H24.49l-.4-2.89Zm-8.75,6.63L19.74,8.67a.42.42,0,0,1-.13-.47.41.41,0,0,1,.4-.27H31.42a1.37,1.37,0,1,1,0,2.73H22.94A2.22,2.22,0,0,1,21.53,10.15Zm10.58,17A10.4,10.4,0,0,1,34,28.47H20.35a10.4,10.4,0,0,1,1.91-1.27,7.2,7.2,0,0,0,3.88-6.39V12.18h2.08v8.63A7.19,7.19,0,0,0,32.11,27.2Zm-5.33,12a.77.77,0,0,0-.51-.5,11.83,11.83,0,0,0-4.22-.38,12.47,12.47,0,0,0,.11-3.57.76.76,0,0,0-1.11-.59,11.21,11.21,0,0,0-4.38,4.45,11.14,11.14,0,0,1-.17-1.92A10.64,10.64,0,0,1,18.85,30H35.51a10.69,10.69,0,0,1,1.32,11.3,2.61,2.61,0,0,1-2.35,1.48H23.37a12.19,12.19,0,0,0,3.27-2.88A.77.77,0,0,0,26.78,39.19ZM11.7,46.77c-2,0-3.7-1.25-3.7-2.78s1.66-2.79,3.7-2.79,3.69,1.25,3.69,2.79S13.73,46.77,11.7,46.77Zm2.56-6.53-.14-.06a13.72,13.72,0,0,1-.46-3.5,13.48,13.48,0,0,1,7.29-12,4.37,4.37,0,0,0,2.36-3.87V12.18h1.32v8.63a5.66,5.66,0,0,1-3.08,5A12.19,12.19,0,0,0,15,36.68a12,12,0,0,0,.42,3.17A6.13,6.13,0,0,0,14.26,40.24Zm2.58,6.53a5.19,5.19,0,0,1-1.05-.11,3.74,3.74,0,0,0,0-5.34,4.57,4.57,0,0,1,1.05-.12c2,0,3.7,1.25,3.7,2.79S18.88,46.77,16.84,46.77Zm3.36-7.33a7.16,7.16,0,0,1-.42,1,5.9,5.9,0,0,0-2-.67,8.56,8.56,0,0,1,2.9-3.58A10.46,10.46,0,0,1,20.2,39.44Zm.8,2a9.56,9.56,0,0,0,.65-1.5,10,10,0,0,1,3,0A9.86,9.86,0,0,1,21.48,42,4.28,4.28,0,0,0,21,41.39ZM40,30.58a.75.75,0,0,0-.3.93A13.6,13.6,0,0,1,39,43.19a4.67,4.67,0,0,1-4.1,2.41H21.68A3.51,3.51,0,0,0,22,44.29H34.48A4.14,4.14,0,0,0,38.2,42a12.22,12.22,0,0,0-5.39-16.1,5.68,5.68,0,0,1-3.07-5V12.18h1.32v4a.76.76,0,0,0,1.11.68A7.8,7.8,0,0,1,35.81,16,7.9,7.9,0,0,1,40,30.58Z"/><path class="b3b4874a-c230-4556-a35b-a57c9b2468ca" d="M35.81,19.07a4.81,4.81,0,0,0-4.39,2.85.76.76,0,0,0,0,.61,4.42,4.42,0,0,0,2,2.15,13.57,13.57,0,0,1,3.95,3.12.77.77,0,0,0,.58.26.75.75,0,0,0,.4-.12,4.75,4.75,0,0,0,2.26-4.07A4.8,4.8,0,0,0,35.81,19.07ZM38,26.28a14.87,14.87,0,0,0-3.92-2.94A3,3,0,0,1,33,22.23a3.28,3.28,0,0,1,6.13,1.64A3.26,3.26,0,0,1,38,26.28Z"/></svg>