<svg id="aed40fb5-9c88-4cf6-ad0c-1a288d0a7b5c" data-name="圖層 1" xmlns="http://www.w3.org/2000/svg" viewBox="0 0 50 50"><defs><style>.b2b43a52-3679-4d9b-9113-30418bef9195{fill:#00a99d;}</style></defs><title>li</title><path class="b2b43a52-3679-4d9b-9113-30418bef9195" d="M37.2,34.88h1.27v1.27H37.2Z"/><path class="b2b43a52-3679-4d9b-9113-30418bef9195" d="M38.47,37.42h1.27V38.7H38.47Z"/><path class="b2b43a52-3679-4d9b-9113-30418bef9195" d="M35.93,37.42H37.2V38.7H35.93Z"/><path class="b2b43a52-3679-4d9b-9113-30418bef9195" d="M44.83,8.18V6.91A1.92,1.92,0,0,0,42.92,5H20a1.91,1.91,0,0,0-1.91,1.91V8.18A1.9,1.9,0,0,0,20,10.08l-.65,7.64H9.86a2.54,2.54,0,0,0-2.54,2.54V22.8a2.56,2.56,0,0,0,.42,1.4,3.18,3.18,0,0,0-2.33,3.05v14a3.19,3.19,0,0,0,3.18,3.18H21.31a3.18,3.18,0,0,0,3.11-2.55h7.17a8,8,0,0,0,5.61,1.91c3.22,0,5.78-1.31,6.66-3.41a1.65,1.65,0,0,0-.15-1.55,1.73,1.73,0,0,0-1-.7l-.31-.7A7.31,7.31,0,0,0,44.83,32q0-.31,0-.63L43,10.08a1.91,1.91,0,0,0,1.85-1.9ZM41.7,10.09,42,13.9H20.93l.32-3.81ZM22.15,24.2a2.49,2.49,0,0,0,.43-1.4V20.26a2.55,2.55,0,0,0-2-2.48l.23-2.61H42.14l1.09,12.72H24.49v-.64a3.19,3.19,0,0,0-2.34-3.05ZM8.59,22.8H21.31A1.27,1.27,0,0,1,20,24.07H9.86A1.27,1.27,0,0,1,8.59,22.8Zm5.09-2.54V19h2.54v1.27a1.27,1.27,0,0,1-2.54,0Zm7.63,0v1.27H17.14a2.52,2.52,0,0,0,.35-1.27V19H20A1.27,1.27,0,0,1,21.31,20.26ZM9.86,19h2.55v1.27a2.52,2.52,0,0,0,.35,1.27H8.59V20.26A1.27,1.27,0,0,1,9.86,19ZM21.31,43.15H8.59a1.92,1.92,0,0,1-1.91-1.91v-14a1.92,1.92,0,0,1,1.91-1.91H21.31a1.91,1.91,0,0,1,1.9,1.91V38.06H20.67V27.89H9.23V40.6h4.56a1.91,1.91,0,0,0,1.79,1.27H23.1A1.92,1.92,0,0,1,21.31,43.15Zm-7.52-3.82H10.5V29.16h8.9v8.9H15.58A1.91,1.91,0,0,0,13.79,39.33Zm28.9.54C42,41.5,39.9,42.51,37.2,42.51a6.64,6.64,0,0,1-4.88-1.7l-.19-.21H15.58A.63.63,0,0,1,15,40a.64.64,0,0,1,.63-.64H32.89c1.08,2.43,8.31,2.51,9.78.23a.32.32,0,0,1,0,.31Zm-1.07-1.1c-.13.46-1.54,1.2-3.78,1.2s-3.65-.74-3.79-1.2L35.74,35a2.3,2.3,0,0,1,4.2,0Zm.25-2.59-.77-1.72a3.57,3.57,0,0,0-6.53,0L33,38.06H24.49v-8.9H43.34l.2,2.31c0,.17,0,.35,0,.52a6,6,0,0,1-1.69,4.19Zm1.69-28a.64.64,0,0,1-.64.63H20a.63.63,0,0,1-.64-.63V6.91A.64.64,0,0,1,20,6.27H42.92a.64.64,0,0,1,.64.64Z"/><path class="b2b43a52-3679-4d9b-9113-30418bef9195" d="M38.47,16.44h-14V26.62h14Zm-1.27,8.9H25.76V17.72H37.2Z"/><path class="b2b43a52-3679-4d9b-9113-30418bef9195" d="M25.76,35.52H27v1.27H25.76Z"/><path class="b2b43a52-3679-4d9b-9113-30418bef9195" d="M25.76,33H27v1.27H25.76Z"/><path class="b2b43a52-3679-4d9b-9113-30418bef9195" d="M25.76,30.43H27V31.7H25.76Z"/></svg>