<svg id="bb7541db-95cd-4ab4-b3bb-c3c8e66d2acd" data-name="圖層 1" xmlns="http://www.w3.org/2000/svg" viewBox="0 0 50 50"><defs><style>.ad7c55fb-0c3c-4b55-8b02-71563425d855{fill:#00a99d;}</style></defs><title>li</title><path class="ad7c55fb-0c3c-4b55-8b02-71563425d855" d="M25.59,35.45A2.14,2.14,0,0,0,23.47,33h-.38l-3.8-3.81a8.48,8.48,0,0,0-12,0L3.49,33H3.12A2.15,2.15,0,0,0,1,35.45a12.39,12.39,0,0,0,18.44,9.06,2,2,0,0,0,.22.27,2.15,2.15,0,0,0,1.55.64h20a2.19,2.19,0,0,0,1.55-3.74l-.14-.14.53-2.27a45.93,45.93,0,0,0,.24-19.87l-.71-3.35c.31-.11.61-.22.92-.35a1.47,1.47,0,0,0,.81-1.91L43.65,12a2.55,2.55,0,0,0-2.38-1.62h-.7L37.5,8.06a10.26,10.26,0,0,0-12-.23l-3.66,2.53h-.19a2.56,2.56,0,0,0-2.2,1.25l-1.2,2a1.49,1.49,0,0,0-.13,1.24,1.43,1.43,0,0,0,.86.89l.5.2.27.09L19,19.4a45.62,45.62,0,0,0-1,8.47l1.46,0a44.4,44.4,0,0,1,.93-8.2l.67-3.17a32.4,32.4,0,0,0,10.1,1.62,32.3,32.3,0,0,0,10-1.61l.66,3.16a44.6,44.6,0,0,1-.22,19.24l-.63,2.66a.73.73,0,0,0,.19.69l.43.43a.72.72,0,0,1,.16.79.73.73,0,0,1-.67.45h-20a.69.69,0,0,1-.51-.21s0,0,0,0A12.34,12.34,0,0,0,25.59,35.45ZM26.32,9a8.8,8.8,0,0,1,10.3.2l1.51,1.13H24.4ZM20,14.58l-.5-.22,1.2-2a1.12,1.12,0,0,1,.95-.54H41.27a1.12,1.12,0,0,1,1,.7L43,14.35A30.9,30.9,0,0,1,20,14.58ZM8.33,30.23a7,7,0,0,1,9.92,0L21,33H9.64v-.74H8.18V33H5.56Zm5,14.46A11,11,0,0,1,2.44,35.25a.68.68,0,0,1,.16-.55.65.65,0,0,1,.52-.23H23.47a.68.68,0,0,1,.51.23.68.68,0,0,1,.16.55A11,11,0,0,1,13.29,44.69Z"/><path class="ad7c55fb-0c3c-4b55-8b02-71563425d855" d="M11.83,35.93H8.91v.73a5.85,5.85,0,0,0,5.84,5.84h2.93v-.73A5.85,5.85,0,0,0,11.83,35.93ZM14.75,41a4.39,4.39,0,0,1-4.32-3.65h1.4A4.38,4.38,0,0,1,16.15,41Z"/><path class="ad7c55fb-0c3c-4b55-8b02-71563425d855" d="M26.44,32.27a5.11,5.11,0,0,0,4.38,5.06v2.25h1.47V37.33a5.11,5.11,0,0,0,4.38-5.06.73.73,0,0,0-.73-.73h-.2a5.1,5.1,0,0,0,.93-2.93.73.73,0,0,0-.73-.73h-.2A5.12,5.12,0,0,0,36.67,25a.73.73,0,0,0-.73-.73,5,5,0,0,0-2.39.6,5.14,5.14,0,0,0-1.48-4,.74.74,0,0,0-1,0,5.14,5.14,0,0,0-1.48,4,5,5,0,0,0-2.39-.6.73.73,0,0,0-.73.73,5.12,5.12,0,0,0,.93,2.93h-.2a.73.73,0,0,0-.73.73,5.1,5.1,0,0,0,.93,2.93h-.2A.73.73,0,0,0,26.44,32.27ZM28,33.1a3.68,3.68,0,0,1,2.73,2.73A3.62,3.62,0,0,1,28,33.1Zm2.73-.92A3.65,3.65,0,0,1,28,29.45,3.65,3.65,0,0,1,30.73,32.18Zm4.38-2.73a3.65,3.65,0,0,1-2.73,2.73A3.65,3.65,0,0,1,35.11,29.45Zm-2.73,6.38a3.68,3.68,0,0,1,2.73-2.73A3.62,3.62,0,0,1,32.38,35.83Zm0-7.3a3.68,3.68,0,0,1,2.73-2.74A3.65,3.65,0,0,1,32.38,28.53Zm-.83-6a3.63,3.63,0,0,1,0,3.86A3.68,3.68,0,0,1,31.55,22.49Zm-.82,6A3.65,3.65,0,0,1,28,25.8a3.65,3.65,0,0,1,2.73,2.73Z"/><path class="ad7c55fb-0c3c-4b55-8b02-71563425d855" d="M11.83,29.35h1.46v1.46H11.83Z"/><path class="ad7c55fb-0c3c-4b55-8b02-71563425d855" d="M15.48,30.81h1.46v1.46H15.48Z"/></svg>