<?xml version="1.0" encoding="utf-8"?>
<!-- Generator: Adobe Illustrator 23.1.0, SVG Export Plug-In . SVG Version: 6.00 Build 0)  -->
<svg version="1.1" id="圖層_1" xmlns="http://www.w3.org/2000/svg" xmlns:xlink="http://www.w3.org/1999/xlink" x="0px" y="0px"
	 viewBox="0 0 289.7 267.03" style="enable-background:new 0 0 289.7 267.03;" xml:space="preserve">
<style type="text/css">
	.st0{fill:#FFFFFF;}
	.st1{fill:none;stroke:#00A99D;stroke-miterlimit:10;}
</style>
<g>
	<path class="st0" d="M215.44,100.02c0-0.01-0.01-0.02-0.01-0.03l-11.32-14.33c3.26-1.5,5.78-4.49,6.52-8.26
		c1.22-6.25-2.86-12.32-9.1-13.55l-77.89-15.28c-6.24-1.23-12.32,2.86-13.55,9.1c-0.74,3.78,0.47,7.5,2.92,10.11l-15.9,9
		c-0.91,0.52-1.61,1.42-1.83,2.54c-0.4,2.03,0.93,4,2.96,4.4c1.56,0.31,2.68,0.78,3.61,1.4c-4.02,2.9-6.87,7.16-8,12.13
		c-0.02,0.1-17.77,90.56-17.77,90.56c-1.92,9.75,4.46,19.23,14.21,21.15l81.52,15.99c9.75,1.91,19.23-4.46,21.15-14.21
		c0,0,17.74-90.47,17.75-90.56c0.84-5.03-0.19-10.05-2.82-14.26c1.1-0.22,2.32-0.23,3.87,0.07c2.04,0.4,4.01-0.92,4.41-2.95
		C216.38,101.93,216.09,100.84,215.44,100.02z M117.45,59.12c0.43-2.19,2.56-3.62,4.75-3.19l77.88,15.28
		c2.19,0.43,3.62,2.56,3.19,4.74c-0.43,2.19-2.56,3.62-4.74,3.19l-77.89-15.28C118.45,63.43,117.02,61.3,117.45,59.12z
		 M203.25,119.33L185.6,209.3c-1.12,5.69-6.66,9.41-12.35,8.29L91.73,201.6c-5.69-1.12-9.41-6.66-8.3-12.35l17.65-89.96
		c0.73-3.72,2.98-6.86,6.16-8.75c1.89,1.76,4.43,3.43,8.48,4.22c5.99,1.17,9.65-0.66,12.58-2.14c2.5-1.25,4.31-2.16,7.78-1.47
		c3.47,0.68,4.8,2.2,6.64,4.3c2.16,2.48,4.85,5.56,10.84,6.73c5.99,1.18,9.65-0.66,12.58-2.13c2.5-1.26,4.31-2.16,7.78-1.48
		s4.8,2.2,6.64,4.31c2.16,2.47,4.85,5.55,10.84,6.73c4.05,0.79,7.03,0.21,9.45-0.71C203.09,111.86,203.98,115.61,203.25,119.33z
		 M200.62,100.77c-2.5,1.26-4.3,2.16-7.77,1.48c-3.48-0.68-4.81-2.2-6.64-4.31c-2.17-2.47-4.86-5.55-10.85-6.73
		c-5.99-1.17-9.64,0.66-12.58,2.14c-2.5,1.25-4.3,2.16-7.78,1.48c-3.47-0.69-4.8-2.21-6.64-4.31c-2.16-2.48-4.85-5.56-10.84-6.73
		c-5.99-1.18-9.64,0.66-12.58,2.13c-2.5,1.26-4.3,2.16-7.78,1.48c-3.47-0.68-4.8-2.2-6.63-4.31c-0.95-1.08-2-2.27-3.37-3.38
		l14.24-8.06l73.48,14.42l10.14,12.84C203.33,99.41,201.91,100.13,200.62,100.77z"/>
	<path class="st0" d="M203.25,119.33L185.6,209.3c-1.12,5.69-6.66,9.41-12.35,8.29L91.73,201.6c-5.69-1.12-9.41-6.66-8.3-12.35
		l17.65-89.96c0.73-3.72,2.98-6.86,6.16-8.75c1.89,1.76,4.43,3.43,8.48,4.22c5.99,1.17,9.65-0.66,12.58-2.14
		c2.5-1.25,4.31-2.16,7.78-1.47c3.47,0.68,4.8,2.2,6.64,4.3c2.16,2.48,4.85,5.56,10.84,6.73c5.99,1.18,9.65-0.66,12.58-2.13
		c2.5-1.26,4.31-2.16,7.78-1.48s4.8,2.2,6.64,4.31c2.16,2.47,4.85,5.55,10.84,6.73c4.05,0.79,7.03,0.21,9.45-0.71
		C203.09,111.86,203.98,115.61,203.25,119.33z"/>
	<path class="st0" d="M205.02,98.91c-1.69,0.5-3.11,1.22-4.4,1.86c-2.5,1.26-4.3,2.16-7.77,1.48c-3.48-0.68-4.81-2.2-6.64-4.31
		c-2.17-2.47-4.86-5.55-10.85-6.73c-5.99-1.17-9.64,0.66-12.58,2.14c-2.5,1.25-4.3,2.16-7.78,1.48c-3.47-0.69-4.8-2.21-6.64-4.31
		c-2.16-2.48-4.85-5.56-10.84-6.73c-5.99-1.18-9.64,0.66-12.58,2.13c-2.5,1.26-4.3,2.16-7.78,1.48c-3.47-0.68-4.8-2.2-6.63-4.31
		c-0.95-1.08-2-2.27-3.37-3.38l14.24-8.06l73.48,14.42L205.02,98.91z"/>
	<path class="st0" d="M203.27,75.95c-0.43,2.19-2.56,3.62-4.74,3.19l-77.89-15.28c-2.19-0.43-3.62-2.56-3.19-4.74
		c0.43-2.19,2.56-3.62,4.75-3.19l77.88,15.28C202.27,71.64,203.7,73.77,203.27,75.95z"/>
</g>
<g>
	<path class="st1" d="M212.44,94.02c0-0.01-0.01-0.02-0.01-0.03l-11.32-14.33c3.26-1.5,5.78-4.49,6.52-8.26
		c1.22-6.25-2.86-12.32-9.1-13.55l-77.89-15.28c-6.24-1.23-12.32,2.86-13.55,9.1c-0.74,3.78,0.47,7.5,2.92,10.11l-15.9,9
		c-0.91,0.52-1.61,1.42-1.83,2.54c-0.4,2.03,0.93,4,2.96,4.4c1.56,0.31,2.68,0.78,3.61,1.4c-4.02,2.9-6.87,7.16-8,12.13
		c-0.02,0.1-17.77,90.56-17.77,90.56c-1.92,9.75,4.46,19.23,14.21,21.15l81.52,15.99c9.75,1.91,19.23-4.46,21.15-14.21
		c0,0,17.74-90.47,17.75-90.56c0.84-5.03-0.19-10.05-2.82-14.26c1.1-0.22,2.32-0.23,3.87,0.07c2.04,0.4,4.01-0.92,4.41-2.95
		C213.38,95.93,213.09,94.84,212.44,94.02z M114.45,53.12c0.43-2.19,2.56-3.62,4.75-3.19l77.88,15.28c2.19,0.43,3.62,2.56,3.19,4.74
		c-0.43,2.19-2.56,3.62-4.74,3.19l-77.89-15.28C115.45,57.43,114.02,55.3,114.45,53.12z M200.25,113.33L182.6,203.3
		c-1.12,5.69-6.66,9.41-12.35,8.29L88.73,195.6c-5.69-1.12-9.41-6.66-8.3-12.35l17.65-89.96c0.73-3.72,2.98-6.86,6.16-8.75
		c1.89,1.76,4.43,3.43,8.48,4.22c5.99,1.17,9.65-0.66,12.58-2.14c2.5-1.25,4.31-2.16,7.78-1.47c3.47,0.68,4.8,2.2,6.64,4.3
		c2.16,2.48,4.85,5.56,10.84,6.73c5.99,1.18,9.65-0.66,12.58-2.13c2.5-1.26,4.31-2.16,7.78-1.48s4.8,2.2,6.64,4.31
		c2.16,2.47,4.85,5.55,10.84,6.73c4.05,0.79,7.03,0.21,9.45-0.71C200.09,105.86,200.98,109.61,200.25,113.33z M197.62,94.77
		c-2.5,1.26-4.3,2.16-7.77,1.48c-3.48-0.68-4.81-2.2-6.64-4.31c-2.17-2.47-4.86-5.55-10.85-6.73c-5.99-1.17-9.64,0.66-12.58,2.14
		c-2.5,1.25-4.3,2.16-7.78,1.48c-3.47-0.69-4.8-2.21-6.64-4.31c-2.16-2.48-4.85-5.56-10.84-6.73c-5.99-1.18-9.64,0.66-12.58,2.13
		c-2.5,1.26-4.3,2.16-7.78,1.48c-3.47-0.68-4.8-2.2-6.63-4.31c-0.95-1.08-2-2.27-3.37-3.38l14.24-8.06l73.48,14.42l10.14,12.84
		C200.33,93.41,198.91,94.13,197.62,94.77z"/>
	<path class="st1" d="M200.25,113.33L182.6,203.3c-1.12,5.69-6.66,9.41-12.35,8.29L88.73,195.6c-5.69-1.12-9.41-6.66-8.3-12.35
		l17.65-89.96c0.73-3.72,2.98-6.86,6.16-8.75c1.89,1.76,4.43,3.43,8.48,4.22c5.99,1.17,9.65-0.66,12.58-2.14
		c2.5-1.25,4.31-2.16,7.78-1.47c3.47,0.68,4.8,2.2,6.64,4.3c2.16,2.48,4.85,5.56,10.84,6.73c5.99,1.18,9.65-0.66,12.58-2.13
		c2.5-1.26,4.31-2.16,7.78-1.48s4.8,2.2,6.64,4.31c2.16,2.47,4.85,5.55,10.84,6.73c4.05,0.79,7.03,0.21,9.45-0.71
		C200.09,105.86,200.98,109.61,200.25,113.33z"/>
	<path class="st1" d="M202.02,92.91c-1.69,0.5-3.11,1.22-4.4,1.86c-2.5,1.26-4.3,2.16-7.77,1.48c-3.48-0.68-4.81-2.2-6.64-4.31
		c-2.17-2.47-4.86-5.55-10.85-6.73c-5.99-1.17-9.64,0.66-12.58,2.14c-2.5,1.25-4.3,2.16-7.78,1.48c-3.47-0.69-4.8-2.21-6.64-4.31
		c-2.16-2.48-4.85-5.56-10.84-6.73c-5.99-1.18-9.64,0.66-12.58,2.13c-2.5,1.26-4.3,2.16-7.78,1.48c-3.47-0.68-4.8-2.2-6.63-4.31
		c-0.95-1.08-2-2.27-3.37-3.38l14.24-8.06l73.48,14.42L202.02,92.91z"/>
	<path class="st1" d="M200.27,69.95c-0.43,2.19-2.56,3.62-4.74,3.19l-77.89-15.28c-2.19-0.43-3.62-2.56-3.19-4.74
		c0.43-2.19,2.56-3.62,4.75-3.19l77.88,15.28C199.27,65.64,200.7,67.77,200.27,69.95z"/>
</g>
</svg>
