<?xml version="1.0"?>
<svg xmlns="http://www.w3.org/2000/svg" viewBox="0 0 64 64" width="512" height="512"><g id="Recycle"><path d="M60.59,42.2,51.874,26.514a1,1,0,0,0-1.359-.388l-9,5a1,1,0,0,0-.4,1.348L46.777,43H42V41a1,1,0,0,0-1.664-.748l-9,8a1,1,0,0,0,0,1.5l9,8A1,1,0,0,0,42,57V55H52.044a4.966,4.966,0,0,0,3.946-1.931L60.166,47.7A5,5,0,0,0,60.59,42.2Zm-2,4.27-4.176,5.369A2.979,2.979,0,0,1,52.044,53H41a1,1,0,0,0-1,1v.773L33.505,49,40,43.227V44a1,1,0,0,0,1,1H53a1,1,0,0,0,0-2H49.048l-5.7-10.6,7.263-4.035,8.231,14.814A3,3,0,0,1,58.588,46.473Z"/><path d="M46.783,10.488a1,1,0,0,0-1.082.1l-1.577,1.231L37.94,3.9A4.963,4.963,0,0,0,34,1.979H33.99l-6.8.015A4.994,4.994,0,0,0,22.6,5.045l-7,16.527a1,1,0,0,0,.531,1.311L25.61,26.9a1,1,0,0,0,1.306-.518l4.811-10.939L34.668,19.2l-1.575,1.231a1,1,0,0,0,.435,1.772l11.845,2.167a1.012,1.012,0,0,0,.8-.2,1,1,0,0,0,.383-.725l.763-12.017A1,1,0,0,0,46.783,10.488ZM44.626,22.2,36.079,20.64l.608-.476a1,1,0,0,0,.173-1.4L29.472,9.328A1,1,0,0,0,27.9,10.56l2.426,3.1L25.481,24.67,17.83,21.431,24.437,5.825a3,3,0,0,1,2.755-1.831l6.8-.015H34a2.977,2.977,0,0,1,2.362,1.153l6.8,8.7a1,1,0,0,0,1.4.172l.61-.476Z"/><path d="M28,44H15.716l2.523-4.45,1.725,1a1,1,0,0,0,1.479-1.068L19.016,27.684a1,1,0,0,0-1.295-.748L6.293,30.73a1,1,0,0,0-.185,1.816l1.731,1-5.021,8.7a4.967,4.967,0,0,0-.3,4.382L5.06,52.883A4.98,4.98,0,0,0,9.692,56H28a1,1,0,0,0,1-1V45A1,1,0,0,0,28,44ZM27,54H9.692a2.988,2.988,0,0,1-2.779-1.87L4.369,45.874a2.982,2.982,0,0,1,.181-2.63l5.522-9.564a1,1,0,0,0-.366-1.367l-.67-.386,8.248-2.738L19.036,37.7l-.67-.387a1,1,0,0,0-1.37.374L11.008,48.059a1,1,0,1,0,1.717,1.025L14.567,46H27Z"/><path d="M39,62H19a1,1,0,0,1,0-2H39a1,1,0,0,1,0,2Z"/><path d="M45,62H43a1,1,0,0,1,0-2h2a1,1,0,0,1,0,2Z"/><path d="M6,21.32a1,1,0,0,1-.865-1.5l10-17.32a1,1,0,1,1,1.732,1l-10,17.32A1,1,0,0,1,6,21.32Z"/><path d="M3,26.517a1,1,0,0,1-.865-1.5l1-1.732a1,1,0,1,1,1.732,1l-1,1.732A1,1,0,0,1,3,26.517Z"/><path d="M61,26.517a1,1,0,0,1-.867-.5L50.134,8.7a1,1,0,1,1,1.732-1l10,17.321a1,1,0,0,1-.865,1.5Z"/><path d="M49,5.732a1,1,0,0,1-.867-.5l-1-1.732a1,1,0,1,1,1.732-1l1,1.732A1,1,0,0,1,49,5.732Z"/></g></svg>
