<svg xmlns="http://www.w3.org/2000/svg" viewBox="0 0 42.46 32.94"><defs><style>.cls-1{isolation:isolate;}.cls-2{fill:#f7c93d;}.cls-2,.cls-3,.cls-4{opacity:0.92;mix-blend-mode:multiply;}.cls-3{fill:#006860;}.cls-4{fill:#00a79b;}</style></defs><title>ulogo</title><g class="cls-1"><g id="圖層_1" data-name="圖層 1"><rect class="cls-2" y="10.13" width="2.6" height="12.78" rx="1.3"/><rect class="cls-3" width="2.6" height="12.78" rx="1.3"/><rect class="cls-2" x="23.98" y="30.18" width="2.6" height="19.98" rx="1.3" transform="translate(-19 56.92) rotate(-90)"/><path class="cls-2" d="M17.79,40.17a1.3,1.3,0,0,1-1.3,1.3h-.76A11.59,11.59,0,0,1,4.17,30.15a.45.45,0,0,1,0-.12,1.3,1.3,0,0,1,2.6,0,9,9,0,0,0,9,8.79h.76A1.3,1.3,0,0,1,17.79,40.17Z" transform="translate(-4.11 -8.53)"/><rect class="cls-2" x="43.96" y="18.66" width="2.6" height="12.78" rx="1.3" transform="translate(86.42 41.57) rotate(180)"/><rect class="cls-3" x="43.96" y="8.53" width="2.6" height="12.78" rx="1.3" transform="translate(86.42 21.31) rotate(180)"/><path class="cls-4" d="M32.89,40.17a1.3,1.3,0,0,0,1.3,1.3H35A11.59,11.59,0,0,0,46.51,30.15a.45.45,0,0,0,0-.12,1.3,1.3,0,0,0-2.6,0,9,9,0,0,1-9,8.79h-.76A1.3,1.3,0,0,0,32.89,40.17Z" transform="translate(-4.11 -8.53)"/></g></g></svg>