<?xml version="1.0" encoding="utf-8"?>
<!-- Generator: Adobe Illustrator 23.1.0, SVG Export Plug-In . SVG Version: 6.00 Build 0)  -->
<svg version="1.1" id="圖層_1" xmlns="http://www.w3.org/2000/svg" xmlns:xlink="http://www.w3.org/1999/xlink" x="0px" y="0px"
	 viewBox="0 0 169 50" style="enable-background:new 0 0 169 50;" xml:space="preserve">
<style type="text/css">
	.st3{fill:#CCCCCC;}
	.st4{fill:none;stroke:#666666;stroke-width:0.25;stroke-linecap:round;stroke-linejoin:round;}
</style>
<g>
	<path class="st3" d="M14.7,19.2h1.45v5.26c0,1.29,0.07,2.17,0.21,2.65c0.21,0.69,0.6,1.24,1.19,1.64s1.28,0.6,2.09,0.6
		s1.5-0.2,2.06-0.59c0.56-0.39,0.95-0.9,1.17-1.54c0.15-0.44,0.22-1.36,0.22-2.77V19.2h1.48v5.53c0,1.55-0.18,2.73-0.54,3.51
		s-0.91,1.4-1.64,1.85c-0.73,0.45-1.64,0.67-2.74,0.67s-2.02-0.22-2.75-0.67c-0.74-0.45-1.29-1.07-1.65-1.87s-0.54-2-0.54-3.6V19.2z
		"/>
	<path class="st3" d="M27.78,19.2h1.45v2.02c0.58-0.77,1.22-1.35,1.93-1.74s1.47-0.58,2.3-0.58c0.84,0,1.59,0.21,2.24,0.64
		s1.13,1.01,1.45,1.73c0.31,0.73,0.47,1.85,0.47,3.39v5.8h-1.45V25.1c0-1.3-0.05-2.17-0.16-2.6c-0.17-0.75-0.49-1.31-0.97-1.68
		c-0.48-0.38-1.1-0.56-1.87-0.56c-0.88,0-1.66,0.29-2.36,0.87c-0.69,0.58-1.15,1.3-1.37,2.16c-0.14,0.56-0.21,1.58-0.21,3.07v4.13
		h-1.45V19.2z"/>
	<path class="st3" d="M40.75,19.2h1.45v2.07c0.57-0.79,1.23-1.38,1.98-1.77c0.75-0.39,1.58-0.59,2.49-0.59
		c1.6,0,2.97,0.58,4.11,1.73c1.14,1.15,1.71,2.54,1.71,4.17c0,1.66-0.56,3.07-1.69,4.22s-2.49,1.74-4.08,1.74
		c-0.9,0-1.72-0.19-2.47-0.56c-0.75-0.37-1.43-0.93-2.04-1.67v6.06h-1.45V19.2z M46.55,20.31c-1.25,0-2.31,0.44-3.17,1.31
		c-0.86,0.88-1.29,1.97-1.29,3.27c0,0.86,0.19,1.63,0.57,2.31c0.38,0.68,0.93,1.22,1.64,1.63c0.71,0.4,1.47,0.6,2.26,0.6
		c0.78,0,1.51-0.2,2.2-0.61s1.23-0.97,1.64-1.69s0.61-1.48,0.61-2.28c0-0.8-0.2-1.56-0.6-2.28c-0.4-0.72-0.95-1.27-1.63-1.67
		C48.1,20.51,47.36,20.31,46.55,20.31z"/>
	<path class="st3" d="M66.44,19.2v11.28h-1.43v-1.94c-0.61,0.74-1.29,1.3-2.05,1.67s-1.58,0.56-2.48,0.56
		c-1.6,0-2.96-0.58-4.09-1.74c-1.13-1.16-1.69-2.56-1.69-4.22c0-1.62,0.57-3.01,1.71-4.17c1.14-1.15,2.51-1.73,4.11-1.73
		c0.93,0,1.76,0.2,2.51,0.59c0.75,0.39,1.41,0.98,1.97,1.77V19.2H66.44z M60.64,20.31c-0.81,0-1.55,0.2-2.24,0.6
		c-0.68,0.4-1.23,0.95-1.63,1.67c-0.4,0.72-0.61,1.48-0.61,2.28c0,0.79,0.2,1.55,0.61,2.28c0.41,0.72,0.95,1.29,1.64,1.69
		s1.42,0.61,2.21,0.61c0.79,0,1.55-0.2,2.26-0.6c0.71-0.4,1.26-0.94,1.64-1.63c0.38-0.68,0.57-1.45,0.57-2.31
		c0-1.3-0.43-2.39-1.29-3.27C62.95,20.75,61.9,20.31,60.64,20.31z"/>
	<path class="st3" d="M80.65,21.54l-1.15,0.71c-0.99-1.32-2.35-1.98-4.07-1.98c-1.37,0-2.51,0.44-3.42,1.32s-1.36,1.96-1.36,3.22
		c0,0.82,0.21,1.59,0.63,2.32s0.99,1.29,1.72,1.69c0.73,0.4,1.54,0.6,2.45,0.6c1.66,0,3.01-0.66,4.06-1.98l1.15,0.76
		c-0.54,0.81-1.26,1.44-2.17,1.89c-0.91,0.45-1.94,0.67-3.1,0.67c-1.78,0-3.26-0.57-4.44-1.7c-1.17-1.13-1.76-2.51-1.76-4.14
		c0-1.09,0.27-2.11,0.82-3.04s1.3-1.67,2.26-2.19s2.03-0.79,3.22-0.79c0.75,0,1.47,0.11,2.16,0.34s1.28,0.53,1.77,0.89
		C79.9,20.51,80.31,20.98,80.65,21.54z"/>
	<path class="st3" d="M83.43,14.85h1.45v8.9l5.23-4.55h2.13l-6.2,5.38l6.56,5.9h-2.04l-5.68-5.08v5.08h-1.45V14.85z"/>
	<path class="st3" d="M105.32,19.2v11.28h-1.43v-1.94c-0.61,0.74-1.29,1.3-2.05,1.67c-0.76,0.37-1.58,0.56-2.48,0.56
		c-1.6,0-2.96-0.58-4.09-1.74c-1.13-1.16-1.7-2.56-1.7-4.22c0-1.62,0.57-3.01,1.71-4.17c1.14-1.15,2.51-1.73,4.11-1.73
		c0.93,0,1.76,0.2,2.51,0.59c0.75,0.39,1.41,0.98,1.97,1.77V19.2H105.32z M99.52,20.31c-0.81,0-1.55,0.2-2.24,0.6
		c-0.68,0.4-1.23,0.95-1.63,1.67c-0.4,0.72-0.61,1.48-0.61,2.28c0,0.79,0.2,1.55,0.61,2.28s0.95,1.29,1.64,1.69s1.42,0.61,2.21,0.61
		c0.79,0,1.55-0.2,2.26-0.6c0.71-0.4,1.26-0.94,1.64-1.63c0.38-0.68,0.57-1.45,0.57-2.31c0-1.3-0.43-2.39-1.29-3.27
		S100.78,20.31,99.52,20.31z"/>
	<path class="st3" d="M118.31,19.2h1.45v8.98c0,1.58-0.14,2.74-0.41,3.47c-0.38,1.04-1.04,1.83-1.98,2.39s-2.07,0.84-3.39,0.84
		c-0.97,0-1.84-0.14-2.61-0.41s-1.4-0.64-1.88-1.1c-0.48-0.46-0.93-1.14-1.34-2.02h1.58c0.43,0.75,0.98,1.3,1.66,1.66
		c0.68,0.36,1.52,0.54,2.52,0.54c0.99,0,1.82-0.18,2.51-0.55c0.68-0.37,1.17-0.83,1.46-1.39c0.29-0.56,0.44-1.46,0.44-2.7v-0.58
		c-0.55,0.69-1.21,1.22-2,1.59c-0.79,0.37-1.63,0.55-2.51,0.55c-1.04,0-2.01-0.26-2.93-0.77s-1.62-1.21-2.12-2.08
		c-0.5-0.87-0.75-1.83-0.75-2.87c0-1.04,0.26-2.02,0.78-2.92c0.52-0.9,1.24-1.62,2.15-2.14s1.88-0.79,2.9-0.79
		c0.84,0,1.63,0.17,2.36,0.52c0.73,0.35,1.43,0.92,2.11,1.73V19.2z M114.03,20.31c-0.82,0-1.59,0.2-2.29,0.6
		c-0.71,0.4-1.26,0.95-1.66,1.65c-0.4,0.7-0.6,1.46-0.6,2.27c0,1.24,0.42,2.26,1.24,3.07c0.83,0.81,1.9,1.21,3.22,1.21
		c1.33,0,2.41-0.4,3.22-1.2c0.81-0.8,1.22-1.85,1.22-3.16c0-0.85-0.19-1.61-0.56-2.27c-0.37-0.67-0.9-1.19-1.59-1.58
		C115.55,20.5,114.81,20.31,114.03,20.31z"/>
	<path class="st3" d="M132.36,26.74l1.22,0.64c-0.4,0.79-0.86,1.42-1.39,1.91c-0.53,0.48-1.12,0.85-1.77,1.1
		c-0.66,0.25-1.4,0.38-2.23,0.38c-1.84,0-3.28-0.6-4.32-1.81c-1.04-1.21-1.56-2.57-1.56-4.09c0-1.43,0.44-2.71,1.32-3.82
		c1.11-1.42,2.6-2.13,4.47-2.13c1.92,0,3.46,0.73,4.61,2.19c0.82,1.03,1.23,2.31,1.24,3.86h-10.15c0.03,1.31,0.45,2.38,1.26,3.22
		c0.81,0.84,1.81,1.26,3,1.26c0.57,0,1.13-0.1,1.68-0.3c0.54-0.2,1-0.46,1.39-0.79C131.51,28.01,131.92,27.47,132.36,26.74z
		 M132.36,23.7c-0.19-0.77-0.48-1.39-0.85-1.85c-0.37-0.46-0.86-0.84-1.47-1.12c-0.61-0.28-1.25-0.42-1.92-0.42
		c-1.11,0-2.06,0.36-2.85,1.07c-0.58,0.52-1.02,1.3-1.32,2.33H132.36z"/>
	<path class="st3" d="M147.92,14.85v15.63h-1.43v-1.94c-0.61,0.74-1.29,1.3-2.05,1.67c-0.76,0.37-1.58,0.56-2.48,0.56
		c-1.6,0-2.96-0.58-4.09-1.74c-1.13-1.16-1.69-2.56-1.69-4.22c0-1.62,0.57-3.01,1.71-4.17c1.14-1.15,2.51-1.73,4.11-1.73
		c0.93,0,1.76,0.2,2.51,0.59c0.75,0.39,1.41,0.98,1.97,1.77v-6.43H147.92z M142.12,20.31c-0.81,0-1.55,0.2-2.24,0.6
		c-0.68,0.4-1.23,0.95-1.63,1.67c-0.4,0.72-0.61,1.48-0.61,2.28c0,0.79,0.2,1.55,0.61,2.28s0.95,1.29,1.64,1.69s1.42,0.61,2.21,0.61
		c0.79,0,1.55-0.2,2.26-0.6c0.71-0.4,1.26-0.94,1.64-1.63c0.38-0.68,0.57-1.45,0.57-2.31c0-1.3-0.43-2.39-1.29-3.27
		C144.43,20.75,143.37,20.31,142.12,20.31z"/>
</g>
<g>
	<path class="st4" d="M14.37,18.81h1.45v5.26c0,1.29,0.07,2.17,0.21,2.65c0.21,0.69,0.6,1.24,1.19,1.64s1.28,0.6,2.09,0.6
		s1.5-0.2,2.06-0.59c0.56-0.39,0.95-0.9,1.17-1.54c0.15-0.44,0.22-1.36,0.22-2.77v-5.26h1.48v5.53c0,1.55-0.18,2.73-0.54,3.51
		s-0.91,1.4-1.64,1.85c-0.73,0.45-1.64,0.67-2.74,0.67s-2.02-0.22-2.75-0.67c-0.74-0.45-1.29-1.07-1.65-1.87s-0.54-2-0.54-3.6V18.81
		z"/>
	<path class="st4" d="M27.46,18.81h1.45v2.02c0.58-0.77,1.22-1.35,1.93-1.74s1.47-0.58,2.3-0.58c0.84,0,1.59,0.21,2.24,0.64
		s1.13,1.01,1.45,1.73c0.31,0.73,0.47,1.85,0.47,3.39v5.8h-1.45V24.7c0-1.3-0.05-2.17-0.16-2.6c-0.17-0.75-0.49-1.31-0.97-1.68
		c-0.48-0.38-1.1-0.56-1.87-0.56c-0.88,0-1.66,0.29-2.36,0.87c-0.69,0.58-1.15,1.3-1.37,2.16c-0.14,0.56-0.21,1.58-0.21,3.07v4.13
		h-1.45V18.81z"/>
	<path class="st4" d="M40.42,18.81h1.45v2.07c0.57-0.79,1.23-1.38,1.98-1.77c0.75-0.39,1.58-0.59,2.49-0.59
		c1.6,0,2.97,0.58,4.11,1.73c1.14,1.15,1.71,2.54,1.71,4.17c0,1.66-0.56,3.07-1.69,4.22s-2.49,1.74-4.08,1.74
		c-0.9,0-1.72-0.19-2.47-0.56c-0.75-0.37-1.43-0.93-2.04-1.67v6.06h-1.45V18.81z M46.23,19.92c-1.25,0-2.31,0.44-3.17,1.31
		c-0.86,0.88-1.29,1.97-1.29,3.27c0,0.86,0.19,1.63,0.57,2.31c0.38,0.68,0.93,1.22,1.64,1.63c0.71,0.4,1.47,0.6,2.26,0.6
		c0.78,0,1.51-0.2,2.2-0.61s1.23-0.97,1.64-1.69s0.61-1.48,0.61-2.28c0-0.8-0.2-1.56-0.6-2.28c-0.4-0.72-0.95-1.27-1.63-1.67
		C47.78,20.12,47.03,19.92,46.23,19.92z"/>
	<path class="st4" d="M66.11,18.81v11.28h-1.43v-1.94c-0.61,0.74-1.29,1.3-2.05,1.67s-1.58,0.56-2.48,0.56
		c-1.6,0-2.96-0.58-4.09-1.74c-1.13-1.16-1.69-2.56-1.69-4.22c0-1.62,0.57-3.01,1.71-4.17c1.14-1.15,2.51-1.73,4.11-1.73
		c0.93,0,1.76,0.2,2.51,0.59c0.75,0.39,1.41,0.98,1.97,1.77v-2.07H66.11z M60.32,19.92c-0.81,0-1.55,0.2-2.24,0.6
		c-0.68,0.4-1.23,0.95-1.63,1.67c-0.4,0.72-0.61,1.48-0.61,2.28c0,0.79,0.2,1.55,0.61,2.28c0.41,0.72,0.95,1.29,1.64,1.69
		s1.42,0.61,2.21,0.61c0.79,0,1.55-0.2,2.26-0.6c0.71-0.4,1.26-0.94,1.64-1.63c0.38-0.68,0.57-1.45,0.57-2.31
		c0-1.3-0.43-2.39-1.29-3.27C62.63,20.35,61.57,19.92,60.32,19.92z"/>
	<path class="st4" d="M80.32,21.15l-1.15,0.71c-0.99-1.32-2.35-1.98-4.07-1.98c-1.37,0-2.51,0.44-3.42,1.32s-1.36,1.96-1.36,3.22
		c0,0.82,0.21,1.59,0.63,2.32s0.99,1.29,1.72,1.69c0.73,0.4,1.54,0.6,2.45,0.6c1.66,0,3.01-0.66,4.06-1.98l1.15,0.76
		c-0.54,0.81-1.26,1.44-2.17,1.89c-0.91,0.45-1.94,0.67-3.1,0.67c-1.78,0-3.26-0.57-4.44-1.7c-1.17-1.13-1.76-2.51-1.76-4.14
		c0-1.09,0.27-2.11,0.82-3.04s1.3-1.67,2.26-2.19s2.03-0.79,3.22-0.79c0.75,0,1.47,0.11,2.16,0.34s1.28,0.53,1.77,0.89
		C79.57,20.12,79.98,20.58,80.32,21.15z"/>
	<path class="st4" d="M83.1,14.45h1.45v8.9l5.23-4.55h2.13l-6.2,5.38l6.56,5.9h-2.04l-5.68-5.08v5.08H83.1V14.45z"/>
	<path class="st4" d="M105,18.81v11.28h-1.43v-1.94c-0.61,0.74-1.29,1.3-2.05,1.67c-0.76,0.37-1.58,0.56-2.48,0.56
		c-1.6,0-2.96-0.58-4.09-1.74c-1.13-1.16-1.7-2.56-1.7-4.22c0-1.62,0.57-3.01,1.71-4.17c1.14-1.15,2.51-1.73,4.11-1.73
		c0.93,0,1.76,0.2,2.51,0.59c0.75,0.39,1.41,0.98,1.97,1.77v-2.07H105z M99.2,19.92c-0.81,0-1.55,0.2-2.24,0.6
		c-0.68,0.4-1.23,0.95-1.63,1.67c-0.4,0.72-0.61,1.48-0.61,2.28c0,0.79,0.2,1.55,0.61,2.28s0.95,1.29,1.64,1.69s1.42,0.61,2.21,0.61
		c0.79,0,1.55-0.2,2.26-0.6c0.71-0.4,1.26-0.94,1.64-1.63c0.38-0.68,0.57-1.45,0.57-2.31c0-1.3-0.43-2.39-1.29-3.27
		S100.46,19.92,99.2,19.92z"/>
	<path class="st4" d="M117.98,18.81h1.45v8.98c0,1.58-0.14,2.74-0.41,3.47c-0.38,1.04-1.04,1.83-1.98,2.39s-2.07,0.84-3.39,0.84
		c-0.97,0-1.84-0.14-2.61-0.41s-1.4-0.64-1.88-1.1c-0.48-0.46-0.93-1.14-1.34-2.02h1.58c0.43,0.75,0.98,1.3,1.66,1.66
		c0.68,0.36,1.52,0.54,2.52,0.54c0.99,0,1.82-0.18,2.51-0.55c0.68-0.37,1.17-0.83,1.46-1.39c0.29-0.56,0.44-1.46,0.44-2.7v-0.58
		c-0.55,0.69-1.21,1.22-2,1.59c-0.79,0.37-1.63,0.55-2.51,0.55c-1.04,0-2.01-0.26-2.93-0.77s-1.62-1.21-2.12-2.08
		c-0.5-0.87-0.75-1.83-0.75-2.87c0-1.04,0.26-2.02,0.78-2.92c0.52-0.9,1.24-1.62,2.15-2.14s1.88-0.79,2.9-0.79
		c0.84,0,1.63,0.17,2.36,0.52c0.73,0.35,1.43,0.92,2.11,1.73V18.81z M113.7,19.92c-0.82,0-1.59,0.2-2.29,0.6
		c-0.71,0.4-1.26,0.95-1.66,1.65c-0.4,0.7-0.6,1.46-0.6,2.27c0,1.24,0.42,2.26,1.24,3.07c0.83,0.81,1.9,1.21,3.22,1.21
		c1.33,0,2.41-0.4,3.22-1.2c0.81-0.8,1.22-1.85,1.22-3.16c0-0.85-0.19-1.61-0.56-2.27c-0.37-0.67-0.9-1.19-1.59-1.58
		C115.23,20.11,114.49,19.92,113.7,19.92z"/>
	<path class="st4" d="M132.03,26.34l1.22,0.64c-0.4,0.79-0.86,1.42-1.39,1.91c-0.53,0.48-1.12,0.85-1.77,1.1
		c-0.66,0.25-1.4,0.38-2.23,0.38c-1.84,0-3.28-0.6-4.32-1.81c-1.04-1.21-1.56-2.57-1.56-4.09c0-1.43,0.44-2.71,1.32-3.82
		c1.11-1.42,2.6-2.13,4.47-2.13c1.92,0,3.46,0.73,4.61,2.19c0.82,1.03,1.23,2.31,1.24,3.86h-10.15c0.03,1.31,0.45,2.38,1.26,3.22
		c0.81,0.84,1.81,1.26,3,1.26c0.57,0,1.13-0.1,1.68-0.3c0.54-0.2,1-0.46,1.39-0.79C131.18,27.61,131.59,27.08,132.03,26.34z
		 M132.03,23.3c-0.19-0.77-0.48-1.39-0.85-1.85c-0.37-0.46-0.86-0.84-1.47-1.12c-0.61-0.28-1.25-0.42-1.92-0.42
		c-1.11,0-2.06,0.36-2.85,1.07c-0.58,0.52-1.02,1.3-1.32,2.33H132.03z"/>
	<path class="st4" d="M147.59,14.45v15.63h-1.43v-1.94c-0.61,0.74-1.29,1.3-2.05,1.67c-0.76,0.37-1.58,0.56-2.48,0.56
		c-1.6,0-2.96-0.58-4.09-1.74c-1.13-1.16-1.69-2.56-1.69-4.22c0-1.62,0.57-3.01,1.71-4.17c1.14-1.15,2.51-1.73,4.11-1.73
		c0.93,0,1.76,0.2,2.51,0.59c0.75,0.39,1.41,0.98,1.97,1.77v-6.43H147.59z M141.79,19.92c-0.81,0-1.55,0.2-2.24,0.6
		c-0.68,0.4-1.23,0.95-1.63,1.67c-0.4,0.72-0.61,1.48-0.61,2.28c0,0.79,0.2,1.55,0.61,2.28s0.95,1.29,1.64,1.69s1.42,0.61,2.21,0.61
		c0.79,0,1.55-0.2,2.26-0.6c0.71-0.4,1.26-0.94,1.64-1.63c0.38-0.68,0.57-1.45,0.57-2.31c0-1.3-0.43-2.39-1.29-3.27
		C144.11,20.35,143.05,19.92,141.79,19.92z"/>
</g>
</svg>
